<svg width="127" height="35" viewBox="0 0 127 35" fill="none" xmlns="http://www.w3.org/2000/svg">
<path d="M41.634 9.424C42.5727 9.424 43.4233 9.52667 44.186 9.732C44.9487 9.92267 45.594 10.238 46.122 10.678C46.6647 11.1033 47.0753 11.668 47.354 12.372C47.6473 13.0613 47.7867 13.912 47.772 14.924C47.7573 15.804 47.6033 16.5887 47.31 17.278C47.0167 17.9527 46.606 18.5247 46.078 18.994C45.5647 19.4487 44.9413 19.8007 44.208 20.05C43.4893 20.2847 42.7047 20.402 41.854 20.402H38.84V25H35.65V9.424H41.634ZM41.678 17.586C42.074 17.586 42.448 17.5347 42.8 17.432C43.1667 17.3293 43.482 17.168 43.746 16.948C44.01 16.728 44.2227 16.4567 44.384 16.134C44.5453 15.8113 44.6333 15.43 44.648 14.99C44.6773 13.9927 44.406 13.2887 43.834 12.878C43.2767 12.4673 42.5507 12.262 41.656 12.262H38.84V17.586H41.678ZM56.2537 23.57C55.8137 24.1567 55.2784 24.5747 54.6477 24.824C54.017 25.0733 53.2837 25.1907 52.4477 25.176C51.377 25.1467 50.4824 24.846 49.7637 24.274C49.3824 23.9513 49.0817 23.57 48.8617 23.13C48.6564 22.6753 48.5537 22.14 48.5537 21.524C48.5684 20.8933 48.7077 20.336 48.9717 19.852C49.2504 19.3533 49.6684 18.9427 50.2257 18.62C50.695 18.3707 51.223 18.1947 51.8097 18.092C52.411 17.9893 53.0637 17.938 53.7677 17.938H56.1437C56.1877 17.2193 56.019 16.684 55.6377 16.332C55.271 15.9653 54.7504 15.7747 54.0757 15.76C53.8557 15.76 53.6284 15.7747 53.3937 15.804C53.159 15.8333 52.939 15.892 52.7337 15.98C52.543 16.068 52.3744 16.1927 52.2277 16.354C52.0957 16.5007 52.0077 16.684 51.9637 16.904H48.7737C48.847 16.2 49.0377 15.6133 49.3457 15.144C49.6684 14.66 50.0717 14.2713 50.5557 13.978C51.0397 13.6847 51.575 13.4793 52.1617 13.362C52.763 13.23 53.379 13.164 54.0097 13.164C54.3617 13.164 54.721 13.186 55.0877 13.23C55.4544 13.2593 55.8137 13.3327 56.1657 13.45C56.5177 13.5527 56.8477 13.6993 57.1557 13.89C57.4784 14.066 57.779 14.3007 58.0577 14.594C58.5564 15.166 58.8644 15.826 58.9817 16.574C59.1137 17.3073 59.1724 18.026 59.1577 18.73V25H56.3197L56.2537 23.57ZM56.1437 19.874H53.8777C53.6577 19.874 53.4084 19.896 53.1297 19.94C52.851 19.984 52.609 20.0647 52.4037 20.182C52.1984 20.2993 52.0224 20.4533 51.8757 20.644C51.7437 20.8347 51.6777 21.0693 51.6777 21.348C51.6777 21.5827 51.7217 21.788 51.8097 21.964C51.9124 22.14 52.037 22.2867 52.1837 22.404C52.345 22.5213 52.5357 22.6167 52.7557 22.69C52.9757 22.7487 53.1957 22.778 53.4157 22.778C53.841 22.7927 54.237 22.7193 54.6037 22.558C54.985 22.3967 55.315 22.1693 55.5937 21.876C55.7697 21.6413 55.9017 21.3773 55.9897 21.084C56.0924 20.776 56.1437 20.3727 56.1437 19.874ZM68.711 26.804C69.0044 26.3493 69.173 25.8507 69.217 25.308C69.261 24.7653 69.283 24.23 69.283 23.702C68.8577 24.2447 68.337 24.626 67.721 24.846C67.105 25.066 66.4377 25.176 65.719 25.176C64.883 25.176 64.157 25.0513 63.541 24.802C62.9397 24.5527 62.463 24.1713 62.111 23.658C61.759 23.1887 61.517 22.6387 61.385 22.008C61.253 21.3627 61.187 20.666 61.187 19.918V13.406H64.289V19.544C64.289 19.94 64.3184 20.3287 64.377 20.71C64.4503 21.0767 64.597 21.3847 64.817 21.634C65.169 22.162 65.807 22.426 66.731 22.426C67.171 22.426 67.5817 22.338 67.963 22.162C68.3444 21.9713 68.645 21.678 68.865 21.282C69.0557 20.9447 69.173 20.5927 69.217 20.226C69.261 19.8447 69.283 19.434 69.283 18.994V13.406H72.407V22.932C72.407 23.46 72.3997 24.0027 72.385 24.56C72.385 25.1027 72.341 25.638 72.253 26.166C72.1797 26.694 72.0404 27.2073 71.835 27.706C71.6297 28.2047 71.3437 28.6667 70.977 29.092C70.4637 29.6787 69.789 30.148 68.953 30.5C68.1317 30.852 67.1417 31.0207 65.983 31.006C65.1324 31.0207 64.289 30.9033 63.453 30.654C62.617 30.4193 61.847 30.0747 61.143 29.62L62.133 26.98C62.5143 27.2587 63.0203 27.5153 63.651 27.75C64.2964 27.9847 65.0517 28.102 65.917 28.102C66.621 28.102 67.193 27.9847 67.633 27.75C68.0877 27.53 68.447 27.2147 68.711 26.804ZM82.924 23.702C82.4547 24.2007 81.9267 24.5673 81.34 24.802C80.768 25.022 80.0714 25.1467 79.25 25.176C78.4874 25.176 77.7834 25.0587 77.138 24.824C76.4927 24.5747 75.9354 24.208 75.466 23.724C74.9087 23.1373 74.5127 22.4553 74.278 21.678C74.058 20.9007 73.948 20.1087 73.948 19.302C73.948 17.41 74.476 15.892 75.532 14.748C76.0014 14.2493 76.588 13.8607 77.292 13.582C77.996 13.3033 78.7954 13.164 79.69 13.164C80.3647 13.164 80.966 13.2667 81.494 13.472C82.0367 13.6627 82.4914 13.9487 82.858 14.33V9.424H85.982V25H83.1L82.924 23.702ZM79.976 22.426C80.9147 22.3967 81.626 22.0813 82.11 21.48C82.6087 20.864 82.858 20.1087 82.858 19.214C82.858 18.246 82.6087 17.4613 82.11 16.86C81.6114 16.2587 80.8854 15.9507 79.932 15.936C79.448 15.936 79.0227 16.0167 78.656 16.178C78.304 16.3393 78.0034 16.574 77.754 16.882C77.5194 17.1753 77.3434 17.52 77.226 17.916C77.1087 18.2973 77.05 18.7153 77.05 19.17C77.05 19.654 77.1087 20.094 77.226 20.49C77.3434 20.8713 77.5194 21.2087 77.754 21.502C78.0034 21.7953 78.3114 22.0227 78.678 22.184C79.0594 22.3453 79.492 22.426 79.976 22.426ZM93.2579 22.646C93.6979 22.646 94.0719 22.58 94.3799 22.448C94.7025 22.3013 94.9665 22.0667 95.1719 21.744H98.4279C98.2665 22.3453 98.0172 22.866 97.6799 23.306C97.3572 23.746 96.9612 24.1053 96.4919 24.384C96.0372 24.6627 95.5312 24.868 94.9739 25C94.4165 25.1173 93.8299 25.176 93.2139 25.176C91.3365 25.176 89.9139 24.648 88.9459 23.592C87.9925 22.536 87.5159 21.0547 87.5159 19.148C87.5159 18.2827 87.6405 17.4833 87.8899 16.75C88.1539 16.0167 88.5205 15.386 88.9899 14.858C89.4592 14.3153 90.0385 13.8973 90.7279 13.604C91.4319 13.3107 92.2312 13.164 93.1259 13.164C94.1672 13.164 95.0692 13.3473 95.8319 13.714C96.5945 14.0807 97.1959 14.5867 97.6359 15.232C98.0905 15.8627 98.3912 16.6033 98.5379 17.454C98.6992 18.3047 98.6992 19.214 98.5379 20.182H90.6179C90.6765 20.8713 90.9185 21.458 91.3439 21.942C91.7692 22.4113 92.4072 22.646 93.2579 22.646ZM95.6559 18.048C95.6559 17.6813 95.5899 17.3587 95.4579 17.08C95.3259 16.7867 95.1499 16.552 94.9299 16.376C94.7099 16.1853 94.4459 16.046 94.1379 15.958C93.8445 15.87 93.5365 15.826 93.2139 15.826C92.4365 15.8407 91.8279 16.0533 91.3879 16.464C90.9625 16.86 90.7132 17.388 90.6399 18.048H95.6559ZM104.503 15.65C104.283 15.65 104.07 15.6647 103.865 15.694C103.674 15.7233 103.498 15.7747 103.337 15.848C103.176 15.9067 103.044 16.0093 102.941 16.156C102.838 16.288 102.794 16.464 102.809 16.684C102.824 16.9333 102.919 17.1313 103.095 17.278C103.286 17.4247 103.55 17.542 103.887 17.63C104.21 17.718 104.569 17.806 104.965 17.894C105.361 17.9673 105.75 18.048 106.131 18.136C106.512 18.224 106.886 18.3267 107.253 18.444C107.62 18.5613 107.942 18.708 108.221 18.884C108.602 19.1187 108.918 19.4487 109.167 19.874C109.416 20.2993 109.534 20.82 109.519 21.436C109.519 22.0373 109.416 22.558 109.211 22.998C109.02 23.4233 108.756 23.79 108.419 24.098C107.994 24.4793 107.458 24.758 106.813 24.934C106.168 25.0953 105.515 25.176 104.855 25.176C104.092 25.176 103.388 25.0953 102.743 24.934C102.112 24.7727 101.533 24.4867 101.005 24.076C100.624 23.768 100.301 23.394 100.037 22.954C99.7878 22.4993 99.6411 21.9567 99.5971 21.326H102.721C102.809 21.8247 103.051 22.1693 103.447 22.36C103.858 22.5507 104.342 22.646 104.899 22.646C105.06 22.646 105.229 22.6387 105.405 22.624C105.596 22.5947 105.764 22.5507 105.911 22.492C106.072 22.4187 106.204 22.316 106.307 22.184C106.424 22.0373 106.483 21.8833 106.483 21.722C106.498 21.3407 106.366 21.0693 106.087 20.908C105.823 20.7467 105.537 20.6367 105.229 20.578C104.921 20.5047 104.591 20.4313 104.239 20.358C103.887 20.2847 103.535 20.2113 103.183 20.138C102.846 20.0647 102.508 19.9767 102.171 19.874C101.834 19.7567 101.526 19.6027 101.247 19.412C100.822 19.148 100.462 18.796 100.169 18.356C99.8905 17.916 99.7731 17.3367 99.8171 16.618C99.8465 15.9873 100 15.452 100.279 15.012C100.572 14.5573 100.932 14.198 101.357 13.934C101.797 13.6553 102.288 13.4573 102.831 13.34C103.388 13.2227 103.953 13.164 104.525 13.164C105.156 13.164 105.75 13.23 106.307 13.362C106.864 13.494 107.348 13.7067 107.759 14C108.184 14.2933 108.522 14.6747 108.771 15.144C109.035 15.6133 109.182 16.1853 109.211 16.86H106.219C106.16 16.376 105.97 16.0533 105.647 15.892C105.339 15.7307 104.958 15.65 104.503 15.65ZM114.026 20.578V25H110.924V9.424H114.026V17.894H115.566L118.074 13.406H121.616L118.184 18.906L121.88 25H118.272L115.676 20.578H114.026Z" fill="#1C1E30"/>
<path d="M5.51528 21.1576L9.76732 16.9056L13.3028 20.4411L17.249 16.495L15.0078 14.2539H21.2578V20.5039L19.0167 18.2627L13.3028 23.9766L9.76732 20.4411L6.67464 23.5337C8.46619 26.2281 11.5296 28.0039 15.0078 28.0039C20.5307 28.0039 25.0078 23.5267 25.0078 18.0039C25.0078 12.4811 20.5307 8.00391 15.0078 8.00391C9.48496 8.00391 5.00781 12.4811 5.00781 18.0039C5.00781 19.1059 5.18605 20.1661 5.51528 21.1576ZM3.59281 23.1054L3.58015 23.0927L3.58499 23.0879C2.89266 21.5347 2.50781 19.8142 2.50781 18.0039C2.50781 11.1003 8.10426 5.50391 15.0078 5.50391C21.9113 5.50391 27.5078 11.1003 27.5078 18.0039C27.5078 24.9075 21.9113 30.5039 15.0078 30.5039C9.92139 30.5039 5.54454 27.4659 3.59281 23.1054Z" fill="#1C1E30"/>
</svg>
