<svg width="380" height="439" viewBox="0 0 380 439" fill="none" xmlns="http://www.w3.org/2000/svg">
<g filter="url(#filter0_d_7728_297)">
<rect width="105" height="105" rx="52.5" transform="matrix(-1 0 0 1 165 242)" fill="white"/>
<g clip-path="url(#clip0_7728_297)">
<path d="M89.1445 310.037L97.7172 303.447C102.272 309.412 107.111 312.162 112.497 312.162C117.855 312.162 122.557 309.445 126.906 303.527L135.601 309.958C129.326 318.491 121.527 323 112.497 323C103.496 323 95.6218 318.52 89.1445 310.037Z" fill="url(#paint0_linear_7728_297)"/>
<path d="M112.468 281.395L97.2096 294.589L90.1562 286.38L112.501 267.059L134.669 286.395L127.583 294.574L112.468 281.395Z" fill="url(#paint1_linear_7728_297)"/>
</g>
</g>
<g filter="url(#filter1_d_7728_297)">
<rect width="85" height="85" rx="42.5" transform="matrix(-1 0 0 1 255 35)" fill="white"/>
<g clip-path="url(#clip1_7728_297)">
<path d="M220.816 53.4248C218.177 52.5004 215.343 52 212.388 52C210.084 52 207.849 52.306 205.727 52.8797C199.007 54.6934 192.291 60.2014 190.503 67.1151C189.706 70.1911 189.811 73.3913 191.396 76.1995C191.689 76.7222 192.017 77.2227 192.38 77.7008C192.795 78.2554 193.257 78.7782 193.757 79.2595C194.478 79.9576 195.281 80.5759 196.161 81.1051C199.192 82.9219 202.753 83.4542 206.182 82.5936C210.323 81.5609 213.648 78.6379 215.232 74.7651H208.34C208.038 74.7651 207.795 74.5197 207.795 74.2169V69.646C207.795 69.3432 208.038 69.0977 208.34 69.0977H224.612C224.915 69.0977 225.161 69.3432 225.161 69.646V86.8713C225.161 87.1741 224.915 87.4195 224.612 87.4195H220.045C219.742 87.4195 219.497 87.1741 219.497 86.8713V78.9471C216.991 83.4574 212.717 86.8043 207.553 88.0921C206.026 88.4746 204.477 88.6626 202.941 88.6626C199.556 88.6626 196.221 87.7478 193.244 85.9596C191.963 85.1914 190.793 84.2862 189.751 83.2662C189.614 83.1355 189.48 82.9984 189.349 82.8614C188.466 81.9466 187.679 80.9489 187 79.8747C188.198 92.8446 199.106 103 212.388 103C226.474 103 237.888 91.5824 237.888 77.5C237.888 66.3692 230.758 56.9024 220.816 53.4248Z" fill="#118751"/>
</g>
</g>
<g filter="url(#filter2_d_7728_297)">
<rect width="97" height="97" rx="48.5" transform="matrix(-1 0 0 1 340 162)" fill="white"/>
<g clip-path="url(#clip2_7728_297)">
<path d="M291.614 186.727C304.82 186.727 315.505 197.573 315.505 210.959C315.505 224.345 304.82 235.213 291.614 235.213C278.408 235.213 267.723 224.366 267.723 210.98C267.723 197.594 278.408 186.727 291.614 186.727Z" fill="#E74D89"/>
<path d="M291.612 236.939C277.485 236.939 266 225.3 266 210.98C266 196.639 277.485 185 291.612 185C305.739 185 317.224 196.639 317.224 210.959C317.224 225.28 305.739 236.939 291.612 236.939ZM313.202 214.514C312.462 214.27 306.439 212.463 299.576 213.559C302.437 221.522 303.598 228.022 303.818 229.363C308.74 226.011 312.242 220.689 313.202 214.514ZM300.156 231.414C299.836 229.464 298.555 222.68 295.494 214.595C295.454 214.616 295.394 214.636 295.354 214.636C283.008 219.003 278.586 227.677 278.186 228.489C281.887 231.414 286.55 233.161 291.612 233.161C294.633 233.181 297.535 232.552 300.156 231.414ZM275.364 225.828C275.865 224.975 281.867 214.9 293.153 211.183C293.433 211.081 293.733 211 294.013 210.919C293.473 209.659 292.873 208.4 292.232 207.161C281.307 210.472 270.702 210.33 269.742 210.309C269.742 210.533 269.722 210.756 269.722 210.98C269.742 216.688 271.863 221.888 275.364 225.828ZM270.202 206.45C271.182 206.47 280.187 206.511 290.431 203.748C286.81 197.208 282.888 191.723 282.328 190.931C276.185 193.856 271.623 199.584 270.202 206.45ZM286.49 189.428C287.09 190.241 291.072 195.725 294.653 202.408C302.437 199.442 305.719 194.973 306.119 194.405C302.257 190.931 297.175 188.819 291.612 188.819C289.851 188.819 288.13 189.042 286.49 189.428ZM308.54 196.964C308.08 197.594 304.418 202.367 296.334 205.719C296.834 206.775 297.335 207.852 297.795 208.928C297.955 209.314 298.115 209.7 298.275 210.066C305.558 209.131 312.782 210.634 313.502 210.777C313.442 205.556 311.601 200.742 308.54 196.964Z" fill="#B2215A"/>
</g>
</g>
<g filter="url(#filter3_d_7728_297)">
<rect width="87" height="87" rx="43.5" transform="matrix(-1 0 0 1 127 90)" fill="white"/>
<path fill-rule="evenodd" clip-rule="evenodd" d="M84 134.001C84 129.214 88.0294 125.334 93 125.334C97.9706 125.334 102 129.214 102 134.001C102 138.787 97.9706 142.667 93 142.667C88.0294 142.667 84 138.787 84 134.001Z" fill="#1ABCFE"/>
<path fill-rule="evenodd" clip-rule="evenodd" d="M66 151.333C66 146.546 70.0294 142.666 75 142.666H84V151.333C84 156.119 79.9706 159.999 75 159.999C70.0294 159.999 66 156.119 66 151.333Z" fill="#0ACF83"/>
<path fill-rule="evenodd" clip-rule="evenodd" d="M84 108V125.333H93C97.9706 125.333 102 121.453 102 116.667C102 111.88 97.9706 108 93 108H84Z" fill="#FF7262"/>
<path fill-rule="evenodd" clip-rule="evenodd" d="M66 116.667C66 121.453 70.0294 125.333 75 125.333H84V108H75C70.0294 108 66 111.88 66 116.667Z" fill="#F24E1E"/>
<path fill-rule="evenodd" clip-rule="evenodd" d="M66 134.001C66 138.787 70.0294 142.667 75 142.667H84V125.334H75C70.0294 125.334 66 129.214 66 134.001Z" fill="#A259FF"/>
</g>
<g filter="url(#filter4_d_7728_297)">
<rect width="80" height="80" rx="40" transform="matrix(-1 0 0 1 288 314)" fill="white"/>
<path d="M239.869 340.234C239.869 340.732 239.829 341.561 239.351 342.1C238.833 342.597 238.036 342.639 237.558 342.639C234.869 342.639 231.138 341.953 228.594 343.012C232.476 335.944 239.997 331.248 239.949 331.653C239.59 334.45 239.869 337.422 239.869 340.234ZM247.917 372.321C247.917 368.88 250.627 366.061 253.973 366.061C254.969 366.061 255.766 366.89 255.766 367.927C255.766 368.631 255.408 369.212 254.85 369.543C254.242 369.923 253.401 369.746 252.858 370.248C252.459 370.58 252.141 371.119 252.141 371.699C252.141 372.321 252.38 372.901 252.778 373.316C253.495 374.062 254.451 374.476 255.487 374.476C258.197 374.476 260.388 372.196 260.388 369.377C260.388 366.849 258.754 364.61 256.603 363.615C253.338 361.917 248.342 362.883 247.957 357.563C247.358 360.377 246.037 365.398 242.459 365.398C231.649 366.066 227.753 357.183 227 347.779C227 345.748 228.195 344.38 229.709 344.173C232.419 344.173 235.128 344.173 237.837 344.173C239.232 344.173 240.028 343.8 240.546 343.302C241.224 342.639 241.383 341.685 241.383 340.566C241.383 337.65 241.383 333.167 241.383 331.819C241.383 330.059 242.897 329 244.849 329C245.999 329 247.079 329.041 248.196 329.332C250.627 329.953 251.144 332.524 251.144 332.524C251.144 332.524 255.726 333.353 258.037 333.767C260.229 334.182 265.647 334.555 266.683 340.234C269.113 353.749 267.639 366.849 267.52 366.849C265.806 379.617 255.607 378.995 255.607 378.995C251.899 378.995 247.917 376.428 247.917 372.321ZM259.87 350.308C258.555 350.184 257.44 350.723 257.041 351.759C256.477 353.228 262.3 354.449 262.3 352.422C262.141 351.262 261.185 350.474 259.87 350.308Z" fill="#00A82D"/>
</g>
<defs>
<filter id="filter0_d_7728_297" x="20" y="207" width="185" height="185" filterUnits="userSpaceOnUse" color-interpolation-filters="sRGB">
<feFlood flood-opacity="0" result="BackgroundImageFix"/>
<feColorMatrix in="SourceAlpha" type="matrix" values="0 0 0 0 0 0 0 0 0 0 0 0 0 0 0 0 0 0 127 0" result="hardAlpha"/>
<feOffset dy="5"/>
<feGaussianBlur stdDeviation="20"/>
<feComposite in2="hardAlpha" operator="out"/>
<feColorMatrix type="matrix" values="0 0 0 0 0.109804 0 0 0 0 0.117647 0 0 0 0 0.188235 0 0 0 0.05 0"/>
<feBlend mode="normal" in2="BackgroundImageFix" result="effect1_dropShadow_7728_297"/>
<feBlend mode="normal" in="SourceGraphic" in2="effect1_dropShadow_7728_297" result="shape"/>
</filter>
<filter id="filter1_d_7728_297" x="130" y="0" width="165" height="165" filterUnits="userSpaceOnUse" color-interpolation-filters="sRGB">
<feFlood flood-opacity="0" result="BackgroundImageFix"/>
<feColorMatrix in="SourceAlpha" type="matrix" values="0 0 0 0 0 0 0 0 0 0 0 0 0 0 0 0 0 0 127 0" result="hardAlpha"/>
<feOffset dy="5"/>
<feGaussianBlur stdDeviation="20"/>
<feComposite in2="hardAlpha" operator="out"/>
<feColorMatrix type="matrix" values="0 0 0 0 0.109804 0 0 0 0 0.117647 0 0 0 0 0.188235 0 0 0 0.05 0"/>
<feBlend mode="normal" in2="BackgroundImageFix" result="effect1_dropShadow_7728_297"/>
<feBlend mode="normal" in="SourceGraphic" in2="effect1_dropShadow_7728_297" result="shape"/>
</filter>
<filter id="filter2_d_7728_297" x="203" y="127" width="177" height="177" filterUnits="userSpaceOnUse" color-interpolation-filters="sRGB">
<feFlood flood-opacity="0" result="BackgroundImageFix"/>
<feColorMatrix in="SourceAlpha" type="matrix" values="0 0 0 0 0 0 0 0 0 0 0 0 0 0 0 0 0 0 127 0" result="hardAlpha"/>
<feOffset dy="5"/>
<feGaussianBlur stdDeviation="20"/>
<feComposite in2="hardAlpha" operator="out"/>
<feColorMatrix type="matrix" values="0 0 0 0 0.109804 0 0 0 0 0.117647 0 0 0 0 0.188235 0 0 0 0.05 0"/>
<feBlend mode="normal" in2="BackgroundImageFix" result="effect1_dropShadow_7728_297"/>
<feBlend mode="normal" in="SourceGraphic" in2="effect1_dropShadow_7728_297" result="shape"/>
</filter>
<filter id="filter3_d_7728_297" x="0" y="55" width="167" height="167" filterUnits="userSpaceOnUse" color-interpolation-filters="sRGB">
<feFlood flood-opacity="0" result="BackgroundImageFix"/>
<feColorMatrix in="SourceAlpha" type="matrix" values="0 0 0 0 0 0 0 0 0 0 0 0 0 0 0 0 0 0 127 0" result="hardAlpha"/>
<feOffset dy="5"/>
<feGaussianBlur stdDeviation="20"/>
<feComposite in2="hardAlpha" operator="out"/>
<feColorMatrix type="matrix" values="0 0 0 0 0.109804 0 0 0 0 0.117647 0 0 0 0 0.188235 0 0 0 0.05 0"/>
<feBlend mode="normal" in2="BackgroundImageFix" result="effect1_dropShadow_7728_297"/>
<feBlend mode="normal" in="SourceGraphic" in2="effect1_dropShadow_7728_297" result="shape"/>
</filter>
<filter id="filter4_d_7728_297" x="168" y="279" width="160" height="160" filterUnits="userSpaceOnUse" color-interpolation-filters="sRGB">
<feFlood flood-opacity="0" result="BackgroundImageFix"/>
<feColorMatrix in="SourceAlpha" type="matrix" values="0 0 0 0 0 0 0 0 0 0 0 0 0 0 0 0 0 0 127 0" result="hardAlpha"/>
<feOffset dy="5"/>
<feGaussianBlur stdDeviation="20"/>
<feComposite in2="hardAlpha" operator="out"/>
<feColorMatrix type="matrix" values="0 0 0 0 0.109804 0 0 0 0 0.117647 0 0 0 0 0.188235 0 0 0 0.05 0"/>
<feBlend mode="normal" in2="BackgroundImageFix" result="effect1_dropShadow_7728_297"/>
<feBlend mode="normal" in="SourceGraphic" in2="effect1_dropShadow_7728_297" result="shape"/>
</filter>
<linearGradient id="paint0_linear_7728_297" x1="89.1445" y1="305.105" x2="135.601" y2="305.105" gradientUnits="userSpaceOnUse">
<stop stop-color="#8930FD"/>
<stop offset="1" stop-color="#49CCF9"/>
</linearGradient>
<linearGradient id="paint1_linear_7728_297" x1="90.1562" y1="285.782" x2="134.669" y2="285.782" gradientUnits="userSpaceOnUse">
<stop stop-color="#FF02F0"/>
<stop offset="1" stop-color="#FFC800"/>
</linearGradient>
<clipPath id="clip0_7728_297">
<rect width="46.806" height="56" fill="white" transform="translate(89 267)"/>
</clipPath>
<clipPath id="clip1_7728_297">
<rect width="51" height="51" fill="white" transform="translate(187 52)"/>
</clipPath>
<clipPath id="clip2_7728_297">
<rect width="51.2239" height="52" fill="white" transform="translate(266 185)"/>
</clipPath>
</defs>
</svg>
