<svg width="380" height="439" viewBox="0 0 380 439" fill="none" xmlns="http://www.w3.org/2000/svg">
<g filter="url(#filter0_d_7728_275)">
<rect x="215" y="242" width="105" height="105" rx="52.5" fill="white"/>
<path d="M294.801 291.874C298.425 291.874 301.363 288.936 301.363 285.312C301.363 281.688 298.425 278.75 294.801 278.75C291.177 278.75 288.238 281.688 288.238 285.312V291.874H294.801ZM276.426 291.874C280.05 291.874 282.988 288.936 282.988 285.311V266.937C282.988 263.313 280.05 260.375 276.426 260.375C272.801 260.375 269.863 263.313 269.863 266.937V285.311C269.863 288.936 272.801 291.874 276.426 291.874Z" fill="#2EB67D"/>
<path d="M239.675 297.126C236.051 297.126 233.113 300.064 233.113 303.688C233.113 307.312 236.051 310.25 239.676 310.25C243.3 310.25 246.238 307.312 246.238 303.688V297.126H239.675ZM258.051 297.126C254.426 297.126 251.488 300.064 251.488 303.689V322.063C251.488 325.687 254.426 328.625 258.051 328.625C261.675 328.625 264.613 325.687 264.613 322.063V303.689C264.613 300.064 261.675 297.126 258.051 297.126Z" fill="#E01E5A"/>
<path d="M269.864 322.063C269.864 325.687 272.802 328.625 276.426 328.625C280.05 328.625 282.988 325.687 282.988 322.063C282.988 318.438 280.05 315.5 276.426 315.5L269.864 315.5L269.864 322.063ZM269.864 303.687C269.864 307.312 272.803 310.25 276.427 310.25L294.801 310.25C298.425 310.25 301.363 307.312 301.363 303.687C301.363 300.063 298.425 297.125 294.801 297.125L276.427 297.125C272.803 297.125 269.864 300.063 269.864 303.687Z" fill="#ECB22E"/>
<path d="M264.612 266.937C264.612 263.313 261.674 260.375 258.05 260.375C254.426 260.375 251.488 263.313 251.488 266.937C251.488 270.562 254.426 273.5 258.051 273.5L264.612 273.5L264.612 266.937ZM264.612 285.313C264.612 281.688 261.674 278.75 258.05 278.75L239.676 278.75C236.051 278.75 233.113 281.688 233.113 285.313C233.113 288.937 236.051 291.875 239.676 291.875L258.05 291.875C261.674 291.875 264.612 288.937 264.612 285.313Z" fill="#36C5F0"/>
</g>
<g filter="url(#filter1_d_7728_275)">
<rect x="125" y="35" width="85" height="85" rx="42.5" fill="white"/>
<path d="M172.883 82.8951C169.423 84.1972 165.545 84.1996 162.085 82.8959C160.781 79.4395 160.781 75.5628 162.083 72.1058C165.542 70.8015 169.423 70.8013 172.883 72.1056C174.186 75.5616 174.185 79.4391 172.883 82.8951ZM192.645 73.25H177.751L188.282 62.7243C186.63 60.404 184.589 58.3657 182.267 56.7138L171.735 67.2395V52.3542C168.924 51.8816 166.042 51.8823 163.231 52.3542V67.2395L152.699 56.7138C150.377 58.3646 148.336 60.4056 146.683 62.7243L157.216 73.25H142.322C141.954 76.1434 141.835 78.8627 142.322 81.7502H157.217L146.684 92.2759C148.341 94.5997 150.373 96.6312 152.699 98.2871L163.231 87.7606V102.647C166.042 103.118 168.924 103.118 171.735 102.647V87.7606L182.268 98.2871C184.591 96.6336 186.628 94.597 188.282 92.2759L177.749 81.7502H192.645C193.118 78.9434 193.118 76.0568 192.645 73.25Z" fill="#FF4A00"/>
</g>
<g filter="url(#filter2_d_7728_275)">
<rect x="40" y="162" width="97" height="97" rx="48.5" fill="white"/>
<path d="M104.508 192.586L88.6695 204.583L72.4688 192.586V192.589L72.4883 192.605V209.405L88.4868 221.661L104.508 209.878V192.586Z" fill="#EA4335"/>
<path d="M108.667 189.668L104.508 192.586V209.878L117.596 200.125V194.249C117.596 194.249 116.008 185.858 108.667 189.668Z" fill="#FBBC05"/>
<path d="M104.508 209.878V232.306H114.539C114.539 232.306 117.394 232.021 117.6 228.863V200.125L104.508 209.878Z" fill="#34A853"/>
<path d="M72.4886 232.326V209.405L72.4688 209.389L72.4886 232.326Z" fill="#C5221F"/>
<path d="M72.4673 192.59L68.3307 189.688C60.9905 185.878 59.3984 194.266 59.3984 194.266V200.141L72.4673 209.389V192.59Z" fill="#C5221F"/>
<path d="M72.4688 192.59V209.389L72.4886 209.405V192.606L72.4688 192.59Z" fill="#C5221F"/>
<path d="M59.3984 200.145V228.883C59.6007 232.044 62.4585 232.326 62.4585 232.326H72.4902L72.4673 209.389L59.3984 200.145Z" fill="#4285F4"/>
</g>
<g filter="url(#filter3_d_7728_275)">
<rect x="253" y="90" width="87" height="87" rx="43.5" fill="white"/>
<path d="M289.308 130.101V129.774C289.308 128.945 289.975 128.257 290.836 128.2L297.103 127.784L305.769 140.479V129.337L303.539 129.041V128.885C303.539 128.047 304.221 127.354 305.093 127.31L310.795 127.019V127.836C310.795 128.219 310.508 128.547 310.116 128.613L308.744 128.844V146.889L307.022 147.478C305.583 147.97 303.981 147.443 303.157 146.207L294.744 133.577V145.632L297.333 146.125L297.297 146.364C297.184 147.112 296.535 147.678 295.749 147.713L289.308 147.998C289.223 147.193 289.829 146.473 290.666 146.386L291.513 146.297V130.224L289.308 130.101Z" fill="#1C1E30"/>
<path fill-rule="evenodd" clip-rule="evenodd" d="M304.568 113.012L278.746 114.766C277.199 114.871 276 116.108 276 117.598V142.583C276 143.984 276.485 145.345 277.378 146.451L282.945 153.351C283.846 154.467 285.262 155.081 286.728 154.991L315.388 153.236C316.856 153.146 318 151.975 318 150.56V122.155C318 121.279 317.556 120.459 316.809 119.957L307.737 113.855C306.812 113.233 305.693 112.935 304.568 113.012ZM280.026 117.988C279.667 117.724 279.838 117.173 280.289 117.14L304.742 115.396C305.521 115.34 306.295 115.553 306.925 115.998L311.831 119.455C312.017 119.587 311.93 119.87 311.699 119.883L285.804 121.284C285.021 121.326 284.247 121.097 283.624 120.638L280.026 117.988ZM284.59 125.676C284.59 124.839 285.269 124.147 286.138 124.1L313.517 122.617C314.364 122.571 315.077 123.219 315.077 124.035V148.631C315.077 149.466 314.4 150.156 313.532 150.206L286.327 151.745C285.385 151.799 284.59 151.078 284.59 150.17V125.676Z" fill="#1C1E30"/>
</g>
<g filter="url(#filter4_d_7728_275)">
<rect x="92" y="314" width="80" height="80" rx="40" fill="white"/>
<g clip-path="url(#clip0_7728_275)">
<path d="M144.72 342.658C144.693 342.463 144.523 342.355 144.383 342.343C144.243 342.331 141.278 342.11 141.278 342.11C141.278 342.11 139.218 340.054 138.992 339.827C138.766 339.599 138.324 339.668 138.153 339.719C138.128 339.726 137.703 339.858 137.001 340.077C136.313 338.086 135.099 336.257 132.963 336.257C132.904 336.257 132.843 336.259 132.782 336.262C132.175 335.455 131.423 335.104 130.773 335.104C125.797 335.104 123.42 341.359 122.675 344.538C120.742 345.14 119.368 345.568 119.193 345.624C118.114 345.964 118.08 345.999 117.938 347.021C117.831 347.795 115.008 369.757 115.008 369.757L137.01 373.903L148.931 371.309C148.931 371.309 144.746 342.853 144.72 342.658H144.72ZM135.785 340.455L133.923 341.035C133.923 340.903 133.924 340.773 133.924 340.631C133.924 339.394 133.753 338.397 133.479 337.608C134.58 337.747 135.313 339.006 135.785 340.455ZM132.114 337.853C132.42 338.624 132.619 339.731 132.619 341.224C132.619 341.3 132.618 341.37 132.618 341.441C131.407 341.818 130.091 342.227 128.773 342.638C129.513 339.765 130.901 338.377 132.114 337.853ZM130.636 336.446C130.851 336.446 131.067 336.519 131.274 336.662C129.68 337.417 127.97 339.318 127.249 343.113L124.209 344.06C125.055 341.165 127.062 336.446 130.636 336.446H130.636Z" fill="#84B42B"/>
<path d="M144.38 342.343C144.24 342.331 141.275 342.11 141.275 342.11C141.275 342.11 139.215 340.054 138.989 339.826C138.905 339.742 138.791 339.698 138.671 339.68L137.008 373.903L148.928 371.309C148.928 371.309 144.743 342.853 144.717 342.658C144.69 342.463 144.52 342.355 144.38 342.343Z" fill="#5A9433"/>
<path d="M132.962 348.968L131.492 353.366C131.492 353.366 130.205 352.674 128.626 352.674C126.311 352.674 126.195 354.135 126.195 354.503C126.195 356.512 131.401 357.281 131.401 361.986C131.401 365.687 129.067 368.071 125.919 368.071C122.142 368.071 120.211 365.707 120.211 365.707L121.222 362.346C121.222 362.346 123.208 364.061 124.883 364.061C125.977 364.061 126.423 363.194 126.423 362.56C126.423 359.94 122.152 359.824 122.152 355.518C122.152 351.895 124.738 348.389 129.958 348.389C131.969 348.389 132.962 348.968 132.962 348.968Z" fill="white"/>
</g>
</g>
<defs>
<filter id="filter0_d_7728_275" x="175" y="207" width="185" height="185" filterUnits="userSpaceOnUse" color-interpolation-filters="sRGB">
<feFlood flood-opacity="0" result="BackgroundImageFix"/>
<feColorMatrix in="SourceAlpha" type="matrix" values="0 0 0 0 0 0 0 0 0 0 0 0 0 0 0 0 0 0 127 0" result="hardAlpha"/>
<feOffset dy="5"/>
<feGaussianBlur stdDeviation="20"/>
<feComposite in2="hardAlpha" operator="out"/>
<feColorMatrix type="matrix" values="0 0 0 0 0.109804 0 0 0 0 0.117647 0 0 0 0 0.188235 0 0 0 0.05 0"/>
<feBlend mode="normal" in2="BackgroundImageFix" result="effect1_dropShadow_7728_275"/>
<feBlend mode="normal" in="SourceGraphic" in2="effect1_dropShadow_7728_275" result="shape"/>
</filter>
<filter id="filter1_d_7728_275" x="85" y="0" width="165" height="165" filterUnits="userSpaceOnUse" color-interpolation-filters="sRGB">
<feFlood flood-opacity="0" result="BackgroundImageFix"/>
<feColorMatrix in="SourceAlpha" type="matrix" values="0 0 0 0 0 0 0 0 0 0 0 0 0 0 0 0 0 0 127 0" result="hardAlpha"/>
<feOffset dy="5"/>
<feGaussianBlur stdDeviation="20"/>
<feComposite in2="hardAlpha" operator="out"/>
<feColorMatrix type="matrix" values="0 0 0 0 0.109804 0 0 0 0 0.117647 0 0 0 0 0.188235 0 0 0 0.05 0"/>
<feBlend mode="normal" in2="BackgroundImageFix" result="effect1_dropShadow_7728_275"/>
<feBlend mode="normal" in="SourceGraphic" in2="effect1_dropShadow_7728_275" result="shape"/>
</filter>
<filter id="filter2_d_7728_275" x="0" y="127" width="177" height="177" filterUnits="userSpaceOnUse" color-interpolation-filters="sRGB">
<feFlood flood-opacity="0" result="BackgroundImageFix"/>
<feColorMatrix in="SourceAlpha" type="matrix" values="0 0 0 0 0 0 0 0 0 0 0 0 0 0 0 0 0 0 127 0" result="hardAlpha"/>
<feOffset dy="5"/>
<feGaussianBlur stdDeviation="20"/>
<feComposite in2="hardAlpha" operator="out"/>
<feColorMatrix type="matrix" values="0 0 0 0 0.109804 0 0 0 0 0.117647 0 0 0 0 0.188235 0 0 0 0.05 0"/>
<feBlend mode="normal" in2="BackgroundImageFix" result="effect1_dropShadow_7728_275"/>
<feBlend mode="normal" in="SourceGraphic" in2="effect1_dropShadow_7728_275" result="shape"/>
</filter>
<filter id="filter3_d_7728_275" x="213" y="55" width="167" height="167" filterUnits="userSpaceOnUse" color-interpolation-filters="sRGB">
<feFlood flood-opacity="0" result="BackgroundImageFix"/>
<feColorMatrix in="SourceAlpha" type="matrix" values="0 0 0 0 0 0 0 0 0 0 0 0 0 0 0 0 0 0 127 0" result="hardAlpha"/>
<feOffset dy="5"/>
<feGaussianBlur stdDeviation="20"/>
<feComposite in2="hardAlpha" operator="out"/>
<feColorMatrix type="matrix" values="0 0 0 0 0.109804 0 0 0 0 0.117647 0 0 0 0 0.188235 0 0 0 0.05 0"/>
<feBlend mode="normal" in2="BackgroundImageFix" result="effect1_dropShadow_7728_275"/>
<feBlend mode="normal" in="SourceGraphic" in2="effect1_dropShadow_7728_275" result="shape"/>
</filter>
<filter id="filter4_d_7728_275" x="52" y="279" width="160" height="160" filterUnits="userSpaceOnUse" color-interpolation-filters="sRGB">
<feFlood flood-opacity="0" result="BackgroundImageFix"/>
<feColorMatrix in="SourceAlpha" type="matrix" values="0 0 0 0 0 0 0 0 0 0 0 0 0 0 0 0 0 0 127 0" result="hardAlpha"/>
<feOffset dy="5"/>
<feGaussianBlur stdDeviation="20"/>
<feComposite in2="hardAlpha" operator="out"/>
<feColorMatrix type="matrix" values="0 0 0 0 0.109804 0 0 0 0 0.117647 0 0 0 0 0.188235 0 0 0 0.05 0"/>
<feBlend mode="normal" in2="BackgroundImageFix" result="effect1_dropShadow_7728_275"/>
<feBlend mode="normal" in="SourceGraphic" in2="effect1_dropShadow_7728_275" result="shape"/>
</filter>
<clipPath id="clip0_7728_275">
<rect width="34" height="39" fill="white" transform="translate(115 335)"/>
</clipPath>
</defs>
</svg>
