<svg width="73" height="72" viewBox="0 0 73 72" fill="none" xmlns="http://www.w3.org/2000/svg">
<path d="M42.5869 57.375C55.9453 57.375 66.7744 46.5459 66.7744 33.1875C66.7744 19.8291 55.9453 9 42.5869 9C29.2285 9 18.3994 19.8291 18.3994 33.1875C18.3994 46.5459 29.2285 57.375 42.5869 57.375Z" fill="#FAFBBE"/>
<path d="M9.44872 11.3435C10.1129 11.3435 10.6513 10.805 10.6513 10.1409C10.6513 9.47667 10.1129 8.93823 9.44872 8.93823C8.78453 8.93823 8.24609 9.47667 8.24609 10.1409C8.24609 10.805 8.78453 11.3435 9.44872 11.3435Z" fill="#4C241D"/>
<path d="M65.0869 25.875C66.6402 25.875 67.8994 24.6158 67.8994 23.0625C67.8994 21.5092 66.6402 20.25 65.0869 20.25C63.5336 20.25 62.2744 21.5092 62.2744 23.0625C62.2744 24.6158 63.5336 25.875 65.0869 25.875Z" stroke="#4C241D" stroke-width="2" stroke-linecap="round" stroke-linejoin="round"/>
<path d="M57.7744 6.75L61.1494 10.125" stroke="#4C241D" stroke-width="2" stroke-linecap="round" stroke-linejoin="round"/>
<path d="M61.1494 6.75L57.7744 10.125" stroke="#4C241D" stroke-width="2" stroke-linecap="round" stroke-linejoin="round"/>
<path d="M7.14941 34.875H54.3994V37.4108C54.3994 39.5893 53.9703 41.7465 53.1366 43.7592C52.3029 45.7719 51.081 47.6007 49.5405 49.1411C48.0001 50.6816 46.1713 51.9035 44.1586 52.7372C42.1459 53.5709 39.9887 54 37.8102 54H23.7387C21.5601 54 19.4029 53.5709 17.3902 52.7372C15.3775 51.9035 13.5487 50.6816 12.0083 49.1411C10.4678 47.6007 9.24588 45.7719 8.4122 43.7592C7.57851 41.7465 7.14941 39.5893 7.14941 37.4108V34.875Z" fill="#BF7E68" stroke="#4C241D" stroke-width="2" stroke-linecap="round" stroke-linejoin="round"/>
<path d="M24.1348 51.9255C24.7561 51.9255 25.2598 51.4219 25.2598 50.8005C25.2598 50.1792 24.7561 49.6755 24.1348 49.6755C23.5134 49.6755 23.0098 50.1792 23.0098 50.8005C23.0098 51.4219 23.5134 51.9255 24.1348 51.9255Z" fill="#4C241D"/>
<path d="M64.5244 51.9109C63.6395 51.8998 62.7703 51.6748 61.9912 51.255C61.2121 50.8352 60.5462 50.233 60.0503 49.5H57.7485C57.2607 50.2408 56.5964 50.8489 55.8155 51.2697C55.0346 51.6904 54.1615 51.9107 53.2744 51.9107C52.3874 51.9107 51.5142 51.6904 50.7333 51.2697C49.9524 50.8489 49.2882 50.2408 48.8003 49.5H46.4985C46.0107 50.2408 45.3464 50.8489 44.5655 51.2697C43.7846 51.6904 42.9115 51.9107 42.0244 51.9107C41.1374 51.9107 40.2642 51.6904 39.4833 51.2697C38.7024 50.8489 38.0382 50.2408 37.5503 49.5H35.2485C34.7606 50.2408 34.0964 50.8489 33.3155 51.2697C32.5346 51.6904 31.6615 51.9107 30.7744 51.9107C29.8874 51.9107 29.0142 51.6904 28.2333 51.2697C27.4524 50.8489 26.7882 50.2408 26.3003 49.5H23.9985C23.5106 50.2408 22.8464 50.8489 22.0655 51.2697C21.2846 51.6904 20.4115 51.9107 19.5244 51.9107C18.6374 51.9107 17.7642 51.6904 16.9833 51.2697C16.2024 50.8489 15.5382 50.2408 15.0503 49.5H12.7485C12.2526 50.233 11.5867 50.8352 10.8076 51.255C10.0285 51.6748 9.15936 51.8998 8.27441 51.9109C7.38947 51.8998 6.52034 51.6748 5.74123 51.255C4.96213 50.8352 4.29619 50.233 3.80029 49.5H3.77441V58.9162C3.77441 61.1928 4.67877 63.3761 6.28854 64.9859C7.8983 66.5956 10.0816 67.5 12.3582 67.5H60.4407C62.7172 67.5 64.9005 66.5956 66.5103 64.9859C68.1201 63.3761 69.0244 61.1928 69.0244 58.9162V49.5H68.9985C68.5026 50.233 67.8367 50.8352 67.0576 51.255C66.2785 51.6748 65.4094 51.8998 64.5244 51.9109Z" fill="#F2F3B7"/>
<path d="M70.1494 46.125C70.1494 47.6168 69.5568 49.0476 68.5019 50.1025C67.447 51.1574 66.0163 51.75 64.5244 51.75C63.0326 51.75 61.6018 51.1574 60.5469 50.1025C59.492 49.0476 58.8994 47.6168 58.8994 46.125C58.8994 47.6168 58.3068 49.0476 57.2519 50.1025C56.197 51.1574 54.7663 51.75 53.2744 51.75C51.7826 51.75 50.3518 51.1574 49.2969 50.1025C48.242 49.0476 47.6494 47.6168 47.6494 46.125C47.6494 47.6168 47.0568 49.0476 46.0019 50.1025C44.947 51.1574 43.5163 51.75 42.0244 51.75C40.5326 51.75 39.1018 51.1574 38.0469 50.1025C36.992 49.0476 36.3994 47.6168 36.3994 46.125C36.3994 47.6168 35.8068 49.0476 34.7519 50.1025C33.697 51.1574 32.2663 51.75 30.7744 51.75C29.2826 51.75 27.8518 51.1574 26.7969 50.1025C25.742 49.0476 25.1494 47.6168 25.1494 46.125C25.1494 47.6168 24.5568 49.0476 23.5019 50.1025C22.447 51.1574 21.0163 51.75 19.5244 51.75C18.0326 51.75 16.6018 51.1574 15.5469 50.1025C14.492 49.0476 13.8994 47.6168 13.8994 46.125C13.8994 47.6168 13.3068 49.0476 12.2519 50.1025C11.197 51.1574 9.76626 51.75 8.27441 51.75C6.78257 51.75 5.35183 51.1574 4.29694 50.1025C3.24205 49.0476 2.64941 47.6168 2.64941 46.125" stroke="#4C241D" stroke-width="2" stroke-linecap="round" stroke-linejoin="round"/>
<path d="M39.7744 57.375C39.7744 58.8668 39.1818 60.2976 38.1269 61.3525C37.072 62.4074 35.6413 63 34.1494 63C32.6576 63 31.2268 62.4074 30.1719 61.3525C29.117 60.2976 28.5244 58.8668 28.5244 57.375C28.5244 58.8668 27.9318 60.2976 26.8769 61.3525C25.822 62.4074 24.3913 63 22.8994 63C21.4076 63 19.9768 62.4074 18.9219 61.3525C17.867 60.2976 17.2744 58.8668 17.2744 57.375" stroke="#4C241D" stroke-width="2" stroke-linecap="round" stroke-linejoin="round"/>
<path d="M57.7744 57.375C57.7744 58.8668 57.1818 60.2976 56.1269 61.3525C55.072 62.4074 53.6413 63 52.1494 63C50.6576 63 49.2268 62.4074 48.1719 61.3525C47.117 60.2976 46.5244 58.8668 46.5244 57.375" stroke="#4C241D" stroke-width="2" stroke-linecap="round" stroke-linejoin="round"/>
<path d="M6.02441 30.375H55.5244V34.875H6.02441V30.375Z" fill="#6B4F5B" stroke="#4C241D" stroke-width="2" stroke-linecap="round" stroke-linejoin="round"/>
<path d="M30.7744 12.375H37.5244C42.2983 12.375 46.8767 14.2714 50.2523 17.6471C53.628 21.0227 55.5244 25.6011 55.5244 30.375H30.7744V12.375Z" fill="#FEFFCB" stroke="#4C241D" stroke-width="2" stroke-linecap="round" stroke-linejoin="round"/>
<path d="M53.2744 39.375H45.3994" stroke="#4C241D" stroke-width="2" stroke-linecap="round" stroke-linejoin="round"/>
<path d="M12.7744 39.375H20.6494" stroke="#4C241D" stroke-width="2" stroke-linecap="round" stroke-linejoin="round"/>
<path d="M25.1494 39.375H28.5244" stroke="#4C241D" stroke-width="2" stroke-linecap="round" stroke-linejoin="round"/>
<path d="M18.3994 42.75H27.3994" stroke="#4C241D" stroke-width="2" stroke-linecap="round" stroke-linejoin="round"/>
<path d="M33.0244 42.75H48.7744" stroke="#4C241D" stroke-width="2" stroke-linecap="round" stroke-linejoin="round"/>
<path d="M19.5244 18L16.7119 15.1875" stroke="#4C241D" stroke-width="2" stroke-linecap="round" stroke-linejoin="round"/>
<path d="M21.7744 15.75V13.5" stroke="#4C241D" stroke-width="2" stroke-linecap="round" stroke-linejoin="round"/>
<path d="M18.3994 21.375H16.1494" stroke="#4C241D" stroke-width="2" stroke-linecap="round" stroke-linejoin="round"/>
</svg>
