<svg width="73" height="72" viewBox="0 0 73 72" fill="none" xmlns="http://www.w3.org/2000/svg">
<path d="M39.7744 61.875C54.0648 61.875 65.6494 50.2904 65.6494 36C65.6494 21.7096 54.0648 10.125 39.7744 10.125C25.484 10.125 13.8994 21.7096 13.8994 36C13.8994 50.2904 25.484 61.875 39.7744 61.875Z" fill="#E6F7F1"/>
<path d="M37.7236 56.3016C37.7219 54.8412 38.2208 53.4244 39.1371 52.2872C40.0534 51.15 41.3317 50.3612 42.7591 50.0523C44.3185 49.6894 45.7464 48.9003 46.8833 47.773C50.9333 43.723 50.1098 36.3441 45.0507 31.2861C39.9916 26.2281 32.6116 25.4069 28.5638 29.4535C27.4365 30.5904 26.6474 32.0183 26.2846 33.5778C25.9756 35.0051 25.1868 36.2834 24.0497 37.1997C22.9125 38.116 21.4956 38.6149 20.0352 38.6133C18.4887 38.5501 16.9454 38.8017 15.4989 39.3526C14.0525 39.9035 12.7329 40.7424 11.6202 41.8184C6.55771 46.8809 7.58596 56.1059 13.9096 62.4273C20.2332 68.7486 29.4593 69.7758 34.5173 64.7166C35.5937 63.6041 36.4329 62.2847 36.984 60.8382C37.5351 59.3916 37.7868 57.8483 37.7236 56.3016Z" fill="#BF7E68" stroke="#4C241D" stroke-width="2" stroke-linecap="round" stroke-linejoin="round"/>
<path d="M49.8994 59.625V61.875" stroke="#4C241D" stroke-width="2" stroke-linecap="round" stroke-linejoin="round"/>
<path d="M49.8994 66.375V68.625" stroke="#4C241D" stroke-width="2" stroke-linecap="round" stroke-linejoin="round"/>
<path d="M45.3994 64.125H47.6494" stroke="#4C241D" stroke-width="2" stroke-linecap="round" stroke-linejoin="round"/>
<path d="M52.1494 64.125H54.3994" stroke="#4C241D" stroke-width="2" stroke-linecap="round" stroke-linejoin="round"/>
<path d="M66.8667 57.0004C66.8671 57.2384 66.797 57.4711 66.6651 57.6692C66.5332 57.8672 66.3455 58.0217 66.1258 58.1131C65.9061 58.2045 65.6642 58.2286 65.4308 58.1825C65.1974 58.1363 64.9829 58.022 64.8145 57.8539C64.646 57.6858 64.5313 57.4715 64.4847 57.2381C64.4381 57.0048 64.4618 56.7629 64.5528 56.543C64.6437 56.3231 64.7979 56.1351 64.9957 56.0029C65.1935 55.8706 65.4261 55.8 65.6641 55.8C65.9825 55.8003 66.2879 55.9268 66.5133 56.1518C66.7387 56.3768 66.8658 56.682 66.8667 57.0004Z" fill="#4C241D"/>
<path d="M14.9874 26.9999C16.9323 27.0002 18.8404 26.4694 20.5057 25.4649C22.1711 24.4603 23.5306 23.0201 24.4374 21.2996H5.53857C6.44538 23.0199 7.80466 24.46 9.4698 25.4646C11.1349 26.4691 13.0428 27 14.9874 26.9999Z" fill="#F53E28" stroke="#4C241D" stroke-width="2" stroke-linecap="round" stroke-linejoin="round"/>
<path d="M24.4362 11.3254H5.53841C4.72503 12.8619 4.2998 14.5741 4.2998 16.3126C4.2998 18.0511 4.72503 19.7632 5.53841 21.2997H24.4384C25.2518 19.7632 25.677 18.0511 25.677 16.3126C25.677 14.5741 25.2518 12.8619 24.4384 11.3254H24.4362Z" fill="#FFCE56" stroke="#4C241D" stroke-width="2" stroke-linecap="round" stroke-linejoin="round"/>
<path d="M14.9871 5.625C13.0422 5.62473 11.1342 6.15551 9.46882 7.16008C7.80346 8.16465 6.444 9.60487 5.53711 11.3254H24.4371C23.5302 9.60487 22.1708 8.16465 20.5054 7.16008C18.84 6.15551 16.932 5.62473 14.9871 5.625Z" fill="#F53E28" stroke="#4C241D" stroke-width="2" stroke-linecap="round" stroke-linejoin="round"/>
<path d="M54.2104 18.4636L57.8745 22.1277L36.8082 43.194L33.1441 39.5299L54.2104 18.4636Z" fill="#E7D1C4" stroke="#4C241D" stroke-width="2" stroke-linecap="round" stroke-linejoin="round"/>
<path d="M65.978 15.5059L67.985 17.5117" stroke="#4C241D" stroke-width="2" stroke-linecap="round" stroke-linejoin="round"/>
<path d="M63.2305 18.2532L65.2363 20.259" stroke="#4C241D" stroke-width="2" stroke-linecap="round" stroke-linejoin="round"/>
<path d="M59.5664 20.0857L61.5734 22.0916" stroke="#4C241D" stroke-width="2" stroke-linecap="round" stroke-linejoin="round"/>
<path d="M60.8311 10.3591L58.8252 8.35205" stroke="#4C241D" stroke-width="2" stroke-linecap="round" stroke-linejoin="round"/>
<path d="M58.084 13.1062L56.0781 11.1003" stroke="#4C241D" stroke-width="2" stroke-linecap="round" stroke-linejoin="round"/>
<path d="M56.2521 16.7704L54.2451 14.7634" stroke="#4C241D" stroke-width="2" stroke-linecap="round" stroke-linejoin="round"/>
<path d="M57.8746 22.1265L54.2104 18.4624L61.5499 9.65591C61.7808 9.37946 62.0666 9.15406 62.3892 8.99406C62.7119 8.83407 63.0643 8.74297 63.4241 8.72657C63.7838 8.71017 64.1431 8.76882 64.4789 8.8988C64.8148 9.02877 65.1199 9.22723 65.3749 9.48154L66.8554 10.9575C67.1098 11.2125 67.3082 11.5177 67.4382 11.8536C67.5682 12.1894 67.6268 12.5487 67.6104 12.9084C67.594 13.2682 67.5029 13.6206 67.3429 13.9433C67.1829 14.2659 66.9575 14.5517 66.6811 14.7825L57.8746 22.1265Z" fill="#BF7E68" stroke="#4C241D" stroke-width="2" stroke-linecap="round" stroke-linejoin="round"/>
<path d="M16.1582 53.6851L22.6517 60.1786" stroke="#4C241D" stroke-width="2" stroke-linecap="round" stroke-linejoin="round"/>
<path d="M32.2281 49.2907C35.0899 49.2907 37.4099 46.9708 37.4099 44.109C37.4099 41.2472 35.0899 38.9272 32.2281 38.9272C29.3663 38.9272 27.0464 41.2472 27.0464 44.109C27.0464 46.9708 29.3663 49.2907 32.2281 49.2907Z" fill="#914D41" stroke="#4C241D" stroke-width="2" stroke-linecap="round" stroke-linejoin="round"/>
</svg>
