<svg width="61" height="61" viewBox="0 0 61 61" fill="none" xmlns="http://www.w3.org/2000/svg">
<circle cx="30.1885" cy="30.6321" r="30" fill="#1184C5"/>
<path d="M28.9805 18.3281H31.5725V21.5441C32.9645 21.7041 34.0925 22.2001 34.9565 23.0321C35.8365 23.8481 36.3165 24.9921 36.3965 26.4641H33.7565C33.6925 25.9841 33.5565 25.5841 33.3485 25.2641C33.1405 24.9441 32.8765 24.6881 32.5565 24.4961C32.2365 24.2881 31.8685 24.1441 31.4525 24.0641C31.0525 23.9681 30.6045 23.9201 30.1085 23.9201C29.7885 23.9201 29.4365 23.9441 29.0525 23.9921C28.6685 24.0401 28.3245 24.1441 28.0205 24.3041C27.7005 24.4641 27.4365 24.6961 27.2285 25.0001C27.0205 25.2881 26.9165 25.6481 26.9165 26.0801C26.9165 26.6401 27.0445 27.0881 27.3005 27.4241C27.5565 27.7601 27.8845 28.0321 28.2845 28.2401C28.7005 28.4321 29.1565 28.5841 29.6525 28.6961C30.1645 28.7921 30.6685 28.8881 31.1645 28.9841C31.9645 29.1281 32.7085 29.2961 33.3965 29.4881C34.0845 29.6801 34.6765 29.9521 35.1725 30.3041C35.6845 30.6561 36.0845 31.1041 36.3725 31.6481C36.6605 32.1921 36.8045 32.8801 36.8045 33.7121C36.8045 34.5601 36.6605 35.2961 36.3725 35.9201C36.0845 36.5281 35.6925 37.0401 35.1965 37.4561C34.7165 37.8561 34.1485 38.1681 33.4925 38.3921C32.8525 38.6001 32.1725 38.7281 31.4525 38.7761V41.9201H28.8845V38.7041C28.1325 38.6081 27.4365 38.4321 26.7965 38.1761C26.1725 37.9041 25.6205 37.5521 25.1405 37.1201C24.6765 36.6881 24.3005 36.1841 24.0125 35.6081C23.7245 35.0161 23.5485 34.3441 23.4845 33.5921H26.2685C26.3645 34.1041 26.5565 34.5361 26.8445 34.8881C27.1325 35.2241 27.4765 35.4961 27.8765 35.7041C28.2765 35.9121 28.7085 36.0641 29.1725 36.1601C29.6365 36.2401 30.0925 36.2801 30.5405 36.2801C30.9725 36.2801 31.3965 36.2481 31.8125 36.1841C32.2285 36.1041 32.5965 35.9761 32.9165 35.8001C33.2525 35.6081 33.5245 35.3601 33.7325 35.0561C33.9405 34.7361 34.0445 34.3441 34.0445 33.8801C34.0445 33.3361 33.8845 32.9201 33.5645 32.6321C33.2605 32.3281 32.8685 32.0961 32.3885 31.9361C31.9245 31.7601 31.4125 31.6321 30.8525 31.5521C30.3085 31.4721 29.7965 31.3761 29.3165 31.2641C28.5485 31.1041 27.8445 30.9041 27.2045 30.6641C26.5645 30.4081 26.0045 30.0881 25.5245 29.7041C25.0605 29.3201 24.6925 28.8561 24.4205 28.3121C24.1645 27.7681 24.0365 27.1121 24.0365 26.3441C24.0365 25.5761 24.1725 24.9041 24.4445 24.3281C24.7325 23.7521 25.1005 23.2721 25.5485 22.8881C26.0125 22.4881 26.5405 22.1841 27.1325 21.9761C27.7245 21.7521 28.3405 21.6001 28.9805 21.5201V18.3281Z" fill="white"/>
</svg>
