<svg width="61" height="61" viewBox="0 0 61 61" fill="none" xmlns="http://www.w3.org/2000/svg">
<circle cx="30.2461" cy="30.8016" r="30" fill="#E1534A"/>
<path d="M38.9461 41.8016H21.3461C21.0544 41.8016 20.7746 41.6857 20.5683 41.4795C20.362 41.2732 20.2461 40.9934 20.2461 40.7016V20.9016C20.2461 20.6099 20.362 20.3301 20.5683 20.1238C20.7746 19.9175 21.0544 19.8016 21.3461 19.8016H38.9461C39.2378 19.8016 39.5176 19.9175 39.7239 20.1238C39.9302 20.3301 40.0461 20.6099 40.0461 20.9016V40.7016C40.0461 40.9934 39.9302 41.2732 39.7239 41.4795C39.5176 41.6857 39.2378 41.8016 38.9461 41.8016ZM37.8461 39.6016V22.0016H22.4461V39.6016H37.8461ZM25.7461 27.5016H34.5461V29.7016H25.7461V27.5016ZM25.7461 31.9016H34.5461V34.1016H25.7461V31.9016Z" fill="white"/>
</svg>
