<svg width="42" height="42" viewBox="0 0 42 42" fill="none" xmlns="http://www.w3.org/2000/svg">
<path d="M27.8246 18.4609C27.361 17.9392 26.7968 17.5392 26.1737 17.2907C25.5506 17.0422 24.8847 16.9516 24.2255 17.0256C23.5663 17.0996 22.9307 17.3362 22.3659 17.718C21.801 18.0998 21.3215 18.6169 20.9628 19.2309C20.6043 18.6167 20.1248 18.0995 19.5599 17.7176C18.9951 17.3357 18.3594 17.099 17.7002 17.025C17.0409 16.951 16.375 17.0417 15.7519 17.2903C15.1288 17.5389 14.5645 17.939 14.101 18.4609C13.2647 19.4035 12.7964 20.6695 12.7964 21.9879C12.7964 23.3063 13.2647 24.5722 14.101 25.5149L20.9628 33.1999L27.8265 25.5159C28.6622 24.5726 29.1299 23.3064 29.1295 21.988C29.1292 20.6696 28.6608 19.4037 27.8246 18.4609V18.4609Z" fill="#01A66B" stroke="#1C1E30" stroke-width="2" stroke-miterlimit="10" stroke-linecap="round" stroke-linejoin="round"/>
<path d="M37.2963 41H4.62963C3.66699 41 2.74378 40.5786 2.06309 39.8284C1.38241 39.0783 1 38.0609 1 37V1H15.5185L20.0556 9H40.9259V37C40.9259 38.0609 40.5435 39.0783 39.8628 39.8284C39.1821 40.5786 38.2589 41 37.2963 41Z" stroke="#1C1E30" stroke-width="2" stroke-miterlimit="10" stroke-linecap="round" stroke-linejoin="round"/>
</svg>
