<svg width="116" height="29" viewBox="0 0 116 29" fill="none" xmlns="http://www.w3.org/2000/svg">
<rect width="116" height="29" rx="14.5" fill="#E1534A"/>
<path d="M15.7801 19H14.5061V9.601H18.0551C20.0701 9.601 21.2661 10.667 21.2661 12.422C21.2661 13.722 20.6161 14.658 19.4461 15.035L21.3571 19H19.9401L18.1851 15.282H15.7801V19ZM15.7801 10.745V14.151H18.0681C19.2511 14.151 19.9271 13.514 19.9271 12.435C19.9271 11.343 19.2251 10.745 18.0551 10.745H15.7801ZM25.0899 19.156C23.2179 19.156 21.9309 17.804 21.9309 15.828C21.9309 13.839 23.1919 12.461 25.0379 12.461C26.8449 12.461 28.0279 13.709 28.0279 15.594V16.049L23.1139 16.062C23.2049 17.401 23.9069 18.142 25.1159 18.142C26.0649 18.142 26.6889 17.752 26.8969 17.024H28.0409C27.7289 18.389 26.6629 19.156 25.0899 19.156ZM25.0379 13.488C23.9719 13.488 23.2959 14.125 23.1399 15.243H26.8059C26.8059 14.19 26.1169 13.488 25.0379 13.488ZM28.9768 15.828C28.9768 13.839 30.2378 12.461 32.0968 12.461C33.6958 12.461 34.8138 13.371 35.0348 14.788H33.8128C33.6048 13.982 32.9548 13.553 32.1358 13.553C30.9788 13.553 30.1858 14.437 30.1858 15.815C30.1858 17.18 30.9268 18.064 32.0838 18.064C32.9548 18.064 33.6048 17.609 33.8258 16.855H35.0478C34.8008 18.233 33.6178 19.156 32.0838 19.156C30.2118 19.156 28.9768 17.83 28.9768 15.828ZM35.9211 15.815C35.9211 13.852 37.3251 12.474 39.2361 12.474C41.1341 12.474 42.5381 13.852 42.5381 15.815C42.5381 17.778 41.1341 19.156 39.2361 19.156C37.3251 19.156 35.9211 17.778 35.9211 15.815ZM37.1561 15.815C37.1561 17.141 38.0011 18.064 39.2361 18.064C40.4581 18.064 41.3161 17.141 41.3161 15.815C41.3161 14.489 40.4581 13.566 39.2361 13.566C38.0011 13.566 37.1561 14.489 37.1561 15.815ZM45.1128 19H43.8908V12.643H44.9828L45.0998 13.475C45.4248 12.877 46.1008 12.461 46.9978 12.461C47.9858 12.461 48.6878 12.955 49.0128 13.748C49.3118 12.955 50.0788 12.461 51.0668 12.461C52.5228 12.461 53.4068 13.371 53.4068 14.84V19H52.2108V15.139C52.2108 14.138 51.6518 13.566 50.7938 13.566C49.8708 13.566 49.2598 14.216 49.2598 15.23V19H48.0508V15.126C48.0508 14.125 47.5048 13.579 46.6468 13.579C45.7238 13.579 45.1128 14.216 45.1128 15.23V19ZM56.3228 19H55.1008V12.643H56.1928L56.3098 13.475C56.6348 12.877 57.3108 12.461 58.2078 12.461C59.1958 12.461 59.8978 12.955 60.2228 13.748C60.5218 12.955 61.2888 12.461 62.2768 12.461C63.7328 12.461 64.6168 13.371 64.6168 14.84V19H63.4208V15.139C63.4208 14.138 62.8618 13.566 62.0038 13.566C61.0808 13.566 60.4698 14.216 60.4698 15.23V19H59.2608V15.126C59.2608 14.125 58.7148 13.579 57.8568 13.579C56.9338 13.579 56.3228 14.216 56.3228 15.23V19ZM69.0538 19.156C67.1818 19.156 65.8948 17.804 65.8948 15.828C65.8948 13.839 67.1558 12.461 69.0018 12.461C70.8088 12.461 71.9918 13.709 71.9918 15.594V16.049L67.0778 16.062C67.1688 17.401 67.8708 18.142 69.0798 18.142C70.0288 18.142 70.6528 17.752 70.8608 17.024H72.0048C71.6928 18.389 70.6268 19.156 69.0538 19.156ZM69.0018 13.488C67.9358 13.488 67.2598 14.125 67.1038 15.243H70.7698C70.7698 14.19 70.0808 13.488 69.0018 13.488ZM74.5787 19H73.3567V12.643H74.4617L74.5917 13.618C74.9947 12.89 75.8007 12.461 76.6977 12.461C78.3747 12.461 79.1417 13.488 79.1417 15.113V19H77.9197V15.386C77.9197 14.099 77.3217 13.579 76.3857 13.579C75.2417 13.579 74.5787 14.398 74.5787 15.633V19ZM83.3822 19.156C81.5362 19.156 80.4182 17.778 80.4182 15.841C80.4182 13.891 81.5492 12.461 83.4342 12.461C84.4092 12.461 85.2282 12.89 85.6572 13.67V9.432H86.8662V19H85.7742L85.6702 17.843C85.2542 18.714 84.3962 19.156 83.3822 19.156ZM83.6292 18.051C84.8772 18.051 85.6442 17.128 85.6442 15.802C85.6442 14.502 84.8772 13.566 83.6292 13.566C82.3812 13.566 81.6532 14.502 81.6532 15.802C81.6532 17.115 82.3812 18.051 83.6292 18.051ZM91.3721 19.156C89.5001 19.156 88.2131 17.804 88.2131 15.828C88.2131 13.839 89.4741 12.461 91.3201 12.461C93.1271 12.461 94.3101 13.709 94.3101 15.594V16.049L89.3961 16.062C89.4871 17.401 90.1891 18.142 91.3981 18.142C92.3471 18.142 92.9711 17.752 93.1791 17.024H94.3231C94.0111 18.389 92.9451 19.156 91.3721 19.156ZM91.3201 13.488C90.2541 13.488 89.5781 14.125 89.4221 15.243H93.0881C93.0881 14.19 92.3991 13.488 91.3201 13.488ZM98.223 19.156C96.377 19.156 95.259 17.778 95.259 15.841C95.259 13.891 96.39 12.461 98.275 12.461C99.25 12.461 100.069 12.89 100.498 13.67V9.432H101.707V19H100.615L100.511 17.843C100.095 18.714 99.237 19.156 98.223 19.156ZM98.47 18.051C99.718 18.051 100.485 17.128 100.485 15.802C100.485 14.502 99.718 13.566 98.47 13.566C97.222 13.566 96.494 14.502 96.494 15.802C96.494 17.115 97.222 18.051 98.47 18.051Z" fill="white"/>
</svg>
