<svg width="120" height="38" viewBox="0 0 120 38" fill="none" xmlns="http://www.w3.org/2000/svg">
<mask id="path-1-outside-1_7728_1475" maskUnits="userSpaceOnUse" x="85.681" y="5.37537" width="34.9526" height="32.7173" fill="black">
<rect fill="white" x="85.681" y="5.37537" width="34.9526" height="32.7173"/>
<path d="M90.4134 12.5059C92.1091 11.1763 94.5323 10.8214 96.5373 11.6085C97.1661 11.8551 97.7489 12.2112 98.263 12.6497C99.3896 13.6104 100.185 14.9674 100.419 16.4274C100.534 17.1377 100.501 17.8967 100.113 18.4469C100.09 18.4795 100.065 18.5112 100.039 18.5419C99.8376 18.7789 99.5404 18.9525 99.2391 19.0149C98.9364 19.0774 98.6389 19.0323 98.4085 18.8539L98.3735 18.8253C98.1981 18.6763 98.0718 18.4565 97.9861 18.2191C97.8243 17.7722 97.8155 17.3233 97.9238 16.8908C98.0323 16.4587 98.26 16.0439 98.5718 15.6785C99.2821 14.8434 100.43 14.2774 101.529 14.3302C102.853 14.3911 104.048 15.027 105.092 15.917C105.701 16.4365 106.256 17.0413 106.752 17.6625C110.854 22.8072 112.466 29.8615 111.005 36.2794C110.985 36.3654 111.039 36.4508 111.125 36.4702C111.211 36.4898 111.296 36.4359 111.316 36.3501C112.798 29.8333 111.165 22.6883 107.001 17.4637C106.496 16.8305 105.928 16.2111 105.299 15.6744C104.223 14.7565 102.964 14.0777 101.543 14.0117C100.326 13.9577 99.1034 14.5667 98.3293 15.4716C97.9902 15.8691 97.7373 16.3256 97.6146 16.8132C97.492 17.3003 97.5014 17.8192 97.6863 18.3278C97.7845 18.5978 97.9322 18.8676 98.1665 19.0679L98.2135 19.1062C98.5315 19.3522 98.9325 19.4052 99.3042 19.327C99.677 19.2485 100.03 19.0426 100.281 18.7488C100.314 18.7106 100.345 18.6709 100.374 18.6297L100.374 18.6297C100.834 17.9689 100.853 17.1263 100.734 16.3768C100.486 14.8357 99.6519 13.4158 98.4699 12.4071C97.9301 11.9467 97.3173 11.5718 96.6538 11.3118C94.537 10.4839 92.008 10.8543 90.217 12.2548C90.1477 12.3091 90.1354 12.4094 90.1896 12.4785C90.2439 12.5479 90.3441 12.5601 90.4134 12.5059Z"/>
</mask>
<path d="M90.4134 12.5059C92.1091 11.1763 94.5323 10.8214 96.5373 11.6085C97.1661 11.8551 97.7489 12.2112 98.263 12.6497C99.3896 13.6104 100.185 14.9674 100.419 16.4274C100.534 17.1377 100.501 17.8967 100.113 18.4469C100.09 18.4795 100.065 18.5112 100.039 18.5419C99.8376 18.7789 99.5404 18.9525 99.2391 19.0149C98.9364 19.0774 98.6389 19.0323 98.4085 18.8539L98.3735 18.8253C98.1981 18.6763 98.0718 18.4565 97.9861 18.2191C97.8243 17.7722 97.8155 17.3233 97.9238 16.8908C98.0323 16.4587 98.26 16.0439 98.5718 15.6785C99.2821 14.8434 100.43 14.2774 101.529 14.3302C102.853 14.3911 104.048 15.027 105.092 15.917C105.701 16.4365 106.256 17.0413 106.752 17.6625C110.854 22.8072 112.466 29.8615 111.005 36.2794C110.985 36.3654 111.039 36.4508 111.125 36.4702C111.211 36.4898 111.296 36.4359 111.316 36.3501C112.798 29.8333 111.165 22.6883 107.001 17.4637C106.496 16.8305 105.928 16.2111 105.299 15.6744C104.223 14.7565 102.964 14.0777 101.543 14.0117C100.326 13.9577 99.1034 14.5667 98.3293 15.4716C97.9902 15.8691 97.7373 16.3256 97.6146 16.8132C97.492 17.3003 97.5014 17.8192 97.6863 18.3278C97.7845 18.5978 97.9322 18.8676 98.1665 19.0679L98.2135 19.1062C98.5315 19.3522 98.9325 19.4052 99.3042 19.327C99.677 19.2485 100.03 19.0426 100.281 18.7488C100.314 18.7106 100.345 18.6709 100.374 18.6297L100.374 18.6297C100.834 17.9689 100.853 17.1263 100.734 16.3768C100.486 14.8357 99.6519 13.4158 98.4699 12.4071C97.9301 11.9467 97.3173 11.5718 96.6538 11.3118C94.537 10.4839 92.008 10.8543 90.217 12.2548C90.1477 12.3091 90.1354 12.4094 90.1896 12.4785C90.2439 12.5479 90.3441 12.5601 90.4134 12.5059Z" fill="white"/>
<path d="M96.5373 11.6085L96.3547 12.074L96.3545 12.0739L96.5373 11.6085ZM98.263 12.6497L97.9386 13.0302L97.9385 13.0301L98.263 12.6497ZM100.419 16.4274L99.9255 16.5071L99.9254 16.5065L100.419 16.4274ZM100.113 18.4469L100.522 18.7349L100.52 18.7368L100.113 18.4469ZM100.039 18.5419L99.6578 18.2182L99.6585 18.2174L100.039 18.5419ZM99.2391 19.0149L99.3405 19.5045L99.3403 19.5045L99.2391 19.0149ZM98.4085 18.8539L98.1024 19.2494L98.0924 19.2413L98.4085 18.8539ZM98.3735 18.8253L98.0573 19.2127L98.0498 19.2064L98.3735 18.8253ZM97.9861 18.2191L98.4562 18.0488L98.4563 18.0492L97.9861 18.2191ZM97.9238 16.8908L97.4388 16.7693L97.4389 16.7691L97.9238 16.8908ZM98.5718 15.6785L98.9526 16.0025L98.9522 16.003L98.5718 15.6785ZM101.529 14.3302L101.506 14.8297L101.505 14.8297L101.529 14.3302ZM105.092 15.917L105.416 15.5366L105.417 15.5366L105.092 15.917ZM106.752 17.6625L106.361 17.9743L106.361 17.9742L106.752 17.6625ZM111.005 36.2794L110.517 36.1697L110.517 36.1684L111.005 36.2794ZM111.125 36.4702L111.235 35.9825L111.236 35.9827L111.125 36.4702ZM111.316 36.3501L111.803 36.461L111.803 36.4612L111.316 36.3501ZM107.001 17.4637L107.392 17.152L107.392 17.152L107.001 17.4637ZM105.299 15.6744L105.623 15.294L105.624 15.2941L105.299 15.6744ZM101.543 14.0117L101.566 13.5122L101.567 13.5123L101.543 14.0117ZM98.3293 15.4716L97.9489 15.1471L97.9493 15.1466L98.3293 15.4716ZM97.6146 16.8132L98.0995 16.9352L98.0995 16.9353L97.6146 16.8132ZM97.6863 18.3278L97.2164 18.4987L97.2164 18.4987L97.6863 18.3278ZM98.1665 19.0679L97.8506 19.4556L97.8416 19.4479L98.1665 19.0679ZM98.2135 19.1062L97.9074 19.5017L97.8977 19.4938L98.2135 19.1062ZM99.3042 19.327L99.4072 19.8163L99.4071 19.8163L99.3042 19.327ZM100.281 18.7488L100.662 19.0733L100.662 19.0736L100.281 18.7488ZM100.374 18.6297L99.9642 18.3429L99.9778 18.3234L99.9933 18.3052L100.374 18.6297ZM100.374 18.6297L100.784 18.9154L100.77 18.9355L100.754 18.9542L100.374 18.6297ZM100.734 16.3768L101.227 16.2974L101.228 16.2981L100.734 16.3768ZM98.4699 12.4071L98.7944 12.0268L98.7945 12.0268L98.4699 12.4071ZM96.6538 11.3118L96.8359 10.8462L96.8362 10.8463L96.6538 11.3118ZM90.217 12.2548L89.9088 11.8611L89.909 11.8609L90.217 12.2548ZM90.1896 12.4785L90.5832 12.1702L90.5834 12.1704L90.1896 12.4785ZM90.1049 12.1124C91.94 10.6735 94.5501 10.2912 96.72 11.1431L96.3545 12.0739C94.5145 11.3516 92.2782 11.6791 90.722 12.8993L90.1049 12.1124ZM96.7198 11.143C97.403 11.411 98.0333 11.7966 98.5875 12.2694L97.9385 13.0301C97.4644 12.6257 96.9291 12.2993 96.3547 12.074L96.7198 11.143ZM98.5874 12.2693C99.7991 13.3024 100.659 14.7641 100.913 16.3483L99.9254 16.5065C99.7114 15.1708 98.9802 13.9183 97.9386 13.0302L98.5874 12.2693ZM100.913 16.3477C101.035 17.1026 101.022 18.0241 100.522 18.7349L99.7041 18.1589C99.9786 17.7693 100.033 17.1727 99.9255 16.5071L100.913 16.3477ZM100.52 18.7368C100.489 18.7803 100.456 18.8237 100.419 18.8664L99.6585 18.2174C99.6745 18.1987 99.69 18.1786 99.7054 18.1571L100.52 18.7368ZM100.42 18.8656C100.145 19.189 99.7489 19.4199 99.3405 19.5045L99.1376 18.5253C99.3318 18.485 99.53 18.3687 99.6578 18.2182L100.42 18.8656ZM99.3403 19.5045C98.9298 19.5894 98.474 19.5369 98.1025 19.2493L98.7146 18.4585C98.8038 18.5276 98.9429 18.5655 99.1378 18.5252L99.3403 19.5045ZM98.0924 19.2413L98.0573 19.2127L98.6896 18.4379L98.7247 18.4665L98.0924 19.2413ZM98.0498 19.2064C97.784 18.9806 97.6182 18.6725 97.5158 18.3889L98.4563 18.0492C98.5254 18.2404 98.6121 18.372 98.6971 18.4442L98.0498 19.2064ZM97.5159 18.3893C97.3177 17.8418 97.3082 17.2908 97.4388 16.7693L98.4089 17.0123C98.3228 17.3559 98.3309 17.7027 98.4562 18.0488L97.5159 18.3893ZM97.4389 16.7691C97.5689 16.251 97.8378 15.7685 98.1914 15.354L98.9522 16.003C98.6823 16.3193 98.4956 16.6665 98.4088 17.0125L97.4389 16.7691ZM98.1909 15.3546C98.9881 14.4173 100.279 13.7696 101.553 13.8308L101.505 14.8297C100.58 14.7852 99.576 15.2695 98.9526 16.0025L98.1909 15.3546ZM101.552 13.8308C103.026 13.8985 104.324 14.6048 105.416 15.5366L104.768 16.2974C103.773 15.4491 102.68 14.8837 101.506 14.8297L101.552 13.8308ZM105.417 15.5366C106.056 16.0821 106.633 16.7119 107.143 17.3508L106.361 17.9742C105.879 17.3706 105.346 16.7909 104.768 16.2974L105.417 15.5366ZM107.142 17.3508C111.34 22.6144 112.987 29.8243 111.492 36.3904L110.517 36.1684C111.945 29.8988 110.369 23 106.361 17.9743L107.142 17.3508ZM111.493 36.389C111.533 36.2079 111.421 36.0245 111.235 35.9825L111.014 36.9579C110.658 36.8771 110.438 36.5228 110.517 36.1697L111.493 36.389ZM111.236 35.9827C111.052 35.9408 110.87 36.0563 110.828 36.2389L111.803 36.4612C111.722 36.8155 111.37 37.0388 111.014 36.9577L111.236 35.9827ZM110.828 36.2392C112.276 29.8706 110.68 22.8811 106.61 17.7753L107.392 17.152C111.651 22.4956 113.319 29.796 111.803 36.461L110.828 36.2392ZM106.61 17.7754C106.119 17.1599 105.573 16.5655 104.974 16.0548L105.624 15.2941C106.283 15.8568 106.873 16.5011 107.392 17.152L106.61 17.7754ZM104.974 16.0548C103.948 15.1789 102.791 14.5702 101.52 14.5112L101.567 13.5123C103.137 13.5851 104.498 14.3342 105.623 15.294L104.974 16.0548ZM101.521 14.5112C100.477 14.4649 99.3966 14.9931 98.7092 15.7967L97.9493 15.1466C98.8101 14.1403 100.175 13.4505 101.566 13.5122L101.521 14.5112ZM98.7097 15.7961C98.4126 16.1444 98.2006 16.5333 98.0995 16.9352L97.1297 16.6912C97.274 16.118 97.5678 15.5938 97.9489 15.1471L98.7097 15.7961ZM98.0995 16.9353C97.9993 17.3331 98.0081 17.7495 98.1562 18.157L97.2164 18.4987C96.9947 17.8889 96.9846 17.2675 97.1298 16.6911L98.0995 16.9353ZM98.1562 18.1569C98.2378 18.3811 98.3463 18.5638 98.4914 18.6879L97.8416 19.4479C97.5181 19.1714 97.3312 18.8144 97.2164 18.4987L98.1562 18.1569ZM98.4823 18.6803L98.5293 18.7185L97.8977 19.4938L97.8507 19.4555L98.4823 18.6803ZM98.5195 18.7107C98.6971 18.8482 98.9399 18.8927 99.2013 18.8377L99.4071 19.8163C98.9251 19.9177 98.3658 19.8563 97.9075 19.5016L98.5195 18.7107ZM99.2011 18.8378C99.4681 18.7815 99.7233 18.6323 99.9013 18.424L100.662 19.0736C100.337 19.453 99.8859 19.7155 99.4072 19.8163L99.2011 18.8378ZM99.901 18.4243C99.924 18.3973 99.9451 18.3701 99.9642 18.3429L100.783 18.9165C100.745 18.9716 100.704 19.0239 100.662 19.0733L99.901 18.4243ZM99.9933 18.3052L99.9934 18.3051L100.754 18.9542L100.754 18.9543L99.9933 18.3052ZM99.9635 18.3439C100.313 17.8423 100.352 17.1599 100.24 16.4554L101.228 16.2981C101.354 17.0927 101.355 18.0955 100.784 18.9154L99.9635 18.3439ZM100.24 16.4561C100.012 15.0391 99.2424 13.7237 98.1454 12.7875L98.7945 12.0268C100.061 13.108 100.96 14.6324 101.227 16.2974L100.24 16.4561ZM98.1454 12.7875C97.6456 12.3612 97.0803 12.016 96.4713 11.7774L96.8362 10.8463C97.5542 11.1276 98.2146 11.5321 98.7944 12.0268L98.1454 12.7875ZM96.4716 11.7775C94.5195 11.0139 92.1768 11.357 90.525 12.6487L89.909 11.8609C91.8392 10.3516 94.5545 9.95384 96.8359 10.8462L96.4716 11.7775ZM90.5252 12.6485C90.6728 12.533 90.6998 12.319 90.5832 12.1702L89.796 12.7869C89.5711 12.4997 89.6225 12.0852 89.9088 11.8611L90.5252 12.6485ZM90.5834 12.1704C90.4675 12.0222 90.2534 11.9962 90.1053 12.1121L90.7215 12.8997C90.4349 13.124 90.0203 13.0736 89.7958 12.7866L90.5834 12.1704Z" fill="white" mask="url(#path-1-outside-1_7728_1475)"/>
<mask id="path-3-outside-2_7728_1475" maskUnits="userSpaceOnUse" x="105.564" y="27.2582" width="11.3901" height="11.1666" fill="black">
<rect fill="white" x="105.564" y="27.2582" width="11.3901" height="11.1666"/>
<path d="M115.053 32.9669C114.689 33.273 113.689 34.0807 112.782 34.8097C112.328 35.1743 111.898 35.5196 111.58 35.7737C111.263 36.0281 111.06 36.1907 111.059 36.1909L111.159 36.3154L111.262 36.1941L107.063 32.6122C106.997 32.5551 106.896 32.563 106.839 32.63C106.782 32.697 106.79 32.7977 106.857 32.8548L111.055 36.4367C111.114 36.4864 111.199 36.4878 111.258 36.4399C111.259 36.4393 114.519 33.8322 115.258 33.2108C115.325 33.1543 115.334 33.0537 115.277 32.9862C115.221 32.9189 115.12 32.9102 115.053 32.9669Z"/>
</mask>
<path d="M115.053 32.9669C114.689 33.273 113.689 34.0807 112.782 34.8097C112.328 35.1743 111.898 35.5196 111.58 35.7737C111.263 36.0281 111.06 36.1907 111.059 36.1909L111.159 36.3154L111.262 36.1941L107.063 32.6122C106.997 32.5551 106.896 32.563 106.839 32.63C106.782 32.697 106.79 32.7977 106.857 32.8548L111.055 36.4367C111.114 36.4864 111.199 36.4878 111.258 36.4399C111.259 36.4393 114.519 33.8322 115.258 33.2108C115.325 33.1543 115.334 33.0537 115.277 32.9862C115.221 32.9189 115.12 32.9102 115.053 32.9669Z" fill="white"/>
<path d="M112.782 34.8097L112.469 34.42L112.469 34.42L112.782 34.8097ZM111.58 35.7737L111.267 35.3836L111.268 35.3834L111.58 35.7737ZM111.059 36.1909L110.669 36.5031L110.257 35.988L110.864 35.7306L111.059 36.1909ZM111.159 36.3154L111.539 36.6399L111.146 37.1006L110.768 36.6276L111.159 36.3154ZM111.262 36.1941L111.587 35.8137L111.967 36.1383L111.643 36.5186L111.262 36.1941ZM111.258 36.4399L110.946 36.0499L110.963 36.0358L110.982 36.0234L111.258 36.4399ZM115.258 33.2108L114.936 32.8282L114.937 32.8275L115.258 33.2108ZM115.277 32.9862L114.895 33.3083L114.895 33.3081L115.277 32.9862ZM115.374 33.3497C115.005 33.6602 114 34.472 113.095 35.1994L112.469 34.42C113.377 33.6894 114.372 32.8859 114.731 32.5842L115.374 33.3497ZM113.095 35.1993C112.641 35.5643 112.21 35.9098 111.893 36.164L111.268 35.3834C111.585 35.1295 112.015 34.7844 112.469 34.42L113.095 35.1993ZM111.893 36.1637C111.735 36.291 111.604 36.3953 111.514 36.4679C111.468 36.5042 111.433 36.5326 111.409 36.552C111.396 36.5617 111.387 36.5693 111.38 36.5745C111.377 36.577 111.374 36.5793 111.372 36.581C111.371 36.5818 111.37 36.583 111.368 36.5842C111.368 36.5847 111.366 36.5861 111.363 36.5878C111.363 36.5884 111.36 36.5907 111.356 36.5935C111.354 36.5947 111.35 36.5981 111.343 36.6024C111.34 36.6046 111.331 36.6105 111.326 36.6139C111.316 36.6201 111.28 36.6394 111.254 36.6513L110.864 35.7306C110.838 35.7425 110.803 35.7617 110.793 35.7679C110.787 35.7714 110.779 35.7772 110.775 35.7795C110.769 35.7837 110.764 35.7871 110.763 35.7883C110.759 35.7911 110.756 35.7933 110.755 35.7938C110.753 35.7954 110.752 35.7966 110.752 35.7967C110.751 35.7973 110.751 35.7975 110.751 35.797C110.752 35.7962 110.754 35.7947 110.757 35.7923C110.763 35.7875 110.772 35.7804 110.784 35.7708C110.808 35.7517 110.843 35.7235 110.889 35.6873C110.979 35.6149 111.109 35.5108 111.267 35.3836L111.893 36.1637ZM111.45 35.8788L111.549 36.0033L110.768 36.6276L110.669 36.5031L111.45 35.8788ZM110.778 35.9909L110.882 35.8696L111.643 36.5186L111.539 36.6399L110.778 35.9909ZM110.938 36.5745L106.739 32.9926L107.388 32.2318L111.587 35.8137L110.938 36.5745ZM106.739 32.9926C106.882 33.1147 107.097 33.0976 107.219 32.9545L106.458 32.3055C106.695 32.0285 107.111 31.9954 107.388 32.2318L106.739 32.9926ZM107.219 32.9545C107.341 32.8115 107.324 32.5966 107.181 32.4744L106.532 33.2352C106.255 32.9988 106.222 32.5826 106.458 32.3055L107.219 32.9545ZM107.181 32.4744L111.38 36.0563L110.731 36.8171L106.532 33.2352L107.181 32.4744ZM111.38 36.0563C111.256 35.9507 111.074 35.9472 110.946 36.0499L111.571 36.83C111.324 37.0284 110.971 37.0221 110.731 36.8171L111.38 36.0563ZM110.982 36.0234C110.966 36.0344 110.949 36.0468 110.948 36.0476C110.948 36.0479 110.947 36.0483 110.947 36.0484C110.947 36.0486 110.947 36.0486 110.947 36.0485C110.947 36.0483 110.948 36.0479 110.949 36.0473C110.95 36.0461 110.953 36.0443 110.956 36.0418C110.962 36.0369 110.971 36.0295 110.983 36.0199C111.007 36.0007 111.042 35.9724 111.088 35.9361C111.178 35.8636 111.309 35.7593 111.467 35.6323C111.784 35.3782 112.215 35.033 112.668 34.6685C113.578 33.9372 114.572 33.1344 114.936 32.8282L115.58 33.5935C115.205 33.9086 114.2 34.72 113.295 35.4478C112.841 35.8128 112.41 36.1584 112.092 36.4127C111.934 36.5399 111.803 36.6442 111.713 36.7169C111.667 36.7532 111.632 36.7815 111.608 36.8009C111.595 36.8105 111.586 36.8179 111.58 36.8229C111.577 36.8254 111.574 36.8274 111.573 36.8287C111.572 36.8294 111.571 36.8299 111.571 36.8304C111.57 36.8306 111.57 36.8309 111.57 36.8312C111.569 36.8314 111.569 36.8319 111.568 36.8322C111.567 36.833 111.551 36.8454 111.535 36.8564L110.982 36.0234ZM114.937 32.8275C114.792 32.9489 114.774 33.1645 114.895 33.3083L115.66 32.6641C115.894 32.9429 115.859 33.3597 115.579 33.5941L114.937 32.8275ZM114.895 33.3081C115.016 33.4519 115.231 33.471 115.375 33.3491L114.73 32.5848C115.009 32.3495 115.426 32.386 115.66 32.6643L114.895 33.3081Z" fill="white" mask="url(#path-3-outside-2_7728_1475)"/>
<rect width="84" height="27" rx="13.5" fill="#F2F3B7"/>
<path d="M15.277 10.031C15.0777 10.031 14.874 10.0483 14.666 10.083C14.458 10.1177 14.2673 10.1827 14.094 10.278C13.9207 10.3647 13.7777 10.4903 13.665 10.655C13.5523 10.811 13.496 11.0103 13.496 11.253C13.496 11.617 13.6173 11.8943 13.86 12.085C14.1027 12.267 14.393 12.4057 14.731 12.501C14.9737 12.5703 15.2163 12.6353 15.459 12.696C15.7103 12.7567 15.94 12.8087 16.148 12.852C16.512 12.93 16.8543 13.0253 17.175 13.138C17.5043 13.2507 17.7903 13.4023 18.033 13.593C18.2757 13.775 18.4663 14.009 18.605 14.295C18.7523 14.5723 18.826 14.919 18.826 15.335C18.826 15.829 18.735 16.2493 18.553 16.596C18.3797 16.9427 18.1413 17.2287 17.838 17.454C17.5347 17.6793 17.1793 17.844 16.772 17.948C16.3647 18.052 15.927 18.104 15.459 18.104C14.9823 18.104 14.5273 18.0563 14.094 17.961C13.6693 17.857 13.288 17.6967 12.95 17.48C12.612 17.2547 12.3303 16.9687 12.105 16.622C11.8797 16.2753 11.7367 15.8593 11.676 15.374H13.236C13.3053 15.634 13.418 15.8507 13.574 16.024C13.73 16.1973 13.9077 16.336 14.107 16.44C14.315 16.544 14.536 16.6177 14.77 16.661C15.004 16.7043 15.2337 16.726 15.459 16.726C15.7017 16.726 15.9357 16.7087 16.161 16.674C16.3863 16.6307 16.5813 16.5613 16.746 16.466C16.9107 16.3707 17.045 16.245 17.149 16.089C17.253 15.933 17.305 15.7293 17.305 15.478C17.305 15.1313 17.214 14.88 17.032 14.724C16.85 14.5593 16.6073 14.438 16.304 14.36C15.888 14.2387 15.459 14.1347 15.017 14.048C14.5837 13.9527 14.172 13.8313 13.782 13.684C13.522 13.5887 13.2837 13.476 13.067 13.346C12.8503 13.216 12.6597 13.06 12.495 12.878C12.3303 12.696 12.2003 12.4837 12.105 12.241C12.0183 11.9897 11.975 11.6993 11.975 11.37C11.975 10.8673 12.0703 10.447 12.261 10.109C12.4517 9.76233 12.6987 9.485 13.002 9.277C13.314 9.069 13.665 8.92167 14.055 8.835C14.445 8.73967 14.8437 8.692 15.251 8.692C15.6843 8.692 16.096 8.744 16.486 8.848C16.876 8.94333 17.2227 9.095 17.526 9.303C17.8293 9.511 18.072 9.77967 18.254 10.109C18.4447 10.4383 18.5573 10.837 18.592 11.305H17.11C17.0753 11.071 17.0017 10.876 16.889 10.72C16.785 10.564 16.6507 10.4383 16.486 10.343C16.33 10.239 16.148 10.1653 15.94 10.122C15.732 10.07 15.511 10.0397 15.277 10.031ZM24.7446 17.155C24.5192 17.4757 24.2202 17.714 23.8476 17.87C23.4749 18.0173 23.0589 18.091 22.5996 18.091C22.2356 18.091 21.9019 18.0477 21.5986 17.961C21.3039 17.8743 21.0439 17.7443 20.8186 17.571C20.5932 17.389 20.4156 17.168 20.2856 16.908C20.1556 16.6393 20.0906 16.336 20.0906 15.998C20.0906 15.6253 20.1642 15.309 20.3116 15.049C20.4589 14.7803 20.6582 14.5637 20.9096 14.399C21.1696 14.2343 21.4729 14.113 21.8196 14.035C22.1662 13.9483 22.5302 13.905 22.9116 13.905H24.6666C24.6666 13.4023 24.5539 13.0123 24.3286 12.735C24.1032 12.4577 23.7089 12.3147 23.1456 12.306C22.8162 12.306 22.5302 12.3623 22.2876 12.475C22.0536 12.5877 21.8976 12.774 21.8196 13.034H20.2986C20.3506 12.67 20.4676 12.3623 20.6496 12.111C20.8402 11.8597 21.0656 11.6517 21.3256 11.487C21.5942 11.3223 21.8889 11.2053 22.2096 11.136C22.5389 11.0667 22.8682 11.032 23.1976 11.032C23.6222 11.032 24.0166 11.0883 24.3806 11.201C24.7446 11.3137 25.0609 11.5043 25.3296 11.773C25.6329 12.085 25.8366 12.4577 25.9406 12.891C26.0446 13.3243 26.0966 13.7967 26.0966 14.308V18H24.8096L24.7446 17.155ZM24.6666 14.958H23.2366C22.9852 14.958 22.7339 14.9797 22.4826 15.023C22.2312 15.0577 22.0146 15.1487 21.8326 15.296C21.6592 15.4347 21.5726 15.6383 21.5726 15.907C21.5726 16.2363 21.6896 16.4877 21.9236 16.661C22.1662 16.8257 22.4609 16.908 22.8076 16.908C23.0762 16.908 23.3232 16.8733 23.5486 16.804C23.7826 16.7347 23.9819 16.622 24.1466 16.466C24.3112 16.3013 24.4369 16.0977 24.5236 15.855C24.6189 15.6037 24.6666 15.3047 24.6666 14.958ZM26.9078 11.149H28.5458L30.4438 16.583L32.3288 11.149H33.9668L31.3928 18H29.4818L26.9078 11.149ZM36.0192 15.075C36.0365 15.3263 36.0885 15.5603 36.1752 15.777C36.2619 15.9937 36.3789 16.1843 36.5262 16.349C36.6822 16.505 36.8685 16.6307 37.0852 16.726C37.3105 16.8213 37.5705 16.869 37.8652 16.869C38.1772 16.869 38.4632 16.8127 38.7232 16.7C38.9832 16.5873 39.1739 16.3923 39.2952 16.115H40.8162C40.7295 16.4617 40.5865 16.7607 40.3872 17.012C40.1965 17.2633 39.9669 17.4713 39.6982 17.636C39.4382 17.792 39.1479 17.909 38.8272 17.987C38.5152 18.0563 38.1815 18.091 37.8262 18.091C37.2802 18.091 36.7992 18.0087 36.3832 17.844C35.9759 17.6793 35.6335 17.441 35.3562 17.129C35.0789 16.817 34.8709 16.4487 34.7322 16.024C34.6022 15.5907 34.5372 15.1053 34.5372 14.568C34.5372 14.048 34.6109 13.5757 34.7582 13.151C34.9055 12.7177 35.1179 12.345 35.3952 12.033C35.6812 11.721 36.0235 11.4783 36.4222 11.305C36.8209 11.123 37.2759 11.032 37.7872 11.032C38.3245 11.032 38.7882 11.123 39.1782 11.305C39.5682 11.4783 39.8932 11.7167 40.1532 12.02C40.4219 12.3233 40.6212 12.6787 40.7512 13.086C40.8812 13.4933 40.9462 13.9353 40.9462 14.412C40.9462 14.6373 40.9332 14.8583 40.9072 15.075H36.0192ZM39.5032 13.957C39.4859 13.437 39.3212 13.034 39.0092 12.748C38.6972 12.462 38.2942 12.319 37.8002 12.319C37.5229 12.319 37.2802 12.3623 37.0722 12.449C36.8642 12.5357 36.6865 12.6527 36.5392 12.8C36.4005 12.9473 36.2879 13.1207 36.2012 13.32C36.1145 13.5193 36.0582 13.7317 36.0322 13.957H39.5032ZM48.8074 18.091C48.3827 18.091 47.9754 18.0477 47.5854 17.961C47.1954 17.8657 46.8444 17.7227 46.5324 17.532C46.229 17.3327 45.969 17.077 45.7524 16.765C45.5444 16.453 45.41 16.076 45.3494 15.634H46.8704C46.9397 15.8593 47.0437 16.0413 47.1824 16.18C47.321 16.3187 47.477 16.4313 47.6504 16.518C47.8324 16.6047 48.023 16.6653 48.2224 16.7C48.4217 16.726 48.6167 16.739 48.8074 16.739C49.0067 16.739 49.2147 16.7217 49.4314 16.687C49.648 16.6437 49.843 16.57 50.0164 16.466C50.1984 16.362 50.3457 16.219 50.4584 16.037C50.5797 15.8463 50.6404 15.5993 50.6404 15.296C50.6404 15.0187 50.584 14.7933 50.4714 14.62C50.3674 14.4467 50.2244 14.3123 50.0424 14.217C49.869 14.1217 49.6697 14.0567 49.4444 14.022C49.2277 13.9873 49.0067 13.97 48.7814 13.97H47.8714V12.696H48.4044C48.6124 12.696 48.829 12.6743 49.0544 12.631C49.2797 12.5877 49.4834 12.514 49.6654 12.41C49.856 12.306 50.0077 12.1673 50.1204 11.994C50.2417 11.8207 50.3024 11.604 50.3024 11.344C50.3024 11.0927 50.259 10.8847 50.1724 10.72C50.0857 10.5467 49.9687 10.4123 49.8214 10.317C49.674 10.213 49.505 10.1437 49.3144 10.109C49.1324 10.0657 48.9374 10.044 48.7294 10.044C48.374 10.044 48.0404 10.1263 47.7284 10.291C47.4164 10.447 47.2127 10.7243 47.1174 11.123H45.6354C45.6874 10.6983 45.8044 10.3343 45.9864 10.031C46.1684 9.719 46.4024 9.46767 46.6884 9.277C46.9744 9.07767 47.295 8.93033 47.6504 8.835C48.0144 8.73967 48.3957 8.692 48.7944 8.692C49.1844 8.692 49.557 8.73533 49.9124 8.822C50.2764 8.90867 50.597 9.04733 50.8744 9.238C51.1517 9.42867 51.3727 9.68 51.5374 9.992C51.702 10.2953 51.7844 10.668 51.7844 11.11C51.7844 11.474 51.6934 11.8337 51.5114 12.189C51.338 12.5443 51.013 12.8433 50.5364 13.086C51.0824 13.2333 51.4897 13.502 51.7584 13.892C52.027 14.2733 52.1614 14.737 52.1614 15.283C52.1614 15.7857 52.066 16.2147 51.8754 16.57C51.6934 16.9167 51.4507 17.207 51.1474 17.441C50.8527 17.6663 50.5017 17.831 50.0944 17.935C49.687 18.039 49.258 18.091 48.8074 18.091ZM60.7091 13.398C60.7091 14.1 60.6354 14.7413 60.4881 15.322C60.3494 15.894 60.1284 16.3837 59.8251 16.791C59.5304 17.1983 59.1577 17.5147 58.7071 17.74C58.2564 17.9653 57.7234 18.078 57.1081 18.078C56.4927 18.078 55.9597 17.9697 55.5091 17.753C55.0584 17.5277 54.6857 17.2157 54.3911 16.817C54.0964 16.4183 53.8754 15.9373 53.7281 15.374C53.5807 14.8107 53.5071 14.1823 53.5071 13.489C53.5071 12.7783 53.5764 12.1283 53.7151 11.539C53.8537 10.9497 54.0704 10.4427 54.3651 10.018C54.6597 9.59333 55.0324 9.26833 55.4831 9.043C55.9424 8.809 56.4841 8.692 57.1081 8.692C57.7147 8.692 58.2434 8.80467 58.6941 9.03C59.1447 9.25533 59.5174 9.576 59.8121 9.992C60.1154 10.408 60.3407 10.9063 60.4881 11.487C60.6354 12.059 60.7091 12.696 60.7091 13.398ZM55.0021 13.398C55.0021 13.8747 55.0367 14.3167 55.1061 14.724C55.1754 15.1313 55.2924 15.4867 55.4571 15.79C55.6217 16.0847 55.8384 16.3187 56.1071 16.492C56.3757 16.6567 56.7094 16.739 57.1081 16.739C57.4981 16.739 57.8274 16.6567 58.0961 16.492C58.3647 16.3187 58.5814 16.0847 58.7461 15.79C58.9107 15.4867 59.0277 15.1313 59.0971 14.724C59.1664 14.3167 59.2011 13.8747 59.2011 13.398C59.2011 12.93 59.1664 12.4923 59.0971 12.085C59.0277 11.669 58.9107 11.3137 58.7461 11.019C58.5814 10.7157 58.3647 10.4773 58.0961 10.304C57.8274 10.1307 57.4981 10.044 57.1081 10.044C56.7094 10.044 56.3757 10.1307 56.1071 10.304C55.8384 10.4773 55.6217 10.7157 55.4571 11.019C55.2924 11.3137 55.1754 11.669 55.1061 12.085C55.0367 12.4923 55.0021 12.93 55.0021 13.398ZM64.144 12.943C63.806 12.943 63.507 12.8867 63.247 12.774C62.9957 12.6613 62.779 12.5097 62.597 12.319C62.4237 12.1283 62.2937 11.903 62.207 11.643C62.1203 11.383 62.077 11.1013 62.077 10.798C62.077 10.174 62.2503 9.66267 62.597 9.264C62.9523 8.85667 63.468 8.653 64.144 8.653C64.8027 8.653 65.3053 8.85667 65.652 9.264C66.0073 9.66267 66.185 10.174 66.185 10.798C66.185 11.1013 66.1373 11.383 66.042 11.643C65.9553 11.903 65.8253 12.1283 65.652 12.319C65.4787 12.5097 65.2663 12.6613 65.015 12.774C64.7637 12.8867 64.4733 12.943 64.144 12.943ZM63.143 18L68.915 8.809H70.397L64.625 18H63.143ZM64.144 9.784C63.8147 9.784 63.585 9.888 63.455 10.096C63.325 10.2953 63.26 10.5293 63.26 10.798C63.26 11.0753 63.325 11.3137 63.455 11.513C63.585 11.7123 63.8147 11.812 64.144 11.812C64.456 11.812 64.6727 11.7123 64.794 11.513C64.9153 11.305 64.976 11.0667 64.976 10.798C64.976 10.5293 64.9153 10.2953 64.794 10.096C64.6727 9.888 64.456 9.784 64.144 9.784ZM69.474 18.143C69.136 18.143 68.837 18.0867 68.577 17.974C68.3257 17.8613 68.109 17.7097 67.927 17.519C67.7537 17.3283 67.6237 17.103 67.537 16.843C67.4503 16.583 67.407 16.3013 67.407 15.998C67.407 15.374 67.5803 14.8627 67.927 14.464C68.2823 14.0567 68.798 13.853 69.474 13.853C70.1327 13.853 70.6397 14.0567 70.995 14.464C71.3503 14.8627 71.528 15.374 71.528 15.998C71.528 16.3013 71.4803 16.583 71.385 16.843C71.2983 17.103 71.1683 17.3283 70.995 17.519C70.8217 17.7097 70.605 17.8613 70.345 17.974C70.0937 18.0867 69.8033 18.143 69.474 18.143ZM69.461 14.984C69.149 14.984 68.9237 15.0837 68.785 15.283C68.655 15.4823 68.59 15.7207 68.59 15.998C68.59 16.2753 68.655 16.5137 68.785 16.713C68.9237 16.9123 69.149 17.012 69.461 17.012C69.7817 17.012 70.0027 16.9123 70.124 16.713C70.2453 16.505 70.306 16.2667 70.306 15.998C70.306 15.8593 70.293 15.7293 70.267 15.608C70.241 15.4867 70.1933 15.3827 70.124 15.296C70.0633 15.2007 69.9767 15.127 69.864 15.075C69.76 15.0143 69.6257 14.984 69.461 14.984Z" fill="#1C1E30"/>
</svg>
