<svg width="104" height="17" viewBox="0 0 104 17" fill="none" xmlns="http://www.w3.org/2000/svg">
<path d="M8.5 0L10.4084 5.87336L16.584 5.87336L11.5878 9.50329L13.4962 15.3766L8.5 11.7467L3.50383 15.3766L5.41219 9.50329L0.416019 5.87336L6.59163 5.87336L8.5 0Z" fill="#CF9706"/>
<path d="M51.7734 0L53.6818 5.87336L59.8574 5.87336L54.8612 9.50329L56.7696 15.3766L51.7734 11.7467L46.7773 15.3766L48.6856 9.50329L43.6895 5.87336L49.8651 5.87336L51.7734 0Z" fill="#CF9706"/>
<path d="M30.1367 0L32.0451 5.87336L38.2207 5.87336L33.2245 9.50329L35.1329 15.3766L30.1367 11.7467L25.1405 15.3766L27.0489 9.50329L22.0527 5.87336L28.2283 5.87336L30.1367 0Z" fill="#CF9706"/>
<path d="M73.4102 0L75.3185 5.87336L81.4941 5.87336L76.498 9.50329L78.4063 15.3766L73.4102 11.7467L68.414 15.3766L70.3224 9.50329L65.3262 5.87336L71.5018 5.87336L73.4102 0Z" fill="#CF9706"/>
<path d="M95.0469 0L96.9552 5.87336L103.131 5.87336L98.1347 9.50329L100.043 15.3766L95.0469 11.7467L90.0507 15.3766L91.9591 9.50329L86.9629 5.87336L93.1385 5.87336L95.0469 0Z" fill="#CF9706"/>
</svg>
