<svg width="141" height="24" viewBox="0 0 141 24" fill="none" xmlns="http://www.w3.org/2000/svg">
<path d="M12 0.587891L14.5819 8.53419H22.9371L16.1776 13.4453L18.7595 21.3916L12 16.4805L5.24047 21.3916L7.82238 13.4453L1.06285 8.53419H9.41809L12 0.587891Z" fill="#1C1E30"/>
<path d="M70.5459 0.587891L73.1278 8.53419H81.483L74.7235 13.4453L77.3054 21.3916L70.5459 16.4805L63.7864 21.3916L66.3683 13.4453L59.6087 8.53419H67.964L70.5459 0.587891Z" fill="#1C1E30"/>
<path d="M41.2725 0.587891L43.8544 8.53419H52.2096L45.4501 13.4453L48.032 21.3916L41.2725 16.4805L34.5129 21.3916L37.0948 13.4453L30.3353 8.53419H38.6905L41.2725 0.587891Z" fill="#1C1E30"/>
<path d="M99.8184 0.587891L102.4 8.53419H110.756L103.996 13.4453L106.578 21.3916L99.8184 16.4805L93.0588 21.3916L95.6407 13.4453L88.8812 8.53419H97.2364L99.8184 0.587891Z" fill="#1C1E30"/>
<path d="M129.091 0.587891L131.673 8.53419H140.028L133.268 13.4453L135.85 21.3916L129.091 16.4805L122.331 21.3916L124.913 13.4453L118.154 8.53419H126.509L129.091 0.587891Z" fill="#1C1E30"/>
</svg>
