<svg width="102" height="30" viewBox="0 0 102 30" fill="none" xmlns="http://www.w3.org/2000/svg">
<g clip-path="url(#clip0_7874_20317)">
<path d="M33.9597 16.9931V14.8384H37.0076C37.4065 14.8384 37.768 14.7543 38.0921 14.586C38.4162 14.4178 38.6718 14.1784 38.8588 13.8678C39.0458 13.5443 39.1392 13.156 39.1392 12.7031C39.1392 12.2631 39.0458 11.8814 38.8588 11.5578C38.6718 11.2343 38.4162 10.9884 38.0921 10.8202C37.768 10.6519 37.4065 10.5678 37.0076 10.5678H33.9597V8.41311H37.2694C38.1046 8.41311 38.8526 8.58781 39.5132 8.93722C40.1864 9.28664 40.7161 9.7849 41.1026 10.4319C41.4891 11.0661 41.6823 11.8231 41.6823 12.7031C41.6823 13.5831 41.4891 14.3467 41.1026 14.9937C40.7161 15.6278 40.1864 16.1196 39.5132 16.469C38.8526 16.8184 38.1046 16.9931 37.2694 16.9931H33.9597ZM32.0898 22.0596V8.41311H34.6329V22.0596H32.0898ZM46.7075 22.2537C45.8848 22.2537 45.1431 22.0402 44.4824 21.6131C43.8217 21.186 43.3044 20.6037 42.9304 19.866C42.5564 19.1284 42.3694 18.3001 42.3694 17.3813C42.3694 16.4496 42.5564 15.6149 42.9304 14.8772C43.3044 14.1396 43.8217 13.5572 44.4824 13.1302C45.1431 12.7031 45.8848 12.4896 46.7075 12.4896C47.3558 12.4896 47.9354 12.6255 48.4465 12.8972C48.9576 13.169 49.3627 13.5508 49.6619 14.0425C49.9736 14.5214 50.1419 15.0649 50.1668 15.6731V19.0508C50.1419 19.6719 49.9736 20.2219 49.6619 20.7008C49.3627 21.1796 48.9576 21.5613 48.4465 21.846C47.9354 22.1178 47.3558 22.2537 46.7075 22.2537ZM47.1563 19.9049C47.842 19.9049 48.3966 19.6719 48.8205 19.206C49.2444 18.7272 49.4562 18.1125 49.4562 17.3619C49.4562 16.8702 49.3565 16.4366 49.1571 16.0613C48.9701 15.6731 48.7021 15.3755 48.353 15.1684C48.0164 14.9484 47.6176 14.8384 47.1563 14.8384C46.7075 14.8384 46.3087 14.9484 45.9596 15.1684C45.623 15.3755 45.355 15.6731 45.1555 16.0613C44.9686 16.4366 44.8751 16.8702 44.8751 17.3619C44.8751 17.8666 44.9686 18.3131 45.1555 18.7013C45.355 19.0766 45.623 19.3743 45.9596 19.5943C46.3087 19.8014 46.7075 19.9049 47.1563 19.9049ZM49.3254 22.0596V19.536L49.718 17.2455L49.3254 14.9937V12.6837H51.7562V22.0596H49.3254ZM56.7654 22.1372L52.9883 12.6837H55.6435L58.1491 19.9049H57.2516L59.8507 12.6837H62.5246L58.5044 22.1178L56.7654 22.1372ZM54.2598 25.9808L57.0085 19.9437L58.5044 22.1178L56.8589 25.9808H54.2598ZM64.9471 22.0596V8.78193H67.3966V22.0596H64.9471ZM62.8341 14.916V12.6837H69.5096V14.916H62.8341ZM70.8871 22.0596V12.6837H73.3554V22.0596H70.8871ZM72.1213 11.1696C71.7223 11.1696 71.392 11.0337 71.1302 10.7619C70.8684 10.4772 70.7375 10.1278 70.7375 9.7137C70.7375 9.31249 70.8684 8.96961 71.1302 8.68487C71.392 8.40016 71.7223 8.25781 72.1213 8.25781C72.5326 8.25781 72.8629 8.40016 73.1123 8.68487C73.3741 8.96961 73.505 9.31249 73.505 9.7137C73.505 10.1278 73.3741 10.4772 73.1123 10.7619C72.8629 11.0337 72.5326 11.1696 72.1213 11.1696ZM75.5253 22.0596V12.6837H77.9748V22.0596H75.5253ZM81.4153 22.0596V16.5272C81.4153 15.9837 81.2471 15.5631 80.9105 15.2655C80.5864 14.9549 80.1812 14.7996 79.6951 14.7996C79.371 14.7996 79.078 14.8708 78.8162 15.0131C78.5544 15.1425 78.3488 15.3367 78.1992 15.5955C78.0496 15.8543 77.9748 16.1648 77.9748 16.5272L77.0212 16.0419C77.0212 15.3173 77.1707 14.6895 77.4699 14.159C77.7816 13.6284 78.1992 13.2208 78.7227 12.936C79.2463 12.6384 79.8385 12.4896 80.4991 12.4896C81.1224 12.4896 81.6896 12.6384 82.2007 12.936C82.7118 13.2208 83.1169 13.6284 83.4161 14.159C83.7153 14.6767 83.8649 15.3043 83.8649 16.0419V22.0596H81.4153ZM87.3053 22.0596V16.5272C87.3053 15.9837 87.1371 15.5631 86.8005 15.2655C86.4767 14.9549 86.0712 14.7996 85.5851 14.7996C85.2731 14.7996 84.9806 14.8708 84.7063 15.0131C84.4445 15.1425 84.2388 15.3367 84.0893 15.5955C83.9397 15.8543 83.8649 16.1648 83.8649 16.5272L82.4625 16.1778C82.5124 15.4272 82.7056 14.7802 83.0421 14.2366C83.3787 13.6801 83.8213 13.2531 84.3697 12.9555C84.9182 12.6449 85.529 12.4896 86.2021 12.4896C86.8753 12.4896 87.4796 12.6384 88.0159 12.936C88.5522 13.2208 88.9755 13.6349 89.2874 14.1784C89.5993 14.7219 89.7549 15.369 89.7549 16.1196V22.0596H87.3053ZM96.0597 22.2537C95.1129 22.2537 94.2715 22.0466 93.5354 21.6325C92.8002 21.2055 92.2146 20.6231 91.7777 19.8855C91.3545 19.1478 91.142 18.3067 91.142 17.3619C91.142 16.4302 91.3477 15.6019 91.759 14.8772C92.1832 14.1396 92.7569 13.5572 93.4793 13.1302C94.2026 12.6901 95.0067 12.4702 95.8914 12.4702C96.7643 12.4702 97.531 12.6773 98.1914 13.0913C98.8645 13.4925 99.3881 14.049 99.7621 14.7608C100.149 15.4596 100.342 16.2555 100.342 17.1484C100.342 17.3167 100.33 17.4914 100.304 17.6725C100.292 17.8408 100.261 18.0349 100.211 18.2549L92.6192 18.2743V16.3719L99.0702 16.3525L98.0792 17.1484C98.0545 16.5919 97.9551 16.126 97.78 15.7508C97.6185 15.3755 97.3754 15.0908 97.0508 14.8966C96.7397 14.6895 96.353 14.586 95.8914 14.586C95.4053 14.586 94.982 14.7025 94.6199 14.9355C94.2587 15.1554 93.9782 15.4725 93.7785 15.8866C93.5915 16.2878 93.498 16.7666 93.498 17.3231C93.498 17.8925 93.5983 18.3908 93.7972 18.8178C94.0097 19.2319 94.3088 19.5555 94.6947 19.7884C95.0814 20.0084 95.5302 20.1184 96.041 20.1184C96.5025 20.1184 96.9199 20.0408 97.2938 19.8855C97.6678 19.7172 97.9925 19.4714 98.2662 19.1478L99.706 20.6425C99.27 21.1731 98.7336 21.5743 98.0979 21.846C97.4749 22.1178 96.7958 22.2537 96.0597 22.2537Z" fill="#1C1E30"/>
<path d="M14.3169 10.3769C14.7503 9.93152 15.0185 9.31705 15.0185 8.63802C15.0185 7.27823 13.9431 6.17578 12.6166 6.17578C11.778 6.17578 11.0407 6.61713 10.611 7.28479C10.4969 7.40198 0.935429 19.4828 0.846047 19.6217C0.412673 20.0671 0.144531 20.6818 0.144531 21.3605C0.144531 22.7204 1.21995 23.8228 2.54643 23.8228C3.38504 23.8228 4.12235 23.3817 4.55199 22.7138C4.66612 22.5966 14.2276 10.5156 14.3169 10.3769Z" fill="#1C1E30"/>
<path d="M19.964 16.2081C20.4106 15.768 20.6868 15.1606 20.6868 14.4894C20.6868 13.147 19.5816 12.0586 18.2184 12.0586C17.3562 12.0586 16.5981 12.4947 16.1567 13.1543C16.0384 13.2709 10.8776 19.5357 10.7852 19.6737C10.3386 20.1138 10.0625 20.7213 10.0625 21.3923C10.0625 22.7349 11.1677 23.8233 12.5308 23.8233C13.393 23.8233 14.1511 23.3872 14.5923 22.7275C14.7106 22.6111 19.8716 16.3461 19.964 16.2081Z" fill="#1C1E30"/>
<path d="M24.9346 8.38166C24.9346 9.60002 23.8247 10.5875 22.4556 10.5875C21.0863 10.5875 19.9766 9.60002 19.9766 8.38166C19.9766 7.16344 21.0863 6.17578 22.4556 6.17578C23.8247 6.17578 24.9346 7.16344 24.9346 8.38166Z" fill="#1C1E30"/>
<path d="M4.39423 8.38166C4.39423 9.60002 3.44285 10.5875 2.26938 10.5875C1.09591 10.5875 0.144531 9.60002 0.144531 8.38166C0.144531 7.16344 1.09591 6.17578 2.26938 6.17578C3.44285 6.17578 4.39423 7.16344 4.39423 8.38166Z" fill="#1C1E30"/>
</g>
<defs>
<clipPath id="clip0_7874_20317">
<rect width="101.143" height="30" fill="white" transform="translate(0.144531)"/>
</clipPath>
</defs>
</svg>
