<svg width="90" height="30" viewBox="0 0 90 30" fill="none" xmlns="http://www.w3.org/2000/svg">
<g clip-path="url(#clip0_7874_20326)">
<path d="M42.1718 8.92631C43.0015 8.92631 43.6804 9.05575 44.2084 9.31454C44.749 9.56045 45.2267 9.85163 45.6415 10.1881C45.8929 10.3822 46.0815 10.408 46.2072 10.2657C46.3455 10.1104 46.4398 9.75457 46.4901 9.19807H46.9238C46.8987 9.6898 46.8798 10.2916 46.8672 11.0034C46.8546 11.7152 46.8484 12.6534 46.8484 13.8181H46.4147C46.3392 13.2357 46.2575 12.7504 46.1695 12.3622C46.0815 11.961 45.9558 11.6181 45.7924 11.3334C45.6415 11.0486 45.4278 10.7769 45.1512 10.5181C44.8118 10.1298 44.4032 9.8451 43.9255 9.66395C43.4603 9.46983 42.9701 9.37278 42.4547 9.37278C41.8009 9.37278 41.2289 9.55392 40.7387 9.9163C40.261 10.2657 39.8586 10.751 39.5318 11.3722C39.2175 11.9804 38.9787 12.6922 38.8152 13.5075C38.6644 14.3228 38.5889 15.1899 38.5889 16.1087C38.5889 17.0534 38.6706 17.9334 38.8341 18.7487C39.0101 19.551 39.2615 20.2563 39.5884 20.8645C39.9278 21.4599 40.3427 21.9257 40.8329 22.2622C41.3358 22.5986 41.9141 22.7669 42.5678 22.7669C43.033 22.7669 43.5107 22.6763 44.0009 22.4951C44.4912 22.314 44.8935 22.0357 45.2078 21.6604C45.6227 21.2722 45.9055 20.8127 46.0564 20.2822C46.2072 19.7387 46.3266 19.0204 46.4147 18.1275H46.8484C46.8484 19.344 46.8546 20.3275 46.8672 21.0781C46.8798 21.8157 46.8987 22.4369 46.9238 22.9416H46.4901C46.4398 22.3851 46.3518 22.0357 46.2261 21.8934C46.1129 21.751 45.9181 21.7705 45.6415 21.9516C45.1763 22.288 44.6798 22.5857 44.1518 22.8445C43.6364 23.0904 42.9701 23.2134 42.1529 23.2134C40.8707 23.2134 39.7455 22.9352 38.7775 22.3787C37.8095 21.8222 37.0553 21.0198 36.5147 19.9716C35.9867 18.9234 35.7227 17.6616 35.7227 16.1863C35.7227 14.7369 35.9993 13.4687 36.5524 12.3816C37.1055 11.2945 37.8661 10.4469 38.8341 9.83866C39.8021 9.23045 40.9146 8.92631 42.1718 8.92631ZM50.8875 7.95572C51.3401 7.95572 51.7109 8.08513 52.0001 8.34395C52.2892 8.60277 52.4338 8.94572 52.4338 9.37278C52.4338 9.79983 52.2892 10.1428 52.0001 10.4016C51.7109 10.6604 51.3401 10.7898 50.8875 10.7898C50.4349 10.7898 50.064 10.6604 49.7749 10.4016C49.4858 10.1428 49.3412 9.79983 49.3412 9.37278C49.3412 8.94572 49.4858 8.60277 49.7749 8.34395C50.064 8.08513 50.4349 7.95572 50.8875 7.95572ZM52.2075 12.6922V21.1363C52.2075 21.6798 52.3018 22.0487 52.4903 22.2428C52.6915 22.4369 53.0246 22.5339 53.4898 22.5339V22.9416C53.2635 22.9286 52.9178 22.9157 52.4526 22.9028C51.9875 22.8769 51.516 22.864 51.0383 22.864C50.5732 22.864 50.1017 22.8769 49.6241 22.9028C49.1464 22.9157 48.7881 22.9286 48.5492 22.9416V22.5339C49.0144 22.5339 49.3412 22.4369 49.5298 22.2428C49.7309 22.0487 49.8315 21.6798 49.8315 21.1363V15.041C49.8315 14.4457 49.7372 14.0122 49.5486 13.7404C49.3727 13.4557 49.0395 13.3134 48.5492 13.3134V12.9057C48.9515 12.9445 49.3412 12.964 49.7183 12.964C50.1835 12.964 50.6235 12.9445 51.0383 12.9057C51.4658 12.8539 51.8555 12.7828 52.2075 12.6922ZM60.6106 12.634C61.0002 12.634 61.3208 12.718 61.5723 12.8863C61.8363 13.0546 62.0311 13.2681 62.1569 13.5269C62.2825 13.7857 62.3454 14.0575 62.3454 14.3422C62.3454 14.7692 62.2197 15.1251 61.9683 15.4098C61.7294 15.6946 61.4088 15.8369 61.0066 15.8369C60.6294 15.8369 60.3214 15.7334 60.0826 15.5263C59.8437 15.3192 59.7243 15.0346 59.7243 14.6722C59.7243 14.3486 59.7997 14.0769 59.9506 13.8569C60.1139 13.6369 60.2963 13.4622 60.4974 13.3328C60.3591 13.2551 60.202 13.2293 60.026 13.2551C59.7243 13.281 59.4477 13.391 59.1963 13.5851C58.9448 13.7792 58.7311 14.0186 58.5551 14.3034C58.3791 14.5881 58.2408 14.8922 58.1403 15.2157C58.0523 15.5393 58.0083 15.8499 58.0083 16.1475V20.9422C58.0083 21.5763 58.1654 22.0034 58.4797 22.2234C58.7939 22.4305 59.2529 22.5339 59.8563 22.5339V22.9416C59.5671 22.9286 59.146 22.9157 58.5929 22.9028C58.0523 22.8769 57.4865 22.864 56.8957 22.864C56.4054 22.864 55.9151 22.8769 55.4249 22.9028C54.9471 22.9157 54.5888 22.9286 54.35 22.9416V22.5339C54.8151 22.5339 55.142 22.4369 55.3306 22.2428C55.5317 22.0487 55.6323 21.6798 55.6323 21.1363V15.0216C55.6323 14.4392 55.538 14.0122 55.3494 13.7404C55.1734 13.4557 54.8403 13.3134 54.35 13.3134V12.9057C54.7523 12.9445 55.142 12.964 55.5191 12.964C55.9842 12.964 56.4243 12.9445 56.8391 12.9057C57.2665 12.8539 57.6563 12.7828 58.0083 12.6922V14.711C58.1591 14.3486 58.354 14.0122 58.5929 13.7016C58.8443 13.391 59.1397 13.1387 59.4791 12.9445C59.8311 12.7375 60.2082 12.634 60.6106 12.634ZM67.5379 12.634C68.003 12.634 68.4305 12.6922 68.8202 12.8087C69.2225 12.9122 69.5681 13.061 69.8573 13.2551C70.1591 13.4492 70.3979 13.6952 70.5739 13.9928C70.7499 14.2775 70.8379 14.5945 70.8379 14.944C70.8379 15.371 70.7122 15.714 70.4608 15.9728C70.2093 16.2316 69.8951 16.361 69.5179 16.361C69.1282 16.361 68.8076 16.2445 68.5562 16.0116C68.3173 15.7787 68.1979 15.4681 68.1979 15.0798C68.1979 14.7046 68.3047 14.394 68.5185 14.1481C68.7322 13.9022 68.9899 13.7404 69.2916 13.6628C69.1785 13.4945 69.0024 13.3586 68.7636 13.2551C68.5247 13.1387 68.2607 13.0804 67.9716 13.0804C67.5945 13.0804 67.2551 13.1839 66.9533 13.391C66.6516 13.5851 66.3876 13.8827 66.1613 14.284C65.9476 14.6722 65.7779 15.1575 65.6522 15.7398C65.5391 16.3092 65.4825 16.9692 65.4825 17.7198C65.4825 18.7681 65.6019 19.5963 65.8408 20.2045C66.0922 20.8127 66.4127 21.2463 66.8025 21.5051C67.1921 21.751 67.607 21.874 68.0471 21.874C68.3111 21.874 68.5939 21.8222 68.8956 21.7187C69.1973 21.6152 69.4927 21.4405 69.7819 21.1945C70.0836 20.9486 70.3539 20.5992 70.5928 20.1463L70.9511 20.2822C70.8127 20.7351 70.5864 21.1881 70.2722 21.641C69.9705 22.0939 69.5745 22.4693 69.0842 22.7669C68.5939 23.0645 67.9967 23.2134 67.2928 23.2134C66.4882 23.2134 65.759 23.0257 65.1053 22.6504C64.4516 22.2622 63.9299 21.6798 63.5402 20.9034C63.1631 20.1269 62.9745 19.1627 62.9745 18.011C62.9745 16.8722 63.1693 15.9081 63.5591 15.1187C63.9487 14.3163 64.4893 13.7016 65.1808 13.2745C65.8847 12.8475 66.6705 12.634 67.5379 12.634ZM75.5553 7.74219V21.1363C75.5553 21.6798 75.6496 22.0487 75.8381 22.2428C76.0393 22.4369 76.3724 22.5339 76.8376 22.5339V22.9416C76.6113 22.9286 76.2656 22.9157 75.8004 22.9028C75.3479 22.8769 74.8827 22.864 74.405 22.864C73.9398 22.864 73.4621 22.8769 72.9719 22.9028C72.4942 22.9157 72.1359 22.9286 71.897 22.9416V22.5339C72.3622 22.5339 72.689 22.4369 72.8776 22.2428C73.0787 22.0487 73.1793 21.6798 73.1793 21.1363V10.0716C73.1793 9.48925 73.0913 9.06219 72.9153 8.79042C72.7393 8.50571 72.3999 8.36336 71.897 8.36336V7.95572C72.2993 7.99454 72.689 8.01395 73.0661 8.01395C73.5438 8.01395 73.9901 7.99454 74.405 7.95572C74.8199 7.90395 75.2033 7.83278 75.5553 7.74219ZM82.2867 12.634C83.393 12.634 84.2604 12.9769 84.889 13.6628C85.5175 14.3486 85.8318 15.4422 85.8318 16.9434H79.477L79.4581 16.5745H83.6444C83.6695 15.9404 83.6318 15.358 83.5313 14.8275C83.4307 14.284 83.2673 13.8505 83.041 13.5269C82.8273 13.2033 82.5444 13.0416 82.1924 13.0416C81.7147 13.0416 81.2999 13.3328 80.9478 13.9151C80.5958 14.4845 80.3759 15.4228 80.2878 16.7298L80.3633 16.8463C80.3381 17.0146 80.3193 17.1957 80.3067 17.3898C80.3067 17.584 80.3067 17.7781 80.3067 17.9722C80.3067 18.8651 80.4324 19.6028 80.6838 20.1851C80.9352 20.7675 81.2621 21.1945 81.6644 21.4663C82.0667 21.7381 82.4815 21.874 82.909 21.874C83.1981 21.874 83.4935 21.8287 83.7953 21.7381C84.097 21.6475 84.3924 21.4793 84.6815 21.2334C84.9707 20.9874 85.2347 20.638 85.4735 20.1851L85.8318 20.3404C85.6936 20.7933 85.4609 21.2463 85.1341 21.6992C84.8198 22.1393 84.4113 22.5016 83.9084 22.7863C83.4055 23.071 82.8147 23.2134 82.1358 23.2134C81.281 23.2134 80.5267 23.0192 79.873 22.631C79.2192 22.2428 78.7101 21.6669 78.3455 20.9034C77.981 20.1269 77.7987 19.1822 77.7987 18.0692C77.7987 16.8916 77.9873 15.9016 78.3644 15.0992C78.7541 14.2969 79.2884 13.6886 79.9673 13.2745C80.6461 12.8475 81.4193 12.634 82.2867 12.634Z" fill="#1C1E30"/>
<path d="M14.3541 -0.00390625C6.74149 -0.00390625 0.570312 6.53041 0.570312 14.5907H28.1379C28.1379 6.53041 21.9667 -0.00390625 14.3541 -0.00390625Z" fill="#1C1E30"/>
<path d="M26.6304 16.2148C26.6304 22.984 21.1233 28.4911 14.3541 28.4911C7.5849 28.4911 2.07779 22.984 2.07779 16.2148H0.570312C0.570312 23.8153 6.75368 29.9986 14.3541 29.9986C21.9545 29.9986 28.1379 23.8153 28.1379 16.2148H26.6304Z" fill="#1C1E30"/>
<path d="M14.356 26.7553C20.2191 26.7553 24.9891 22.0267 24.9891 16.2148H23.4379C23.4379 21.179 19.3638 25.2175 14.356 25.2175C9.34819 25.2175 5.27405 21.179 5.27405 16.2148H3.72266C3.72266 22.0267 8.49288 26.7553 14.356 26.7553Z" fill="#1C1E30"/>
</g>
<defs>
<clipPath id="clip0_7874_20326">
<rect width="89.1429" height="30" fill="white" transform="translate(0.570312)"/>
</clipPath>
</defs>
</svg>
