<svg width="96" height="30" viewBox="0 0 96 30" fill="none" xmlns="http://www.w3.org/2000/svg">
<g clip-path="url(#clip0_7874_20310)">
<path d="M22.98 23.3916H14.7234L18.8517 16.6519L22.98 23.3916ZM24.2876 7.77756L33.8516 23.3916H24.5022L19.6126 15.4095L24.2876 7.77756ZM36.1779 24.7047L24.2876 5.29297L18.8517 14.1673L13.4158 5.29297L1.71484 24.3952H3.23682L13.4158 7.77756L18.0906 15.4095L12.3971 24.7047H36.1779Z" fill="#1C1E30"/>
<path d="M36.1779 24.7047L24.2876 5.29297L18.8517 14.1673L13.4158 5.29297L1.71484 24.3952H3.23682L13.4158 7.77756L18.0906 15.4095L12.3971 24.7047H36.1779ZM22.98 23.3916H14.7234L18.8517 16.6519L22.98 23.3916ZM24.2876 7.77756L33.8516 23.3916H24.5022L19.6126 15.4095L24.2876 7.77756Z" stroke="#1C1E30" stroke-width="2"/>
<path d="M42.5742 22.057V8.46875H44.0828L49.5702 17.767H48.5896L54.0771 8.46875H55.5856V22.057H53.4171V12.3899L53.9074 12.5258L49.8342 19.417H48.3256L44.2525 12.5258L44.7428 12.3899V22.057H42.5742ZM62.3138 22.2511C61.4338 22.2511 60.6355 22.0376 59.9189 21.6105C59.2024 21.1705 58.6304 20.5817 58.2029 19.844C57.7881 19.1064 57.5806 18.2847 57.5806 17.3787C57.5806 16.4728 57.7881 15.6575 58.2029 14.9329C58.6304 14.2082 59.2024 13.6323 59.9189 13.2052C60.6355 12.7652 61.4338 12.5452 62.3138 12.5452C63.2064 12.5452 64.0109 12.7587 64.7275 13.1858C65.4441 13.6129 66.0098 14.1952 66.4246 14.9329C66.8521 15.6575 67.0658 16.4728 67.0658 17.3787C67.0658 18.2847 66.8521 19.1064 66.4246 19.844C66.0098 20.5817 65.4441 21.1705 64.7275 21.6105C64.0109 22.0376 63.2064 22.2511 62.3138 22.2511ZM62.3138 20.1935C62.8293 20.1935 63.2818 20.077 63.6715 19.844C64.0738 19.5981 64.3818 19.2617 64.5955 18.8346C64.8218 18.4076 64.9349 17.9223 64.9349 17.3787C64.9349 16.8352 64.8218 16.3564 64.5955 15.9423C64.3692 15.5282 64.0612 15.2046 63.6715 14.9717C63.2818 14.7258 62.8293 14.6029 62.3138 14.6029C61.811 14.6029 61.3584 14.7258 60.9561 14.9717C60.5664 15.2046 60.2584 15.5282 60.0321 15.9423C59.8184 16.3564 59.7115 16.8352 59.7115 17.3787C59.7115 17.9223 59.8184 18.4076 60.0321 18.8346C60.2584 19.2617 60.5664 19.5981 60.9561 19.844C61.3584 20.077 61.811 20.1935 62.3138 20.1935ZM72.5056 22.2511C71.7388 22.2511 71.0536 22.0764 70.4502 21.727C69.8594 21.3776 69.3942 20.8987 69.0548 20.2905C68.728 19.6693 68.5645 18.9575 68.5645 18.1552V12.7393H70.6388V18.0582C70.6388 18.5111 70.708 18.8993 70.8462 19.2229C70.9971 19.5335 71.2108 19.7728 71.4874 19.9411C71.7765 20.1094 72.1159 20.1935 72.5056 20.1935C73.1091 20.1935 73.5679 20.0123 73.8822 19.6499C74.209 19.2747 74.3725 18.744 74.3725 18.0582V12.7393H76.4468V18.1552C76.4468 18.9705 76.2771 19.6887 75.9376 20.3099C75.6108 20.9181 75.1519 21.397 74.5611 21.7464C73.9702 22.0828 73.285 22.2511 72.5056 22.2511ZM84.7365 22.057V16.6799C84.7365 16.0587 84.5415 15.5476 84.1519 15.1464C83.7747 14.7452 83.2845 14.5446 82.681 14.5446C82.2787 14.5446 81.9204 14.6352 81.6062 14.8164C81.2919 14.9975 81.0467 15.2499 80.8708 15.5735C80.6947 15.897 80.6067 16.2658 80.6067 16.6799L79.7959 16.214C79.7959 15.5022 79.9467 14.8746 80.2485 14.3311C80.5502 13.7746 80.965 13.3411 81.493 13.0305C82.0336 12.707 82.637 12.5452 83.3033 12.5452C83.9822 12.5452 84.5856 12.7264 85.1136 13.0887C85.6416 13.4382 86.0562 13.8976 86.3579 14.467C86.6596 15.0235 86.8105 15.6058 86.8105 16.214V22.057H84.7365ZM78.5325 22.057V12.7393H80.6067V22.057H78.5325ZM90.1851 22.057V8.85698H92.2593V22.057H90.1851ZM88.0165 14.6805V12.7393H94.4279V14.6805H88.0165Z" fill="#1C1E30"/>
</g>
<defs>
<clipPath id="clip0_7874_20310">
<rect width="95.1428" height="30" fill="white"/>
</clipPath>
</defs>
</svg>
