<svg width="95" height="30" viewBox="0 0 95 30" fill="none" xmlns="http://www.w3.org/2000/svg">
<g clip-path="url(#clip0_7874_20323)">
<path d="M7.41679 13.229C7.41679 11.2826 8.97864 9.70447 10.9055 9.70447C12.8322 9.70447 14.3943 11.2826 14.3943 13.229C14.3943 15.1757 12.8322 16.7537 10.9055 16.7537C8.97864 16.7537 7.41679 15.1757 7.41679 13.229ZM10.9055 2.5C5.04015 2.5 0.285156 7.30372 0.285156 13.229C0.285156 19.1547 5.04015 23.9584 10.9055 23.9584V30C10.9055 30 21.5259 26.1802 21.5259 13.229C21.5259 7.30372 16.7709 2.5 10.9055 2.5Z" fill="#1C1E30"/>
<path d="M32.845 8.6841L36.5127 14.5606L40.163 8.6841H42.8272V21.1782H40.336V12.5665L37.0317 17.9488H35.9072L32.6028 12.5665V21.1782H30.1289V8.6841H32.845ZM50.8162 20.0312C50.4702 20.5017 50.0492 20.837 49.5533 21.037C49.0573 21.2371 48.4807 21.3311 47.8233 21.3194C46.9813 21.2958 46.2778 21.0547 45.7127 20.5959C45.4128 20.3371 45.1764 20.0312 45.0034 19.6782C44.8419 19.3135 44.7612 18.8841 44.7612 18.39C44.7727 17.8841 44.8823 17.437 45.0899 17.0488C45.309 16.6488 45.6377 16.3194 46.076 16.0606C46.445 15.8605 46.8602 15.7194 47.3216 15.637C47.7944 15.5547 48.3077 15.5135 48.8613 15.5135H50.7297C50.7643 14.9371 50.6316 14.5076 50.3318 14.2253C50.0434 13.9312 49.634 13.7782 49.1035 13.7665C48.9305 13.7665 48.7517 13.7782 48.5672 13.8017C48.3826 13.8253 48.2096 13.8723 48.0482 13.9429C47.8982 14.0135 47.7656 14.1135 47.6503 14.2429C47.5465 14.3605 47.4773 14.5076 47.4427 14.6841H44.9342C44.9918 14.1194 45.1418 13.6488 45.384 13.2723C45.6377 12.8841 45.9549 12.5724 46.3355 12.337C46.7161 12.1017 47.137 11.9371 47.5984 11.8429C48.0712 11.737 48.5556 11.6841 49.0516 11.6841C49.3284 11.6841 49.6109 11.7017 49.8993 11.737C50.1876 11.7606 50.4702 11.8194 50.747 11.9135C51.0238 11.9958 51.2833 12.1135 51.5255 12.2665C51.7792 12.4076 52.0156 12.5958 52.2348 12.8312C52.6269 13.29 52.8692 13.8194 52.9614 14.4194C53.0652 15.0077 53.1114 15.5841 53.0998 16.1488V21.1782H50.8681L50.8162 20.0312ZM50.7297 17.0665H48.9478C48.7748 17.0665 48.5787 17.0841 48.3596 17.1194C48.1404 17.1547 47.9501 17.2194 47.7887 17.3135C47.6272 17.4077 47.4888 17.5312 47.3735 17.6841C47.2697 17.837 47.2178 18.0253 47.2178 18.2488C47.2178 18.437 47.2524 18.6017 47.3216 18.7429C47.4023 18.8841 47.5003 19.0017 47.6157 19.0959C47.7425 19.19 47.8925 19.2664 48.0655 19.3253C48.2385 19.3723 48.4115 19.3959 48.5845 19.3959C48.9189 19.4076 49.2303 19.3488 49.5187 19.2194C49.8185 19.09 50.078 18.9077 50.2972 18.6723C50.4356 18.4841 50.5394 18.2724 50.6086 18.037C50.6893 17.79 50.7297 17.4664 50.7297 17.0665ZM57.4636 13.1312C57.8212 12.6841 58.2652 12.337 58.7957 12.09C59.3378 11.8312 59.8799 11.6958 60.422 11.6841C61.0679 11.6724 61.6676 11.79 62.2212 12.037C62.7748 12.2724 63.2362 12.6723 63.6052 13.237C63.9051 13.6488 64.1242 14.1311 64.2626 14.6841C64.401 15.2371 64.4702 15.8194 64.4702 16.4312C64.4702 17.1959 64.378 17.89 64.1934 18.5135C64.0204 19.1252 63.7206 19.6547 63.2938 20.1017C62.9363 20.5017 62.498 20.8076 61.979 21.0194C61.46 21.2194 60.941 21.3194 60.422 21.3194C60.1682 21.3194 59.9145 21.3017 59.6608 21.2665C59.407 21.2429 59.1533 21.19 58.8995 21.1076C58.6458 21.0253 58.3921 20.9076 58.1383 20.7547C57.8961 20.6018 57.6655 20.3958 57.4463 20.137V25.0606H55.007V11.8782H57.3252L57.4636 13.1312ZM59.7473 13.9076C59.3897 13.9076 59.0668 13.9782 58.7784 14.1194C58.5016 14.2488 58.2652 14.4311 58.0691 14.6665C57.8731 14.9018 57.7174 15.1723 57.602 15.4782C57.4982 15.7841 57.4463 16.1135 57.4463 16.4665C57.4348 17.2547 57.6366 17.89 58.0518 18.3723C58.4786 18.8429 59.0552 19.09 59.7819 19.1135C60.174 19.1135 60.5085 19.0488 60.7853 18.9194C61.0621 18.79 61.287 18.6077 61.46 18.3723C61.6446 18.137 61.783 17.8606 61.8752 17.5429C61.979 17.2253 62.0309 16.8782 62.0309 16.5017C62.0309 16.1371 61.979 15.7959 61.8752 15.4782C61.783 15.1606 61.6388 14.8841 61.4427 14.6488C61.2582 14.4135 61.0275 14.2312 60.7507 14.1017C60.4739 13.9723 60.1394 13.9076 59.7473 13.9076ZM67.3886 7.55469C67.8384 7.55469 68.2017 7.68998 68.4785 7.96057C68.7553 8.23116 68.8937 8.58998 68.8937 9.03704C68.8937 9.5076 68.7553 9.87819 68.4785 10.1488C68.2017 10.4076 67.8384 10.537 67.3886 10.537C66.9504 10.537 66.5871 10.4076 66.2987 10.1488C66.0219 9.87819 65.8835 9.5076 65.8835 9.03704C65.8835 8.58998 66.0219 8.23116 66.2987 7.96057C66.5871 7.68998 66.9504 7.55469 67.3886 7.55469ZM68.6169 21.1782H66.1776V11.8782H68.6169V21.1782ZM74.0415 13.6782C73.8685 13.6782 73.7013 13.69 73.5398 13.7135C73.3899 13.7371 73.2515 13.7782 73.1246 13.837C72.9978 13.8841 72.894 13.9665 72.8132 14.0841C72.7325 14.19 72.6979 14.3312 72.7094 14.5076C72.721 14.7077 72.7959 14.8665 72.9343 14.9841C73.0843 15.1017 73.2919 15.1959 73.5571 15.2665C73.8109 15.337 74.0934 15.4076 74.4048 15.4782C74.7162 15.5371 75.0219 15.6017 75.3217 15.6723C75.6216 15.7429 75.9157 15.8252 76.204 15.9194C76.4924 16.0135 76.7461 16.1312 76.9652 16.2723C77.2651 16.4605 77.5131 16.7252 77.7091 17.0665C77.9052 17.4077 77.9975 17.8253 77.9859 18.3194C77.9859 18.8018 77.9052 19.2194 77.7437 19.5723C77.5938 19.9135 77.3862 20.2076 77.1209 20.4547C76.7865 20.7606 76.3655 20.9841 75.858 21.1253C75.3506 21.2547 74.8373 21.3194 74.3183 21.3194C73.7186 21.3194 73.165 21.2547 72.6575 21.1253C72.1616 20.9958 71.706 20.7664 71.2908 20.437C70.991 20.19 70.7372 19.89 70.5296 19.537C70.3335 19.1724 70.2182 18.737 70.1836 18.2312H72.6402C72.7094 18.6311 72.8997 18.9077 73.2111 19.0606C73.5341 19.2135 73.9147 19.29 74.3529 19.29C74.4798 19.29 74.6124 19.2841 74.7508 19.2723C74.9008 19.2488 75.0334 19.2135 75.1487 19.1665C75.2756 19.1076 75.3794 19.0253 75.4601 18.9194C75.5524 18.8018 75.5985 18.6782 75.5985 18.5488C75.6101 18.2429 75.5063 18.0253 75.2871 17.8959C75.0795 17.7664 74.8546 17.6782 74.6124 17.6312C74.3702 17.5723 74.1107 17.5135 73.8339 17.4547C73.5571 17.3958 73.2803 17.3371 73.0035 17.2782C72.7383 17.2194 72.473 17.1488 72.2077 17.0665C71.9425 16.9723 71.7003 16.8488 71.4811 16.6959C71.1467 16.4841 70.8641 16.2017 70.6334 15.8488C70.4142 15.4959 70.322 15.0311 70.3566 14.4547C70.3797 13.9488 70.5008 13.5194 70.7199 13.1665C70.9506 12.8018 71.2332 12.5135 71.5676 12.3017C71.9136 12.0782 72.3 11.9194 72.7267 11.8253C73.165 11.7311 73.609 11.6841 74.0588 11.6841C74.5548 11.6841 75.0219 11.737 75.4601 11.8429C75.8984 11.9488 76.279 12.1194 76.6019 12.3547C76.9364 12.59 77.2017 12.8958 77.3977 13.2723C77.6053 13.6488 77.7207 14.1077 77.7437 14.6488H75.3909C75.3448 14.2606 75.1949 14.0018 74.9411 13.8723C74.6989 13.7429 74.3991 13.6782 74.0415 13.6782ZM85.3879 22.6253C85.6186 22.2606 85.7512 21.8605 85.7858 21.4253C85.8204 20.99 85.8378 20.5606 85.8378 20.137C85.5033 20.5723 85.0938 20.8782 84.6094 21.0547C84.125 21.2312 83.6002 21.3194 83.0351 21.3194C82.3777 21.3194 81.8068 21.2194 81.3224 21.0194C80.8495 20.8194 80.4747 20.5135 80.1979 20.1017C79.9211 19.7252 79.7308 19.2841 79.627 18.7782C79.5232 18.2605 79.4713 17.7017 79.4713 17.1017V11.8782H81.9106V16.8017C81.9106 17.1194 81.9337 17.4311 81.9798 17.737C82.0375 18.0311 82.1528 18.2782 82.3258 18.4782C82.6026 18.9017 83.1043 19.1135 83.8309 19.1135C84.1769 19.1135 84.4998 19.0429 84.7997 18.9017C85.0996 18.7488 85.336 18.5135 85.509 18.1959C85.659 17.9252 85.7512 17.6429 85.7858 17.3488C85.8204 17.0429 85.8378 16.7135 85.8378 16.3606V11.8782H88.2945V19.5194C88.2945 19.9429 88.2885 20.3782 88.2772 20.8253C88.2772 21.2605 88.2426 21.69 88.1734 22.1135C88.1155 22.537 88.0056 22.9488 87.8447 23.3488C87.683 23.7488 87.4581 24.1194 87.17 24.4606C86.7662 24.9311 86.2357 25.3076 85.5782 25.59C84.9323 25.8723 84.1538 26.0076 83.2427 25.9959C82.5738 26.0076 81.9106 25.9135 81.2532 25.7135C80.5958 25.5253 79.9903 25.2488 79.4367 24.8841L80.2152 22.7665C80.5151 22.99 80.913 23.1959 81.4089 23.3841C81.9164 23.5723 82.5103 23.6665 83.1908 23.6665C83.7444 23.6665 84.1942 23.5723 84.5402 23.3841C84.8978 23.2076 85.1803 22.9547 85.3879 22.6253Z" fill="#1C1E30"/>
</g>
<defs>
<clipPath id="clip0_7874_20323">
<rect width="94.2857" height="30" fill="white" transform="translate(0.285156)"/>
</clipPath>
</defs>
</svg>
