<svg width="115" height="30" viewBox="0 0 115 30" fill="none" xmlns="http://www.w3.org/2000/svg">
<g clip-path="url(#clip0_7874_20314)">
<path d="M6.35706 6.06883L18.5844 18.6694L14.0105 23.6456L2.34746 11.0575L5.16368 6.06883H6.35706ZM26.8231 10.8186L23.2565 5.13338C23.1463 4.95702 22.9575 4.85156 22.7516 4.85156H13.9628C13.6326 4.85156 13.3643 5.12469 13.3643 5.4602C13.3643 5.79571 13.6326 6.06883 13.9628 6.06883H22.4236L25.5642 11.0751L19.4024 17.7791L7.03382 5.03313C6.92175 4.91743 6.77207 4.85272 6.61215 4.85156C6.59448 4.85195 6.57701 4.85543 6.55934 4.85717C6.54111 4.85543 6.52326 4.85156 6.50427 4.85156H4.81704C4.60317 4.85156 4.40411 4.96881 4.29812 5.15732L1.08798 10.8428C0.955968 11.0767 0.98921 11.3662 1.17136 11.5634L13.5768 24.9531C13.6866 25.071 13.8401 25.1402 13.9994 25.1437C14.0143 25.1451 14.0287 25.1457 14.0429 25.1457C14.1904 25.1457 14.3328 25.0778 14.4494 24.9507L26.7559 11.5614C26.9422 11.3582 26.9698 11.0528 26.8231 10.8186Z" fill="#1C1E30" stroke="#1C1E30" stroke-width="2"/>
<path d="M40.3642 22.0595H35.3672V7.86954H40.2312C44.3352 7.86954 47.1662 10.7619 47.1662 14.9937C47.1662 19.1672 44.3922 22.0595 40.3642 22.0595ZM40.0032 10.1601H37.7992V19.769H40.1362C42.9102 19.769 44.6012 17.9442 44.6012 14.9937C44.6012 11.9848 42.8722 10.1601 40.0032 10.1601ZM50.2487 10.5484C49.4507 10.5484 48.8237 9.90778 48.8237 9.11189C48.8237 8.31601 49.4507 7.69483 50.2487 7.69483C51.0087 7.69483 51.6357 8.31601 51.6357 9.11189C51.6357 9.90778 51.0087 10.5484 50.2487 10.5484ZM49.0897 22.0595V12.4701H51.4077V22.0595H49.0897ZM56.5955 22.3119C54.6005 22.3119 53.3845 21.1278 53.3845 19.3225C53.3845 17.556 54.6385 16.4495 56.8615 16.2748L59.6735 16.0613V15.8478C59.6735 14.5472 58.9135 14.0231 57.7355 14.0231C56.3675 14.0231 55.6075 14.6054 55.6075 15.6148H53.6315C53.6315 13.5378 55.3035 12.179 57.8495 12.179C60.3765 12.179 61.9345 13.5766 61.9345 16.236V22.0595H59.9015L59.7305 20.6425C59.3315 21.6325 58.0585 22.3119 56.5955 22.3119ZM57.3555 20.526C58.7805 20.526 59.6925 19.6525 59.6925 18.1772V17.6725L57.7355 17.8278C56.2915 17.9637 55.7405 18.449 55.7405 19.2254C55.7405 20.099 56.3105 20.526 57.3555 20.526ZM66.5297 22.0595H64.2117V12.4701H66.3397L66.5297 13.596C67.0047 12.8001 67.9547 12.179 69.3037 12.179C70.7287 12.179 71.7167 12.8972 72.2107 14.0037C72.6857 12.8972 73.7877 12.179 75.2127 12.179C77.4927 12.179 78.7467 13.5766 78.7467 15.7895V22.0595H76.4477V16.4107C76.4477 15.0325 75.7257 14.3142 74.6237 14.3142C73.5027 14.3142 72.6477 15.0519 72.6477 16.6242V22.0595H70.3297V16.3913C70.3297 15.0519 69.6267 14.3337 68.5247 14.3337C67.4227 14.3337 66.5297 15.0713 66.5297 16.6242V22.0595ZM80.4713 17.2454C80.4713 14.256 82.5803 12.1984 85.4873 12.1984C88.3945 12.1984 90.5034 14.256 90.5034 17.2454C90.5034 20.2348 88.3945 22.2925 85.4873 22.2925C82.5803 22.2925 80.4713 20.2348 80.4713 17.2454ZM82.7893 17.2454C82.7893 18.9925 83.8913 20.1766 85.4873 20.1766C87.0835 20.1766 88.1855 18.9925 88.1855 17.2454C88.1855 15.4984 87.0835 14.3142 85.4873 14.3142C83.8913 14.3142 82.7893 15.4984 82.7893 17.2454ZM94.6584 22.0595H92.3404V12.4701H94.4874L94.6774 13.7125C95.2664 12.7419 96.4064 12.179 97.6794 12.179C100.035 12.179 101.251 13.6737 101.251 16.1584V22.0595H98.9334V16.7213C98.9334 15.1101 98.1544 14.3337 96.9574 14.3337C95.5324 14.3337 94.6584 15.3431 94.6584 16.896V22.0595ZM107.386 22.3119C104.669 22.3119 102.978 20.2737 102.978 17.3037C102.978 14.3142 104.688 12.179 107.519 12.179C108.83 12.179 109.989 12.7419 110.578 13.6931V7.61719H112.877V22.0595H110.749L110.597 20.5648C110.027 21.6713 108.811 22.3119 107.386 22.3119ZM107.899 20.1378C109.514 20.1378 110.559 18.9537 110.559 17.226C110.559 15.4984 109.514 14.2948 107.899 14.2948C106.284 14.2948 105.296 15.5178 105.296 17.226C105.296 18.9342 106.284 20.1378 107.899 20.1378Z" fill="#1C1E30"/>
</g>
<defs>
<clipPath id="clip0_7874_20314">
<rect width="114" height="30" fill="white" transform="translate(0.144531)"/>
</clipPath>
</defs>
</svg>
