<svg xmlns:xlink="http://www.w3.org/1999/xlink" width="14" height="18" viewBox="0 0 14 18" fill="none" xmlns="http://www.w3.org/2000/svg">
<path opacity="1" d="M7.31487 0C3.63563 0 0 2.44174 0 6.39363C0 8.90676 1.41995 10.3347 2.28052 10.3347C2.63565 10.3347 2.83989 9.34942 2.83989 9.07126C2.83989 8.73941 1.99022 8.03231 1.99022 6.65066C1.99022 3.78055 4.18468 1.74548 7.02457 1.74548C9.4663 1.74548 11.2735 3.12713 11.2735 5.6654C11.2735 7.5611 10.5099 11.1166 8.03546 11.1166C7.14276 11.1166 6.37857 10.474 6.37857 9.55332C6.37857 8.20366 7.3252 6.8974 7.3252 5.5049C7.3252 3.14198 3.95806 3.57036 3.95806 6.42619C3.95806 7.02591 4.03322 7.68961 4.30229 8.23622C3.80718 10.357 2.79629 13.5161 2.79629 15.7008C2.79629 16.3753 2.89325 17.0396 2.9575 17.7141C3.07913 17.8501 3.01832 17.8358 3.20477 17.7678C5.01198 15.3044 4.94772 14.8229 5.76527 11.5992C6.20645 12.4349 7.34643 12.8844 8.25003 12.8844C12.0578 12.8844 13.7686 9.18949 13.7686 5.85902C13.7686 2.31436 10.6918 0.00114233 7.3143 0.00114233L7.31487 0Z" fill="#FFFFFF"></path>
</svg>