<svg xmlns:xlink="http://www.w3.org/1999/xlink" width="17" height="17" viewBox="0 0 16 16" fill="none" xmlns="http://www.w3.org/2000/svg">
<path opacity="1" d="M7.63431 3.7181C5.46607 3.7181 3.71619 5.46798 3.71619 7.63622C3.71619 9.80446 5.46607 11.5543 7.63431 11.5543C9.80256 11.5543 11.5524 9.80446 11.5524 7.63622C11.5524 5.46798 9.80256 3.7181 7.63431 3.7181ZM7.63431 10.1827C6.23212 10.1827 5.08782 9.03842 5.08782 7.63622C5.08782 6.23403 6.23212 5.08973 7.63431 5.08973C9.03651 5.08973 10.1808 6.23403 10.1808 7.63622C10.1808 9.03842 9.03651 10.1827 7.63431 10.1827ZM11.7129 2.64449C11.2067 2.64449 10.7978 3.0533 10.7978 3.55954C10.7978 4.06578 11.2067 4.4746 11.7129 4.4746C12.2191 4.4746 12.628 4.0677 12.628 3.55954C12.6281 3.43933 12.6045 3.32028 12.5586 3.20919C12.5127 3.0981 12.4453 2.99717 12.3603 2.91216C12.2753 2.82716 12.1743 2.75977 12.0633 2.71383C11.9522 2.6679 11.8331 2.64434 11.7129 2.64449ZM15.2719 7.63622C15.2719 6.58171 15.2814 5.53675 15.2222 4.48415C15.163 3.26153 14.8841 2.17645 13.99 1.28241C13.0941 0.386458 12.0109 0.109458 10.7883 0.0502372C9.73378 -0.00898354 8.68882 0.000568221 7.63622 0.000568221C6.58171 0.000568221 5.53675 -0.00898354 4.48415 0.0502372C3.26153 0.109458 2.17645 0.388368 1.28241 1.28241C0.386458 2.17836 0.109458 3.26153 0.0502372 4.48415C-0.00898354 5.53866 0.000568221 6.58362 0.000568221 7.63622C0.000568221 8.68882 -0.00898354 9.73569 0.0502372 10.7883C0.109458 12.0109 0.388369 13.096 1.28241 13.99C2.17836 14.886 3.26153 15.163 4.48415 15.2222C5.53866 15.2814 6.58362 15.2719 7.63622 15.2719C8.69073 15.2719 9.73569 15.2814 10.7883 15.2222C12.0109 15.163 13.096 14.8841 13.99 13.99C14.886 13.0941 15.163 12.0109 15.2222 10.7883C15.2833 9.73569 15.2719 8.69073 15.2719 7.63622ZM13.5908 12.1408C13.4513 12.4885 13.2832 12.7483 13.0138 13.0158C12.7445 13.2851 12.4866 13.4532 12.1389 13.5927C11.1341 13.9919 8.74804 13.9022 7.63431 13.9022C6.52058 13.9022 4.13265 13.9919 3.12781 13.5946C2.78012 13.4551 2.52032 13.287 2.25287 13.0177C1.98351 12.7483 1.8154 12.4904 1.67594 12.1427C1.27859 11.136 1.36838 8.74995 1.36838 7.63622C1.36838 6.52249 1.27859 4.13456 1.67594 3.12972C1.8154 2.78203 1.98351 2.52223 2.25287 2.25478C2.52223 1.98733 2.78012 1.81731 3.12781 1.67785C4.13265 1.2805 6.52058 1.37029 7.63431 1.37029C8.74804 1.37029 11.136 1.2805 12.1408 1.67785C12.4885 1.81731 12.7483 1.98542 13.0158 2.25478C13.2851 2.52414 13.4532 2.78203 13.5927 3.12972C13.99 4.13456 13.9002 6.52249 13.9002 7.63622C13.9002 8.74995 13.99 11.136 13.5908 12.1408Z" fill="#FFFFFF"></path>
</svg>