<svg xmlns:xlink="http://www.w3.org/1999/xlink" width="17" height="17" viewBox="0 0 16 13" fill="none" xmlns="http://www.w3.org/2000/svg">
<path opacity="1" d="M15.2727 1.47387C14.7111 1.71615 14.0999 1.89052 13.4703 1.95843C14.1239 1.57011 14.6134 0.95664 14.8469 0.233109C14.2336 0.597975 13.5616 0.853826 12.861 0.989312C12.5681 0.676234 12.2139 0.426821 11.8204 0.256616C11.427 0.0864112 11.0027 -0.00093935 10.574 7.61783e-06C8.8395 7.61783e-06 7.44456 1.40596 7.44456 3.13128C7.44456 3.37355 7.47393 3.61583 7.52165 3.84893C4.9245 3.71311 2.60817 2.47235 1.06823 0.572666C0.787635 1.05193 0.640595 1.59763 0.642405 2.15298C0.642405 3.23957 1.19487 4.19767 2.03734 4.76115C1.54086 4.7416 1.05601 4.60513 0.622216 4.36286V4.4014C0.622216 5.92299 1.69779 7.18394 3.13127 7.47394C2.86212 7.54385 2.58524 7.57961 2.30715 7.58039C2.10342 7.58039 1.9107 7.5602 1.71614 7.53267C2.1126 8.77343 3.26709 9.67463 4.64184 9.704C3.56627 10.5465 2.21905 11.042 0.756203 11.042C0.493735 11.042 0.251456 11.0329 0 11.0035C1.3876 11.8937 3.03399 12.4076 4.80703 12.4076C10.563 12.4076 13.7126 7.63913 13.7126 3.5002C13.7126 3.36438 13.7126 3.22855 13.7034 3.09273C14.3128 2.64672 14.8469 2.09425 15.2727 1.47387Z" fill="#FFFFFF"></path>
</svg>