<svg xmlns:xlink="http://www.w3.org/1999/xlink" width="25" height="25" viewBox="0 0 25 25" fill="none" xmlns="http://www.w3.org/2000/svg">
<g clip-path="url(#clip0_9_213)" fill="none">
<path d="M12.8147 1.02832C19.166 1.02832 24.3147 6.17705 24.3147 12.5283C24.3147 12.8652 24.3002 13.1987 24.2718 13.5283H22.7653C22.2636 18.5816 18 22.5283 12.8147 22.5283C7.29185 22.5283 2.8147 18.0511 2.8147 12.5283C2.8147 7.34297 6.76138 3.07942 11.8147 2.5777V1.0712C12.1443 1.04281 12.4778 1.02832 12.8147 1.02832ZM11.8147 4.59021C7.86839 5.08231 4.8147 8.4487 4.8147 12.5283C4.8147 16.9466 8.39642 20.5283 12.8147 20.5283C16.8943 20.5283 20.2607 17.4746 20.7528 13.5283H11.8147V4.59021ZM13.8147 3.08032V11.5283H22.2627C21.7974 7.08029 18.2627 3.54564 13.8147 3.08032Z" fill="#1C1E30"></path>
</g>
<defs>
<clipPath id="clip0_9_213">
<rect width="24" height="24" fill="white" transform="translate(0.814697 0.52832)"></rect>
</clipPath>
</defs>
</svg>