<svg xmlns:xlink="http://www.w3.org/1999/xlink" width="25" height="25" viewBox="0 0 25 25" fill="none" xmlns="http://www.w3.org/2000/svg">
<path d="M12.8147 2.52832C16.6807 2.52832 19.8147 5.66233 19.8147 9.52832C19.8147 9.64183 19.812 9.75471 19.8067 9.86689C22.1412 10.6883 23.8147 12.9129 23.8147 15.5283C23.8147 18.842 21.1284 21.5283 17.8147 21.5283H7.8147C4.50099 21.5283 1.8147 18.842 1.8147 15.5283C1.8147 12.9129 3.48816 10.6883 5.82274 9.86689C5.8174 9.75471 5.8147 9.64183 5.8147 9.52832C5.8147 5.66233 8.94871 2.52832 12.8147 2.52832ZM12.8147 4.52832C10.0533 4.52832 7.8147 6.7669 7.8147 9.52832C7.8147 9.60979 7.81663 9.69095 7.82048 9.77176L7.89132 11.2592L6.48653 11.7535C4.8991 12.312 3.8147 13.8172 3.8147 15.5283C3.8147 17.7374 5.60556 19.5283 7.8147 19.5283H17.8147C20.0238 19.5283 21.8147 17.7374 21.8147 15.5283C21.8147 13.3183 20.0247 11.5283 17.8147 11.5283C16.0477 11.5283 14.5484 12.674 14.0189 14.263L12.1211 13.6304C12.9152 11.2468 15.1647 9.52832 17.8147 9.52832C17.8147 6.7669 15.5761 4.52832 12.8147 4.52832Z" fill="#1C1E30"></path>
</svg>