<svg width="18" height="18" viewBox="0 0 18 18" fill="none" xmlns="http://www.w3.org/2000/svg">
<path fill-rule="evenodd" clip-rule="evenodd" d="M5.25 0.75H16.5C16.6989 0.75 16.8897 0.829018 17.0303 0.96967C17.171 1.11032 17.25 1.30109 17.25 1.5V12.75C17.25 12.9489 17.171 13.1397 17.0303 13.2803C16.8897 13.421 16.6989 13.5 16.5 13.5C16.3011 13.5 16.1103 13.421 15.9697 13.2803C15.829 13.1397 15.75 12.9489 15.75 12.75V3.31L2.03 17.03C1.88782 17.1625 1.69978 17.2346 1.50548 17.2312C1.31118 17.2277 1.12579 17.149 0.988377 17.0116C0.850964 16.8742 0.772252 16.6888 0.768824 16.4945C0.765396 16.3002 0.837519 16.1122 0.969999 15.97L14.69 2.25H5.25C5.05109 2.25 4.86032 2.17098 4.71967 2.03033C4.57902 1.88968 4.5 1.69891 4.5 1.5C4.5 1.30109 4.57902 1.11032 4.71967 0.96967C4.86032 0.829018 5.05109 0.75 5.25 0.75Z" fill="#079211"/>
</svg>
