<svg width="51" height="34" viewBox="0 0 51 34" fill="none" xmlns="http://www.w3.org/2000/svg">
<path d="M0.0712891 26.2722C4.28819 25.5221 8.42944 24.6963 12.5959 24.0723C18.8677 23.1394 24.7108 20.8387 30.6485 18.7839C34.0081 17.624 37.5191 16.7227 41.0363 16.2751C43.5324 15.9537 46.1672 16.4768 48.7074 16.8298C50.3148 17.0567 50.34 17.3152 50.0059 19.1179C44.5851 17.5925 39.1895 17.8636 33.8254 19.4646C39.2462 18.5695 44.6481 18.0275 49.9492 20.2525C49.2243 23.7004 47.4972 26.3982 44.8876 28.5161C41.2002 31.5039 36.977 33.3192 32.2432 33.5777C26.148 33.9117 21.6474 31.0122 18.3823 26.0389C17.9033 25.3078 17.4179 25.0367 16.5733 25.0745C13.2325 25.2132 10.0494 25.9444 6.97336 27.2555C5.59294 27.848 4.16211 28.3838 2.69975 28.7052C0.884402 29.1275 0.0838956 28.3207 0.0712891 26.2722Z" fill="#F54748"/>
<path d="M22.4733 20.3155C21.9312 18.601 21.5089 16.2184 22.7128 14.34C23.1477 13.6592 23.5133 13.4827 23.9104 12.9091C24.6857 11.7745 25.1522 9.68814 23.4314 5.50276C24.0239 5.92508 24.8055 6.60583 25.3413 7.65218C25.9527 8.8435 25.8708 9.76377 26.0599 10.7597C26.2805 11.9384 26.9423 13.5395 28.9278 15.2981C28.7198 14.6551 28.4992 13.7601 28.4488 12.6696C28.4047 11.598 28.537 10.6904 28.6883 10.0411C28.9152 10.703 29.2808 11.5476 29.886 12.4301C30.2894 13.0163 30.7054 13.489 31.0836 13.8609C30.5604 13.0919 29.867 11.8817 29.4132 10.2743C29.0665 9.04521 28.6883 6.99033 29.1737 4.53835C29.5897 2.43936 30.4721 0.895067 31.0836 0C31.0394 0.769001 31.0583 2.23766 31.8021 3.81979C32.943 6.25916 35.0231 7.33702 35.6219 7.63958C37.1221 8.39597 37.431 7.98626 40.3998 8.8372C42.7194 9.49905 43.8792 9.83312 44.9382 10.7471C45.5433 11.264 46.9489 12.6885 47.3271 15.7645C45.9656 15.5376 44.1251 15.3359 41.9505 15.4052C39.5174 15.4809 37.6894 15.8591 36.454 16.1238C34.563 16.5272 33.0439 17.0315 30.0057 18.0337C28.2408 18.6199 26.9801 19.08 24.7488 19.7041C23.797 19.9814 23.0091 20.1831 22.4733 20.3155Z" fill="#FDC55E"/>
<path d="M37.3932 15.6891C37.4247 15.79 38.8114 15.2353 40.7402 14.9706C43.0346 14.6554 45.0201 14.8949 46.4762 15.2101C46.4888 14.1637 46.1926 13.4389 45.9972 13.0607C45.4866 12.0584 44.6987 11.5037 43.8477 10.9112C43.1859 10.4448 42.5871 10.1422 42.1774 9.95312C42.7321 10.3881 43.4191 11.0121 44.0872 11.863C44.7806 12.7455 45.2281 13.5901 45.5181 14.252C44.5537 14.1007 43.1291 13.9809 41.4588 14.252C39.1959 14.6302 37.3553 15.5757 37.3932 15.6891Z" fill="white"/>
</svg>
