<svg width="179" height="41" viewBox="0 0 179 41" fill="none" xmlns="http://www.w3.org/2000/svg">
<circle cx="20" cy="20" r="18.5" transform="matrix(-1 0 0 1 40 0.5)" stroke="#EAFF62" stroke-width="3"/>
<circle cx="15" cy="15" r="13.5" transform="matrix(-1 0 0 1 35 10.5)" stroke="#EAFF62" stroke-width="3"/>
<circle cx="10" cy="10" r="8.5" transform="matrix(-1 0 0 1 25 16)" stroke="#EAFF62" stroke-width="3"/>
<path d="M77.44 21.02C77.44 29.82 71.68 35.98 63.48 35.98C55.32 35.98 49.64 29.82 49.64 21.02C49.64 12.26 55.36 6.06 63.52 6.06C71.72 6.06 77.44 12.22 77.44 21.02ZM73.32 21.02C73.32 14.3 69.4 9.86 63.52 9.86C57.64 9.86 53.76 14.3 53.76 21.02C53.76 27.74 57.64 32.22 63.52 32.22C69.4 32.22 73.32 27.7 73.32 21.02ZM85.2138 35.5H81.8138V6.06H85.5738V19.3C86.8538 16.74 89.4938 15.38 92.6938 15.38C98.2938 15.38 101.654 19.78 101.654 25.82C101.654 31.74 98.1338 35.98 92.4538 35.98C89.3737 35.98 86.7738 34.62 85.4938 31.94L85.2138 35.5ZM85.6138 25.66C85.6138 29.74 87.9338 32.58 91.7738 32.58C95.6138 32.58 97.8938 29.7 97.8938 25.66C97.8938 21.66 95.6138 18.78 91.7738 18.78C87.9338 18.78 85.6138 21.66 85.6138 25.66ZM111.518 35.98C107.318 35.98 104.838 33.62 104.838 30.06C104.838 26.46 107.518 24.22 112.118 23.86L118.278 23.38V22.82C118.278 19.54 116.318 18.38 113.678 18.38C110.518 18.38 108.718 19.78 108.718 22.14H105.438C105.438 18.06 108.798 15.38 113.838 15.38C118.678 15.38 121.958 17.94 121.958 23.22V35.5H118.758L118.358 32.34C117.358 34.58 114.678 35.98 111.518 35.98ZM112.598 33.06C116.158 33.06 118.318 30.74 118.318 27.06V26.02L113.318 26.42C109.998 26.74 108.638 28.02 108.638 29.94C108.638 32.02 110.158 33.06 112.598 33.06ZM130.925 35.5H127.165V15.94H130.565L130.965 18.94C132.205 16.7 134.685 15.38 137.445 15.38C142.605 15.38 144.965 18.54 144.965 23.54V35.5H141.205V24.38C141.205 20.42 139.365 18.82 136.485 18.82C132.965 18.82 130.925 21.34 130.925 25.14V35.5ZM155.893 35.98C151.693 35.98 149.213 33.62 149.213 30.06C149.213 26.46 151.893 24.22 156.493 23.86L162.653 23.38V22.82C162.653 19.54 160.693 18.38 158.053 18.38C154.893 18.38 153.093 19.78 153.093 22.14H149.813C149.813 18.06 153.173 15.38 158.213 15.38C163.053 15.38 166.333 17.94 166.333 23.22V35.5H163.133L162.733 32.34C161.733 34.58 159.053 35.98 155.893 35.98ZM156.973 33.06C160.533 33.06 162.693 30.74 162.693 27.06V26.02L157.693 26.42C154.373 26.74 153.013 28.02 153.013 29.94C153.013 32.02 154.533 33.06 156.973 33.06ZM173.38 11.3C172.02 11.3 170.9 10.18 170.9 8.82C170.9 7.42 172.02 6.34 173.38 6.34C174.74 6.34 175.86 7.42 175.86 8.82C175.86 10.18 174.74 11.3 173.38 11.3ZM171.54 35.5V15.94H175.3V35.5H171.54Z" fill="white"/>
</svg>
