<svg width="40" height="40" viewBox="0 0 40 40" fill="none" xmlns="http://www.w3.org/2000/svg">
<path d="M16.25 5C13.8719 5 11.9594 6.72188 11.4625 8.95938C8.53438 9.475 6.25 11.9313 6.25 15C6.25 15.3156 6.30938 15.5906 6.35625 15.875C5.55312 17.0594 5 18.4469 5 20C5 22.2438 6.11562 24.1438 7.6875 25.5156C7.57812 25.9531 7.5 26.4031 7.5 26.875C7.5 29.9656 10.0344 32.5 13.125 32.5C13.1594 32.5 13.175 32.4938 13.2094 32.4938C13.9375 33.9 15.1938 35 16.875 35C19.275 35 21.25 33.025 21.25 30.625V26.25H23.75V31.25H28.75V28.75H26.25V23.75H21.25V21.25H28.75V18.75H21.25V16.25H26.25V11.25H28.75V8.75H23.75V13.75H21.25V10C21.25 7.25312 18.9969 5 16.25 5ZM16.25 7.5C17.6469 7.5 18.75 8.60313 18.75 10V12.5C18.75 14.5844 17.0844 16.25 15 16.25V18.75C16.4094 18.75 17.7 18.2594 18.75 17.4625V30.625C18.75 31.675 17.925 32.5 16.875 32.5C15.9406 32.5 15.1938 31.8375 15.0375 30.9594L14.8188 29.7594L13.6125 29.9469C13.3938 29.9813 13.2375 30 13.125 30C11.3844 30 10 28.6156 10 26.875C10 26.4594 10.0812 26.0656 10.2344 25.6969C10.625 24.7375 11.4688 24.0219 12.5 23.8125L12.0031 21.3625C10.7094 21.625 9.57812 22.3344 8.77188 23.3188C7.98125 22.4375 7.5 21.2813 7.5 20C7.5 18.825 7.91875 17.7688 8.6125 16.9L8.99063 16.4281L8.85625 15.8406C8.7875 15.5469 8.75 15.2688 8.75 15C8.75 12.9156 10.4156 11.25 12.5 11.25H13.75V10C13.75 8.60313 14.8531 7.5 16.25 7.5ZM32.5 7.5C31.1188 7.5 30 8.61875 30 10C30 11.3813 31.1188 12.5 32.5 12.5C33.8813 12.5 35 11.3813 35 10C35 8.61875 33.8813 7.5 32.5 7.5ZM32.5 17.5C31.1188 17.5 30 18.6188 30 20C30 21.3813 31.1188 22.5 32.5 22.5C33.8813 22.5 35 21.3813 35 20C35 18.6188 33.8813 17.5 32.5 17.5ZM32.5 27.5C31.1188 27.5 30 28.6188 30 30C30 31.3813 31.1188 32.5 32.5 32.5C33.8813 32.5 35 31.3813 35 30C35 28.6188 33.8813 27.5 32.5 27.5Z" fill="#171718"/>
</svg>
