<svg width="187" height="479" viewBox="0 0 187 479" fill="none" xmlns="http://www.w3.org/2000/svg">
<g clip-path="url(#clip0_529_4281)">
<path d="M377.2 478.6H377.07L289.42 472.41L208.29 454.41L139.66 426L113.51 409.14L56.75 368.8L56.58 368.56L22.92 322.38L9.09 282.77L0 232.5L11.41 191.28L27.47 143.82L66.91 100.31L95 78.94L148.82 45.8L216.88 20.8L294.88 5.24999L377.88 -0.0100098L378 -0.0100098L461.08 5.31999L539.08 20.97L607 46.1L660.19 79L688.77 100.72L727.77 144.01L743.57 191.37L755 232.7L745.6 283.22L731.8 322.78L697.91 369L697.67 369.17L641.06 409.28L614.67 426.34L545.91 454.62L464.74 472.53L377.2 478.6ZM290.08 468.75L377.2 474.87L464.35 468.78L545 451L613.15 422.94L639 406.16L695.3 366.27L728.66 320.8L742.1 282.14L751.25 232.86L740 192.47L724.47 145.92L686.15 103.34L658.15 82.07L605.24 49.36L537.9 24.52L460.47 8.99999L377.88 3.71999L295.26 8.99999L217.74 24.42L150.27 49.22L97.1 82L69.29 103.16L30.74 145.74L15 192.37L3.8 232.67L12.72 282L26.24 320.68L59.4 366.13L115.59 406.13L141.53 422.85L209.53 450.94L290.08 468.75Z" fill="#EAFF62"/>
<path d="M377.19 284.77H377.06L314.22 280.5L255.92 268L206.31 248.29L169.25 223.1C168.843 222.824 168.562 222.398 168.469 221.915C168.377 221.432 168.479 220.932 168.755 220.525C169.031 220.118 169.457 219.837 169.94 219.744C170.423 219.651 170.923 219.754 171.33 220.03L208.23 245.13L257.15 264.52L314.86 276.83L377.19 281.05L439.53 276.86L497.31 264.58L546.31 245.22L583.31 220.14C583.512 220.004 583.738 219.908 583.977 219.859C584.215 219.81 584.461 219.808 584.7 219.854C584.939 219.9 585.167 219.993 585.37 220.127C585.574 220.261 585.749 220.433 585.885 220.635C586.022 220.837 586.117 221.063 586.166 221.302C586.215 221.54 586.217 221.786 586.171 222.025C586.125 222.264 586.032 222.492 585.898 222.695C585.764 222.899 585.592 223.074 585.39 223.21L547.85 248.59L498.21 268.18L439.9 280.55L377.19 284.77Z" fill="#EAFF62"/>
<path d="M201.06 244.35C200.776 244.352 200.495 244.288 200.24 244.163C199.985 244.038 199.762 243.856 199.59 243.63L180.7 219.3C180.434 218.909 180.326 218.431 180.399 217.964C180.473 217.497 180.721 217.075 181.095 216.785C181.468 216.494 181.938 216.357 182.409 216.401C182.88 216.444 183.316 216.666 183.63 217.02L202.52 241.36C202.669 241.552 202.779 241.772 202.844 242.007C202.908 242.242 202.925 242.487 202.895 242.728C202.864 242.97 202.786 243.203 202.665 243.414C202.544 243.626 202.383 243.811 202.19 243.96C201.868 244.213 201.47 244.351 201.06 244.35Z" fill="#EAFF62"/>
<path d="M190.87 231.23C190.694 231.231 190.519 231.207 190.35 231.16C189.879 231.021 189.482 230.701 189.246 230.27C189.01 229.839 188.954 229.332 189.09 228.86L195.16 208.1L182.73 166.74L148.33 131.43L174.57 101.83L212.57 78.0699C212.777 77.9386 213.008 77.8493 213.249 77.8071C213.49 77.765 213.738 77.7707 213.977 77.8241C214.216 77.8775 214.442 77.9775 214.643 78.1183C214.843 78.2592 215.014 78.4381 215.145 78.6449C215.276 78.8518 215.366 79.0824 215.408 79.3238C215.45 79.5651 215.444 79.8124 215.391 80.0515C215.337 80.2906 215.238 80.5169 215.097 80.7174C214.956 80.9178 214.777 81.0886 214.57 81.2199L176.83 104.83L153.46 131.31L186 164.8L199 208.08L192.63 229.9C192.517 230.28 192.285 230.615 191.969 230.854C191.652 231.093 191.267 231.225 190.87 231.23Z" fill="#EAFF62"/>
<path d="M190.87 231.23C190.694 231.231 190.519 231.207 190.35 231.16C189.879 231.021 189.482 230.701 189.246 230.27C189.009 229.839 188.953 229.332 189.09 228.86L195.43 207.18L214.53 185L203.53 142.61L174.28 104.88L131.86 81.0001L181.35 50.3301L213.87 77.5101L263.16 59.2001L280.79 105.48L287.43 152.67L247.54 167.82L218.17 186.61L208.31 223.08C208.177 223.556 207.861 223.96 207.431 224.203C207 224.446 206.491 224.508 206.015 224.375C205.539 224.242 205.135 223.926 204.892 223.496C204.649 223.065 204.587 222.556 204.72 222.08L212.64 192.84L198.77 209L192.66 229.91C192.544 230.294 192.306 230.629 191.984 230.867C191.661 231.105 191.271 231.232 190.87 231.23ZM139.16 80.8601L176.79 102L207 140.9L217.76 182.49L246 164.42L283.3 150.26L277.1 106.2L261 64.0001L213.14 81.8001L181 54.9201L139.16 80.8601Z" fill="#EAFF62"/>
<path d="M58.0802 369.32C57.6891 369.321 57.3075 369.199 56.9898 368.971C56.672 368.743 56.4342 368.421 56.3102 368.05L43.6602 329.9L54.0002 284.42L84.6902 244.42L127.45 220.68L166.54 219.77L146.33 193.64C146.061 193.248 145.951 192.768 146.025 192.298C146.099 191.828 146.35 191.405 146.726 191.114C147.102 190.823 147.576 190.688 148.049 190.735C148.522 190.783 148.959 191.01 149.27 191.37L174 223.34L128.48 224.41L87.2102 247.32L57.4702 286L47.4702 329.68L59.8002 366.84C59.9524 367.308 59.9139 367.818 59.693 368.258C59.4721 368.697 59.0866 369.033 58.6202 369.19C58.4471 369.258 58.2653 369.302 58.0802 369.32Z" fill="#EAFF62"/>
<path d="M182.17 220C181.77 220.002 181.38 219.872 181.06 219.63L146.73 194C146.533 193.854 146.367 193.671 146.241 193.461C146.114 193.251 146.031 193.018 145.995 192.776C145.958 192.533 145.97 192.286 146.03 192.049C146.089 191.811 146.194 191.587 146.34 191.39C146.486 191.193 146.669 191.027 146.879 190.901C147.089 190.774 147.322 190.691 147.564 190.655C147.807 190.618 148.054 190.63 148.292 190.689C148.529 190.749 148.753 190.854 148.95 191L183.28 216.62C183.593 216.854 183.824 217.18 183.941 217.552C184.058 217.925 184.055 218.325 183.932 218.695C183.81 219.066 183.573 219.388 183.257 219.617C182.941 219.846 182.561 219.969 182.17 219.97V220Z" fill="#EAFF62"/>
<path d="M182.17 220C181.746 220.001 181.334 219.857 181.003 219.591C180.672 219.325 180.441 218.955 180.35 218.54L174.61 192.2C174.544 191.957 174.527 191.702 174.562 191.452C174.598 191.202 174.683 190.962 174.814 190.746C174.945 190.53 175.118 190.343 175.324 190.197C175.529 190.05 175.762 189.947 176.009 189.893C176.256 189.839 176.511 189.837 176.758 189.885C177.006 189.933 177.242 190.031 177.45 190.172C177.659 190.314 177.837 190.497 177.972 190.71C178.108 190.923 178.199 191.161 178.24 191.41L184 217.77C184.053 218.008 184.058 218.255 184.015 218.495C183.972 218.736 183.882 218.965 183.75 219.171C183.618 219.376 183.447 219.554 183.246 219.692C183.045 219.831 182.819 219.929 182.58 219.98C182.445 220.003 182.307 220.01 182.17 220Z" fill="#EAFF62"/>
<path d="M187.08 226.34C186.688 226.341 186.305 226.217 185.988 225.987C185.67 225.757 185.433 225.433 185.31 225.06L174.66 192.4C174.542 191.942 174.603 191.456 174.831 191.041C175.059 190.627 175.436 190.314 175.885 190.168C176.335 190.021 176.824 190.052 177.252 190.253C177.68 190.454 178.016 190.81 178.19 191.25L188.84 223.91C188.918 224.142 188.949 224.386 188.931 224.63C188.913 224.874 188.847 225.112 188.736 225.329C188.625 225.547 188.472 225.741 188.286 225.899C188.099 226.057 187.883 226.176 187.65 226.25C187.467 226.314 187.274 226.344 187.08 226.34Z" fill="#EAFF62"/>
<path d="M176.43 193.68C176.244 193.677 176.059 193.65 175.88 193.6C175.41 193.455 175.016 193.129 174.786 192.694C174.555 192.259 174.507 191.751 174.65 191.28L182.72 164.85L204.28 140.17L236.89 119.56L278.58 103.92L326.58 94.1601L375.9 91.0001V48.4901L316.74 52.2701L305.19 19.8901L239.94 32.8901L181.37 54.5501L149.16 49.3801C148.912 49.3501 148.672 49.2702 148.455 49.1452C148.238 49.0202 148.048 48.8527 147.897 48.6527C147.747 48.4527 147.638 48.2243 147.578 47.9813C147.517 47.7382 147.507 47.4855 147.547 47.2383C147.586 46.991 147.676 46.7543 147.809 46.5424C147.942 46.3305 148.117 46.1477 148.323 46.005C148.529 45.8623 148.761 45.7627 149.007 45.712C149.252 45.6613 149.505 45.6607 149.75 45.7101L181 50.7101L239.07 29.3101L307.61 15.6001L319.32 48.3401L379.63 44.4801V94.4801L327 97.8501L279.5 107.53L238.38 123L206.5 143.16L186 166.68L178.16 192.36C178.047 192.734 177.819 193.063 177.508 193.299C177.198 193.536 176.821 193.67 176.43 193.68Z" fill="#EAFF62"/>
<path d="M176.43 193.68C175.986 193.68 175.556 193.52 175.22 193.23L140.1 163.17C139.902 163.015 139.737 162.822 139.616 162.602C139.494 162.381 139.419 162.139 139.394 161.888C139.369 161.638 139.395 161.385 139.471 161.146C139.546 160.906 139.669 160.684 139.833 160.493C139.997 160.302 140.198 160.146 140.423 160.035C140.649 159.924 140.895 159.86 141.146 159.847C141.397 159.833 141.649 159.871 141.885 159.958C142.121 160.044 142.337 160.178 142.52 160.35L177.63 190.41C177.917 190.657 178.122 190.986 178.217 191.352C178.312 191.719 178.294 192.105 178.163 192.461C178.033 192.816 177.797 193.124 177.487 193.341C177.177 193.559 176.809 193.677 176.43 193.68Z" fill="#EAFF62"/>
<path d="M150.18 194.65L101.09 189.48C100.627 189.397 100.212 189.142 99.9297 188.766C99.6471 188.39 99.5175 187.921 99.5669 187.453C99.6164 186.986 99.8412 186.554 100.196 186.245C100.551 185.937 101.01 185.774 101.48 185.79L145.48 190.42L139.48 162.14C139.409 161.895 139.39 161.637 139.424 161.384C139.457 161.131 139.542 160.888 139.673 160.669C139.805 160.45 139.98 160.261 140.188 160.112C140.396 159.964 140.632 159.86 140.882 159.807C141.132 159.754 141.389 159.753 141.64 159.804C141.89 159.855 142.127 159.957 142.336 160.104C142.545 160.251 142.721 160.439 142.855 160.656C142.988 160.874 143.075 161.117 143.11 161.37L150.18 194.65Z" fill="#EAFF62"/>
<path d="M104.14 373.07H103.8C103.317 372.98 102.888 372.702 102.609 372.298C102.33 371.893 102.222 371.394 102.31 370.91L110.8 324.38L110.96 324.1L136.19 280.42L136.45 280.2L169.32 253.13L126.7 223.92L99.8101 188.76C99.5117 188.362 99.3836 187.862 99.4539 187.37C99.5242 186.878 99.7872 186.433 100.185 186.135C100.583 185.837 101.083 185.709 101.575 185.779C102.068 185.849 102.512 186.112 102.81 186.51L129.33 221.2L175.55 252.82L139.11 282.82L114.39 325.64L106 371.55C105.924 371.984 105.694 372.376 105.352 372.655C105.011 372.934 104.581 373.082 104.14 373.07Z" fill="#EAFF62"/>
<path d="M377.05 384.24H376.92L278.84 377.45L188.15 357.69L111.68 326.69L54.4399 286.58L22.8599 243.93L12.9399 282.05L46.9399 328.47L105.24 369.7C105.59 370.001 105.815 370.422 105.871 370.88C105.927 371.339 105.809 371.802 105.541 372.178C105.273 372.554 104.873 372.816 104.422 372.913C103.97 373.009 103.498 372.933 103.1 372.7L44.2999 331.12L8.8999 282.82L20.1499 239.64L11.1499 191.09L45.9999 160L95.2899 148.43L103.47 188.79L56.2599 206.49L24.4699 239.86L57.0699 283.86L113.46 323.34L189.4 354.16L279.5 373.76L377.05 380.5L474.63 373.8L564.81 354.24L640.88 323.46L697.46 284L730.26 240L697.55 205.64L706.18 162L692.38 120C692.29 119.765 692.249 119.514 692.258 119.262C692.268 119.011 692.329 118.764 692.437 118.536C692.545 118.309 692.699 118.106 692.887 117.939C693.076 117.773 693.297 117.647 693.536 117.568C693.776 117.489 694.028 117.46 694.279 117.482C694.53 117.504 694.774 117.577 694.995 117.696C695.217 117.815 695.413 117.977 695.57 118.174C695.727 118.371 695.843 118.597 695.91 118.84L710 161.8L701.55 204.51L735.1 239.74L700.1 286.74L642.5 326.85L565.78 357.85L475 377.52L377.05 384.24ZM15.2099 192.47L23.2099 235.79L54.0999 203.34L54.4999 203.19L99.1499 186.45L92.3599 153L47.7099 163.43L15.2099 192.47Z" fill="#EAFF62"/>
<path d="M377.07 334.91H376.94L288.21 328.82L206.09 311.1L136.74 283.25L136.57 283.13L84.67 247.24L53.41 205.7L44.92 161.61L57.24 124.67L30.24 146.23C30.0516 146.399 29.8307 146.529 29.5907 146.609C29.3507 146.69 29.0967 146.722 28.8442 146.701C28.5918 146.68 28.3462 146.608 28.1226 146.489C27.899 146.37 27.702 146.207 27.5438 146.009C27.3856 145.811 27.2694 145.583 27.2024 145.339C27.1355 145.095 27.1191 144.839 27.1543 144.588C27.1895 144.338 27.2756 144.097 27.4073 143.88C27.5389 143.664 27.7134 143.477 27.92 143.33L59.68 117.94L95.28 78.5601L139.59 79.1401L106.49 116.14L62.37 121L48.74 161.86L56.9 204.16L87.27 244.53L138.51 280L207.33 307.63L288.86 325.19L377.07 331.19L465.3 325.19L546.91 307.67L615.85 280.08L667.25 244.67L696.57 206L654.08 190L627.48 224.57L580.64 223.44L605.49 191.51C605.803 191.156 606.24 190.934 606.711 190.891C607.182 190.847 607.652 190.984 608.025 191.275C608.398 191.565 608.647 191.987 608.72 192.454C608.794 192.922 608.686 193.399 608.42 193.79L588.1 219.91L625.68 220.81L652.81 185.56L702.54 204.23L669.85 247.39L669.6 247.56L617.42 283.45L547.84 311.27L465.68 328.89L377.07 334.91ZM96.94 82.2901L65.65 116.91L104.7 112.57L131.41 82.7401L96.94 82.2901Z" fill="#EAFF62"/>
<path d="M172.41 254.81C171.938 254.824 171.478 254.657 171.126 254.343C170.773 254.029 170.554 253.592 170.513 253.121C170.472 252.651 170.612 252.182 170.906 251.812C171.199 251.442 171.623 251.198 172.09 251.13L207 245C207.24 244.958 207.485 244.964 207.723 245.016C207.96 245.069 208.185 245.169 208.384 245.308C208.583 245.448 208.753 245.626 208.884 245.831C209.014 246.036 209.103 246.265 209.145 246.505C209.187 246.745 209.181 246.99 209.128 247.228C209.076 247.465 208.976 247.69 208.837 247.889C208.697 248.088 208.519 248.258 208.314 248.389C208.109 248.519 207.88 248.608 207.64 248.65L172.64 254.83C172.563 254.829 172.486 254.822 172.41 254.81Z" fill="#EAFF62"/>
<path d="M209 454.54C208.604 454.544 208.217 454.417 207.9 454.18L188.6 439.92L180.95 403.54L187.13 355.29L205.13 308.46L228.68 277.37L171.68 254.68C171.245 254.481 170.903 254.123 170.726 253.68C170.548 253.236 170.548 252.741 170.725 252.297C170.903 251.853 171.244 251.495 171.679 251.296C172.114 251.098 172.608 251.074 173.06 251.23L234.57 275.72L208.38 310.29L190.63 356.42L184.63 403.42L191.87 437.8L210.03 451.22C210.343 451.454 210.574 451.78 210.691 452.152C210.808 452.525 210.805 452.924 210.682 453.295C210.559 453.666 210.323 453.988 210.007 454.217C209.691 454.446 209.31 454.569 208.92 454.57L209 454.54Z" fill="#EAFF62"/>
<path d="M289.82 472.45C289.544 472.451 289.272 472.391 289.023 472.273C288.774 472.155 288.554 471.983 288.38 471.77L279 460.37L189.57 440.56L113 409L102.38 371.75C102.29 371.509 102.252 371.252 102.267 370.995C102.282 370.739 102.35 370.488 102.466 370.259C102.583 370.029 102.746 369.827 102.945 369.664C103.144 369.501 103.374 369.381 103.622 369.312C103.87 369.242 104.129 369.225 104.384 369.261C104.638 369.297 104.883 369.385 105.101 369.52C105.32 369.656 105.508 369.835 105.654 370.046C105.801 370.258 105.901 370.498 105.95 370.75L116.08 406.27L190.85 437.11L281 457L291.21 469.39C291.421 469.662 291.553 469.988 291.59 470.331C291.627 470.673 291.568 471.02 291.42 471.331C291.271 471.642 291.039 471.906 290.75 472.093C290.46 472.28 290.125 472.383 289.78 472.39L289.82 472.45Z" fill="#EAFF62"/>
<path d="M277.82 426.23L182.12 405.18L103.43 372.94C102.991 372.742 102.645 372.381 102.467 371.933C102.289 371.485 102.291 370.985 102.474 370.539C102.657 370.093 103.006 369.735 103.447 369.542C103.889 369.348 104.388 369.333 104.84 369.5L183.37 401.69L274.37 421.69L277.37 375.29L286.82 326.38L299.07 292.88L231.23 278.38C230.977 278.345 230.734 278.258 230.517 278.125C230.299 277.991 230.111 277.815 229.964 277.606C229.818 277.397 229.716 277.16 229.665 276.91C229.614 276.66 229.615 276.402 229.668 276.152C229.721 275.902 229.824 275.666 229.973 275.458C230.121 275.25 230.31 275.075 230.529 274.944C230.748 274.812 230.991 274.727 231.244 274.694C231.498 274.66 231.755 274.68 232 274.75L304 290.14L290.33 327.51L281.02 375.88L277.82 426.23Z" fill="#EAFF62"/>
<path d="M142.56 164L91.4102 152.06L104.41 111.92L153.13 130.25L142.56 164ZM96.1902 149.36L140.05 159.56L148.56 132.49L106.77 116.76L96.1902 149.36Z" fill="#EAFF62"/>
</g>
<defs>
<clipPath id="clip0_529_4281">
<rect width="755.03" height="478.6" fill="white"/>
</clipPath>
</defs>
</svg>
