<svg width="490" height="448" viewBox="0 0 490 448" fill="none" xmlns="http://www.w3.org/2000/svg">
<mask id="mask0_529_4128" style="mask-type:alpha" maskUnits="userSpaceOnUse" x="0" y="0" width="490" height="448">
<rect width="448" height="490" transform="matrix(4.37114e-08 1 1 -4.37114e-08 0 0)" fill="#C4C4C4"/>
</mask>
<g mask="url(#mask0_529_4128)">
<path d="M842 -12.16L841.9 -11.78L827.06 44.12L816.18 79.59L783.51 137.59L733.79 198.4L670.4 257.55L598 310.59L521.9 353.46L447.9 382.96L381.59 397L344.59 396.35L285 393.91L243.06 373.82L207 347.44L185.24 310.6L170.12 269.24L170.75 221.24L181 181.93L200.2 130.77L236.25 74.88L286.53 17.8L347.67 -36.94L415.85 -86.06L486.92 -126.61L556.59 -156.09L620.65 -172.56L674.58 -174.75L714.46 -171.75L759.59 -157.84L793.59 -130.43L821.77 -99.33L835.3 -56.9L842 -12.16ZM812.84 77.94L823.49 43.1L838.21 -12.37L831.61 -56.19L818.36 -97.38L790.81 -127.78L757.74 -154.45L713.49 -168.09L674.49 -171.03L621 -168.86L557.66 -152.53L488.47 -123.23L417.79 -82.88L349.88 -34L289.05 20.5L239.05 77.23L203.35 132.61L184.48 183.14L174.4 222L173.84 268.65L188.67 309.16L209.81 344.89L245.12 370.72L285.92 390.23L344.73 392.64L381.23 393.28L446.93 379.36L520.39 350.06L596.06 307.41L668.16 254.63L731.16 195.78L780.53 135.38L812.84 77.94Z" fill="#EAFF62"/>
<path d="M664.19 -53.8801C664.188 -53.6973 664.161 -53.5155 664.11 -53.34L653.11 -17.08L628.75 23.92L592.53 66.82L546.89 108.62L495.09 146.26L440.89 176.96L388.23 198.5L341.06 209.34L302.63 208.82C302.141 208.804 301.677 208.6 301.335 208.249C300.994 207.899 300.802 207.429 300.8 206.94C300.808 206.448 301.01 205.98 301.362 205.637C301.714 205.294 302.188 205.105 302.68 205.11L340.68 205.62L387.27 194.91L439.39 173.57L493.2 143L544.65 105.6L590 64.14L625.89 21.6099L649.89 -18.78L660.61 -54.41C660.739 -54.8361 661.017 -55.2017 661.392 -55.4405C661.768 -55.6792 662.217 -55.7752 662.658 -55.7111C663.098 -55.6469 663.501 -55.4269 663.793 -55.0909C664.086 -54.7549 664.248 -54.3253 664.25 -53.8801L664.19 -53.8801Z" fill="#EAFF62"/>
<path d="M343.67 207.24C343.67 207.488 343.619 207.733 343.52 207.96C343.427 208.187 343.29 208.393 343.117 208.567C342.943 208.741 342.737 208.878 342.51 208.971C342.283 209.064 342.039 209.111 341.794 209.109C341.548 209.107 341.306 209.057 341.08 208.96L321 200.36C320.548 200.166 320.191 199.801 320.008 199.344C319.826 198.888 319.832 198.377 320.025 197.925C320.219 197.473 320.584 197.116 321.041 196.933C321.497 196.75 322.008 196.756 322.46 196.95L342.54 205.53C342.875 205.673 343.161 205.911 343.362 206.215C343.563 206.519 343.67 206.876 343.67 207.24Z" fill="#EAFF62"/>
<path d="M633.74 15.08C633.74 15.4959 633.6 15.8998 633.343 16.2264C633.085 16.553 632.725 16.7833 632.32 16.88L614.11 21.27L564.52 41.78L513.91 70.52L465.49 105.64L422.37 144.94L387.37 185.94L378.65 200.14C378.382 200.538 377.972 200.817 377.503 200.919C377.035 201.021 376.545 200.938 376.136 200.688C375.727 200.438 375.431 200.039 375.309 199.576C375.186 199.112 375.248 198.619 375.48 198.2L384.48 183.63L419.83 142.3L463.28 102.73L512 67.34L563 38.39L613.1 17.69L631.45 13.27C631.687 13.2119 631.933 13.2014 632.175 13.2389C632.416 13.2765 632.647 13.3613 632.855 13.4887C633.063 13.616 633.244 13.7833 633.388 13.9809C633.531 14.1785 633.634 14.4025 633.69 14.64C633.726 14.7837 633.743 14.9317 633.74 15.08Z" fill="#EAFF62"/>
<path d="M514.76 68.95C514.76 69.3044 514.658 69.6514 514.467 69.9501C514.277 70.2488 514.004 70.4868 513.683 70.636C513.361 70.7852 513.004 70.8394 512.653 70.7923C512.301 70.7452 511.971 70.5986 511.7 70.3699L498.58 59.17L476.05 30.31L449.87 -8.83003L428.39 -45.59L379.75 -10.5L356.75 -31.62L348.28 -33.62C348.043 -33.6758 347.819 -33.7778 347.622 -33.9201C347.424 -34.0624 347.256 -34.2421 347.128 -34.4492C347 -34.6563 346.914 -34.8866 346.875 -35.1269C346.836 -35.3673 346.844 -35.613 346.9 -35.85C346.956 -36.0871 347.058 -36.3108 347.2 -36.5084C347.342 -36.7061 347.522 -36.8738 347.729 -37.0019C347.936 -37.13 348.166 -37.2161 348.407 -37.2553C348.647 -37.2944 348.893 -37.2859 349.13 -37.23L358.56 -35L380 -15.28L429.53 -51L453 -10.8L479 28.14L501.34 56.7399L514.05 67.54C514.264 67.709 514.438 67.9228 514.561 68.1664C514.684 68.4099 514.752 68.6774 514.76 68.95Z" fill="#EAFF62"/>
<path d="M565.56 40.11C565.561 40.3142 565.527 40.5171 565.46 40.71C565.382 40.9406 565.259 41.1535 565.099 41.3364C564.939 41.5193 564.743 41.6685 564.525 41.7754C564.306 41.8824 564.069 41.9449 563.826 41.9595C563.583 41.974 563.34 41.9401 563.11 41.86L542.59 34.86L516.9 6.76998L494.49 -32.23L452.42 -8.3L410.64 21.9L372.12 56.67L336.27 29.08L300.92 69.5L261.86 64.56C261.376 64.4903 260.938 64.2357 260.637 63.8497C260.337 63.4637 260.198 62.9763 260.25 62.49C260.312 62.0007 260.566 61.5562 260.956 61.2542C261.346 60.9523 261.84 60.8177 262.33 60.88L299.42 65.57L335.77 24L371.93 51.83L408.38 18.94L450.49 -11.49L495.87 -37.32L520 4.74999L544.68 31.66L564.29 38.35C564.66 38.4722 564.982 38.7081 565.21 39.0242C565.438 39.3402 565.56 39.7202 565.56 40.11Z" fill="#EAFF62"/>
<path d="M638.59 6.91L638.59 6.99999C638.572 7.2445 638.506 7.48309 638.396 7.70205C638.286 7.92101 638.133 8.11603 637.948 8.27587C637.762 8.43572 637.546 8.55723 637.313 8.63345C637.08 8.70967 636.834 8.73909 636.59 8.72L624.67 7.88L593.73 -18.74L593.56 -19.13L576 -60.27L536.5 -50.43L528.7 -95.91L478.47 -74.76L475.78 -107.38L417.3 -74L358.83 -31.86L306.47 15.07L263.47 63.95C263.136 64.2861 262.687 64.4822 262.214 64.4984C261.74 64.5146 261.279 64.3496 260.923 64.0371C260.567 63.7246 260.344 63.2881 260.299 62.8167C260.253 62.3452 260.39 61.8743 260.68 61.5L303.89 12.38L356.56 -34.81L415.35 -77.18L479 -113.5L481.75 -80.16L531.57 -101.16L539.48 -55L578.17 -64.63L596.83 -21L626.18 4.26001L636.87 5.01C637.346 5.04576 637.789 5.26287 638.109 5.61648C638.43 5.97009 638.602 6.43316 638.59 6.91Z" fill="#EAFF62"/>
<path d="M638.59 6.91002L638.59 7.00002C638.572 7.24452 638.506 7.48311 638.396 7.70207C638.286 7.92104 638.134 8.11605 637.948 8.2759C637.762 8.43575 637.546 8.55725 637.313 8.63347C637.08 8.70969 636.834 8.73911 636.59 8.72002L625.59 7.95003L586.93 17.3L544.46 34.9L501.05 59.55L459.51 89.67L420.69 125L401.75 90.36L372.05 57.03L344.05 89.25L377.2 122L357 154.62L371.86 191.51L369.16 201.84C369.099 202.076 368.993 202.298 368.846 202.492C368.7 202.687 368.516 202.851 368.306 202.975C368.096 203.098 367.864 203.179 367.623 203.213C367.381 203.246 367.136 203.232 366.9 203.17C366.424 203.043 366.017 202.734 365.768 202.308C365.519 201.883 365.448 201.377 365.57 200.9L367.96 191.76L352.85 154.27L372.53 122.59L339 89.47L372 51.47L404.89 88.47L421.68 119.16L457.24 86.82L499.11 56.47L542.92 31.6L585.92 13.82L625.28 4.29003L636.88 5.11C637.337 5.14676 637.764 5.35077 638.079 5.68294C638.395 6.01511 638.577 6.45206 638.59 6.91002Z" fill="#EAFF62"/>
<path d="M466.18 104.2C466.178 104.635 466.025 105.055 465.745 105.388C465.466 105.721 465.078 105.946 464.651 106.023C464.223 106.1 463.781 106.025 463.403 105.811C463.025 105.597 462.734 105.257 462.58 104.85L456.67 89.11L437.89 60.42L404.61 90.61L377.03 122.61L393.12 157.41L371.59 192.41L369.11 201.87C369.05 202.106 368.943 202.328 368.797 202.522C368.65 202.717 368.467 202.881 368.257 203.005C368.047 203.128 367.814 203.209 367.573 203.243C367.331 203.276 367.086 203.262 366.85 203.2C366.374 203.073 365.967 202.763 365.718 202.338C365.469 201.913 365.398 201.407 365.52 200.93L368.28 190.69L388.92 157.19L372.65 122L402 87.93L438.59 54.75L460.05 87.62L466.05 103.55C466.133 103.757 466.177 103.977 466.18 104.2Z" fill="#EAFF62"/>
<path d="M615.4 19.49L615.4 19.76C615.366 20.0022 615.284 20.2352 615.159 20.4455C615.034 20.6558 614.869 20.8393 614.673 20.9853C614.477 21.1313 614.253 21.2369 614.016 21.2961C613.779 21.3553 613.532 21.3668 613.29 21.33L585.52 17.33L557.13 -9.71997L537.13 -50.31L494.13 -32.31L479.13 -74.75L428.13 -45.68L414.43 -75.21L414.89 -84.54C414.902 -84.783 414.961 -85.0214 415.065 -85.2414C415.169 -85.4615 415.315 -85.6589 415.495 -85.8224C415.675 -85.9859 415.886 -86.1122 416.115 -86.1942C416.344 -86.2761 416.587 -86.3121 416.83 -86.2999C417.319 -86.2715 417.777 -86.0524 418.107 -85.6896C418.436 -85.3268 418.609 -84.8494 418.59 -84.3599L418.18 -75.94L429.8 -50.94L481.13 -80.2L496.29 -37.28L538.89 -55.13L560.15 -12L587.2 13.82L613.8 17.66C614.242 17.7224 614.647 17.9416 614.94 18.2775C615.234 18.6134 615.397 19.0438 615.4 19.49Z" fill="#EAFF62"/>
<path d="M523.05 351.74C523.05 351.892 523.03 352.043 522.99 352.19C522.932 352.427 522.827 352.65 522.682 352.846C522.537 353.042 522.355 353.207 522.146 353.333C521.937 353.458 521.705 353.541 521.464 353.577C521.222 353.612 520.976 353.6 520.74 353.54L498.59 347.93L472.12 320.47L388.45 354.06C387.994 354.243 387.484 354.237 387.032 354.044C386.58 353.851 386.223 353.486 386.04 353.03C385.857 352.574 385.863 352.064 386.056 351.612C386.249 351.16 386.614 350.803 387.07 350.62L473.07 316.09L500.54 344.59L521.66 349.94C522.058 350.044 522.411 350.277 522.662 350.603C522.914 350.929 523.05 351.328 523.05 351.74Z" fill="#EAFF62"/>
<path d="M598.93 309C598.93 309.348 598.832 309.689 598.648 309.984C598.464 310.28 598.201 310.517 597.888 310.671C597.576 310.824 597.226 310.886 596.88 310.851C596.534 310.815 596.205 310.683 595.93 310.47L583.68 301L500.24 348L417.4 381.09L386.53 353.73C386.176 353.399 385.965 352.942 385.942 352.458C385.92 351.973 386.088 351.499 386.41 351.136C386.732 350.774 387.183 350.551 387.667 350.516C388.151 350.482 388.629 350.637 389 350.95L418.15 376.8L498.75 344.59L584 296.52L598.21 307.52C598.436 307.694 598.619 307.918 598.744 308.175C598.869 308.432 598.933 308.714 598.93 309Z" fill="#EAFF62"/>
<path d="M562 268.87C562.001 269.199 561.914 269.522 561.749 269.807C561.584 270.092 561.346 270.327 561.06 270.49L471.9 320.8L445.9 275.87L429.84 229.22L427.15 192L438.66 174.23C438.787 174.016 438.955 173.83 439.156 173.683C439.356 173.536 439.584 173.43 439.826 173.373C440.068 173.316 440.319 173.308 440.564 173.35C440.809 173.392 441.043 173.483 441.252 173.618C441.461 173.752 441.641 173.927 441.781 174.133C441.92 174.338 442.017 174.57 442.066 174.814C442.114 175.058 442.113 175.309 442.062 175.552C442.011 175.795 441.912 176.026 441.77 176.23L430.94 192.96L433.55 228.72L449.37 274.5L473.27 315.77L559.19 267.27C559.618 267.028 560.125 266.966 560.599 267.098C561.074 267.229 561.477 267.542 561.72 267.97C561.892 268.24 561.988 268.55 562 268.87Z" fill="#EAFF62"/>
<path d="M287.32 392.07C287.332 392.464 287.22 392.852 287 393.18C286.705 393.575 286.266 393.836 285.779 393.908C285.291 393.979 284.795 393.854 284.4 393.56L249.8 367.88C249.603 367.734 249.437 367.551 249.31 367.341C249.184 367.131 249.101 366.898 249.064 366.656C249.028 366.413 249.04 366.166 249.099 365.929C249.159 365.691 249.264 365.467 249.41 365.27C249.556 365.073 249.739 364.907 249.949 364.78C250.159 364.654 250.392 364.571 250.634 364.534C250.877 364.498 251.124 364.51 251.361 364.569C251.599 364.629 251.823 364.734 252.02 364.88L286.58 390.58C286.811 390.754 286.997 390.979 287.126 391.238C287.254 391.496 287.321 391.781 287.32 392.07Z" fill="#EAFF62"/>
<path d="M449.33 381.14L449.33 381.28C449.314 381.525 449.249 381.764 449.139 381.984C449.029 382.203 448.877 382.399 448.691 382.559C448.504 382.719 448.288 382.841 448.055 382.916C447.821 382.992 447.575 383.02 447.33 383L417.9 380.82L344.19 396.49L311.37 370.49L250.84 368.23C250.594 368.231 250.351 368.181 250.125 368.082C249.899 367.984 249.697 367.841 249.529 367.66C249.362 367.48 249.234 367.267 249.153 367.034C249.073 366.802 249.041 366.555 249.06 366.31C249.069 366.065 249.127 365.825 249.229 365.602C249.332 365.38 249.478 365.18 249.658 365.015C249.839 364.849 250.05 364.721 250.281 364.638C250.511 364.555 250.756 364.518 251 364.53L312.75 366.83L345.12 392.49L417.65 377.08L447.65 379.3C448.109 379.342 448.536 379.554 448.846 379.895C449.157 380.235 449.33 380.679 449.33 381.14Z" fill="#EAFF62"/>
<path d="M389.7 196.66C389.7 196.906 389.65 197.15 389.554 197.377C389.458 197.604 389.317 197.809 389.14 197.98L367.14 219.61C366.967 219.786 366.761 219.926 366.533 220.022C366.306 220.117 366.061 220.166 365.814 220.167C365.568 220.167 365.323 220.118 365.095 220.023C364.868 219.927 364.661 219.788 364.488 219.612C364.315 219.436 364.178 219.227 364.086 218.998C363.995 218.769 363.949 218.524 363.953 218.277C363.957 218.03 364.01 217.787 364.109 217.561C364.208 217.334 364.351 217.13 364.53 216.96L386.53 195.34C386.789 195.08 387.12 194.903 387.481 194.832C387.841 194.76 388.214 194.798 388.553 194.939C388.892 195.081 389.181 195.32 389.384 195.626C389.586 195.933 389.693 196.293 389.69 196.66L389.7 196.66Z" fill="#EAFF62"/>
<path d="M534.86 228.11L448.37 277L368.26 309.37L389.42 351.51C389.616 351.947 389.636 352.443 389.476 352.894C389.315 353.346 388.987 353.718 388.559 353.933C388.131 354.148 387.636 354.19 387.178 354.05C386.72 353.91 386.334 353.598 386.1 353.18L363.1 307.44L446.83 273.59L529.73 226.73L506.51 186.73L493.35 158.12L429.71 194.12L366.58 220C366.125 220.187 365.615 220.186 365.161 219.996C364.707 219.807 364.347 219.445 364.16 218.99C363.973 218.535 363.974 218.025 364.164 217.571C364.353 217.117 364.715 216.757 365.17 216.57L428.23 190.79L495.07 152.92L509.83 185L534.86 228.11Z" fill="#EAFF62"/>
<path d="M389.62 352.34C389.618 352.765 389.472 353.177 389.205 353.508C388.937 353.839 388.565 354.069 388.15 354.16L311 370.8L290.76 324.9L289.76 273.7L307.86 230L339.78 206C339.977 205.854 340.201 205.747 340.439 205.687C340.677 205.628 340.924 205.615 341.167 205.651C341.41 205.687 341.643 205.77 341.854 205.896C342.065 206.022 342.248 206.188 342.395 206.385C342.541 206.582 342.647 206.806 342.707 207.044C342.767 207.282 342.78 207.529 342.744 207.772C342.708 208.015 342.625 208.248 342.499 208.459C342.373 208.67 342.207 208.854 342.01 209L310.91 232.43L293.47 274.43L294.47 324.11L313.14 366.53L387.37 350.53C387.851 350.426 388.354 350.517 388.768 350.783C389.183 351.049 389.474 351.469 389.58 351.95C389.608 352.078 389.621 352.209 389.62 352.34Z" fill="#EAFF62"/>
<path d="M423.05 122.07C423.05 122.514 422.891 122.944 422.6 123.28L392.75 158.11L387.67 185.11C387.555 185.569 387.269 185.967 386.87 186.222C386.472 186.478 385.991 186.572 385.526 186.485C385.06 186.398 384.646 186.137 384.366 185.756C384.086 185.374 383.963 184.9 384.02 184.43L389.29 156.43L419.78 120.84C420.028 120.552 420.357 120.347 420.725 120.252C421.092 120.157 421.48 120.177 421.836 120.309C422.192 120.44 422.499 120.678 422.716 120.989C422.933 121.3 423.05 121.67 423.05 122.05L423.05 122.07Z" fill="#EAFF62"/>
<path d="M423.05 122.07L422.89 143.65C422.856 144.118 422.645 144.557 422.301 144.876C421.957 145.196 421.505 145.374 421.035 145.374C420.565 145.374 420.113 145.196 419.769 144.876C419.425 144.557 419.215 144.118 419.18 143.65L419.33 122.08C419.33 121.587 419.526 121.114 419.875 120.765C420.224 120.416 420.697 120.22 421.19 120.22C421.683 120.22 422.157 120.416 422.505 120.765C422.854 121.114 423.05 121.587 423.05 122.08L423.05 122.07Z" fill="#EAFF62"/>
<path d="M354.45 204.76C354.453 205.196 354.301 205.62 354.022 205.955C353.743 206.29 353.354 206.516 352.925 206.593C352.495 206.67 352.052 206.592 351.674 206.374C351.296 206.155 351.008 205.81 350.86 205.4L343.08 184.23C342.91 183.769 342.931 183.259 343.137 182.812C343.343 182.366 343.718 182.02 344.18 181.85C344.641 181.68 345.151 181.701 345.598 181.907C346.044 182.113 346.39 182.489 346.56 182.95L354.34 204.12C354.416 204.325 354.453 204.542 354.45 204.76Z" fill="#EAFF62"/>
<path d="M347.32 206.4C347.32 206.893 347.124 207.366 346.775 207.715C346.427 208.064 345.953 208.26 345.46 208.26C344.967 208.26 344.494 208.064 344.145 207.715C343.796 207.366 343.6 206.893 343.6 206.4L342.97 183.59C342.946 183.336 342.973 183.081 343.052 182.838C343.13 182.596 343.257 182.372 343.426 182.181C343.594 181.99 343.8 181.835 344.031 181.727C344.261 181.619 344.512 181.559 344.766 181.551C345.021 181.544 345.274 181.588 345.511 181.683C345.748 181.777 345.962 181.919 346.142 182.1C346.321 182.281 346.462 182.497 346.554 182.734C346.647 182.972 346.69 183.225 346.68 183.48L347.32 206.29L347.32 206.4Z" fill="#EAFF62"/>
<path d="M346 206.7C345.996 207.107 345.863 207.503 345.62 207.83C345.317 208.219 344.874 208.473 344.385 208.537C343.896 208.601 343.402 208.469 343.01 208.17L308.86 182L261.63 175.56C261.143 175.494 260.703 175.237 260.405 174.846C260.108 174.455 259.978 173.962 260.045 173.475C260.111 172.988 260.368 172.548 260.759 172.251C261.15 171.953 261.643 171.824 262.13 171.89L310.33 178.45L345.28 205.25C345.501 205.422 345.681 205.641 345.806 205.893C345.931 206.144 345.997 206.42 346 206.7Z" fill="#EAFF62"/>
<path d="M277.65 195.34C277.65 195.652 277.572 195.958 277.423 196.232C277.275 196.506 277.061 196.739 276.8 196.91C276.386 197.173 275.884 197.262 275.405 197.157C274.925 197.052 274.507 196.762 274.24 196.35L260.32 174.7C260.163 174.496 260.049 174.261 259.988 174.011C259.926 173.76 259.916 173.5 259.961 173.246C260.005 172.992 260.101 172.75 260.244 172.535C260.386 172.32 260.572 172.137 260.789 171.998C261.006 171.859 261.25 171.767 261.505 171.727C261.76 171.687 262.02 171.7 262.269 171.766C262.518 171.832 262.751 171.949 262.953 172.11C263.154 172.271 263.32 172.472 263.44 172.7L277.36 194.35C277.549 194.646 277.65 194.989 277.65 195.34Z" fill="#EAFF62"/>
<path d="M277.65 195.34C277.652 195.692 277.554 196.038 277.366 196.335C277.178 196.633 276.909 196.871 276.59 197.02L232.76 217.77L202.76 256.7L194.46 303.36L209.89 344.81L251.71 364.71C252.152 364.926 252.492 365.307 252.656 365.77C252.821 366.234 252.797 366.744 252.59 367.19C252.376 367.634 251.995 367.975 251.53 368.138C251.065 368.301 250.554 368.273 250.11 368.06L206.93 347.52L190.65 303.71L199.29 255.15L230.36 214.79L275 193.67C275.282 193.532 275.594 193.468 275.908 193.485C276.221 193.501 276.525 193.598 276.791 193.765C277.057 193.933 277.275 194.165 277.425 194.441C277.576 194.717 277.653 195.026 277.65 195.34Z" fill="#EAFF62"/>
<path d="M252.77 366.39C252.769 366.823 252.618 367.242 252.342 367.575C252.065 367.908 251.682 368.134 251.256 368.214C250.831 368.295 250.391 368.225 250.012 368.016C249.633 367.807 249.339 367.472 249.18 367.07L231.82 323.36C231.708 323.129 231.644 322.878 231.633 322.622C231.622 322.365 231.665 322.109 231.757 321.87C231.85 321.631 231.992 321.413 232.173 321.231C232.354 321.05 232.57 320.907 232.809 320.813C233.048 320.719 233.304 320.675 233.56 320.685C233.817 320.694 234.068 320.757 234.299 320.868C234.531 320.98 234.736 321.138 234.903 321.332C235.07 321.527 235.195 321.755 235.27 322L252.64 365.7C252.722 365.921 252.766 366.154 252.77 366.39Z" fill="#EAFF62"/>
<path d="M368.26 215.84L359.58 259.24L367.81 309.84L292.74 326.36L233.49 324.53C233.236 324.54 232.982 324.497 232.744 324.404C232.507 324.311 232.291 324.171 232.11 323.992C231.93 323.812 231.788 323.598 231.693 323.361C231.599 323.124 231.554 322.871 231.561 322.616C231.569 322.362 231.629 322.111 231.737 321.881C231.845 321.65 232 321.444 232.191 321.276C232.382 321.107 232.606 320.98 232.848 320.902C233.091 320.823 233.347 320.795 233.6 320.82L292.39 322.63L363.58 307L355.8 259.2L355.87 258.87L363.49 220.76L309.58 233L263.58 232.22C263.094 232.21 262.631 232.009 262.291 231.661C261.951 231.314 261.76 230.846 261.76 230.36C261.764 230.117 261.816 229.877 261.912 229.654C262.009 229.431 262.149 229.23 262.323 229.061C262.498 228.892 262.704 228.759 262.93 228.669C263.156 228.58 263.397 228.536 263.64 228.54L309.21 229.31L368.26 215.84Z" fill="#EAFF62"/>
<path d="M304.54 206.93C304.54 207.252 304.457 207.568 304.3 207.848C304.142 208.128 303.915 208.363 303.64 208.53L264.55 232C264.341 232.125 264.11 232.208 263.869 232.244C263.628 232.28 263.382 232.269 263.146 232.21C262.91 232.151 262.687 232.046 262.491 231.901C262.296 231.756 262.13 231.574 262.005 231.365C261.88 231.156 261.797 230.925 261.761 230.684C261.725 230.443 261.736 230.197 261.795 229.961C261.854 229.725 261.959 229.502 262.104 229.307C262.249 229.111 262.431 228.945 262.64 228.82L301.73 205.35C302.154 205.1 302.659 205.026 303.136 205.146C303.614 205.266 304.025 205.569 304.28 205.99C304.45 206.274 304.539 206.599 304.54 206.93Z" fill="#EAFF62"/>
<path d="M304.54 206.94C304.538 207.191 304.488 207.439 304.39 207.67C304.297 207.897 304.16 208.103 303.986 208.277C303.813 208.451 303.607 208.588 303.38 208.681C303.152 208.774 302.909 208.821 302.664 208.819C302.418 208.817 302.176 208.767 301.95 208.67L275.06 197C274.822 196.914 274.603 196.78 274.419 196.606C274.234 196.432 274.087 196.222 273.986 195.989C273.885 195.757 273.833 195.506 273.833 195.252C273.833 194.999 273.885 194.748 273.985 194.515C274.085 194.282 274.232 194.072 274.417 193.898C274.601 193.724 274.819 193.589 275.058 193.503C275.296 193.416 275.55 193.379 275.803 193.394C276.056 193.409 276.304 193.476 276.53 193.59L303.42 205.18C303.761 205.328 304.05 205.574 304.25 205.888C304.45 206.202 304.551 206.568 304.54 206.94Z" fill="#EAFF62"/>
<path d="M323.58 198.66L323.58 198.79C323.542 199.283 323.31 199.74 322.935 200.063C322.56 200.385 322.073 200.546 321.58 200.51L275.65 197.2C275.404 197.188 275.163 197.125 274.942 197.017C274.721 196.908 274.524 196.756 274.364 196.568C274.204 196.381 274.084 196.163 274.011 195.928C273.938 195.693 273.914 195.445 273.94 195.2C273.958 194.955 274.023 194.717 274.134 194.498C274.244 194.279 274.396 194.084 274.582 193.924C274.768 193.764 274.984 193.643 275.217 193.567C275.45 193.49 275.696 193.461 275.94 193.48L321.87 196.8C322.338 196.835 322.774 197.047 323.092 197.393C323.409 197.738 323.584 198.191 323.58 198.66Z" fill="#EAFF62"/>
<path d="M357 153.88L345.71 186.7L311 158.51L311.42 179.62L323.26 197.62C323.454 198.028 323.493 198.493 323.37 198.928C323.246 199.362 322.969 199.737 322.589 199.982C322.209 200.227 321.753 200.325 321.306 200.259C320.859 200.192 320.452 199.965 320.16 199.62L307.73 180.71L307.13 150.52L343.91 180.41L352.72 155L319.07 125.18L275.87 109.81L263 145.26L215.71 155.77C215.472 155.823 215.226 155.829 214.986 155.787C214.747 155.745 214.517 155.657 214.311 155.526C214.106 155.396 213.928 155.226 213.788 155.027C213.648 154.828 213.548 154.603 213.495 154.365C213.442 154.127 213.436 153.881 213.478 153.641C213.52 153.402 213.608 153.172 213.739 152.966C213.869 152.761 214.039 152.583 214.238 152.443C214.437 152.303 214.662 152.203 214.9 152.15L260.23 142.08L273.64 105.08L321 121.94L321.27 122.17L357 153.88Z" fill="#EAFF62"/>
<path d="M343.39 89.38C343.39 89.6806 343.315 89.9765 343.17 90.2399C343.057 90.4555 342.903 90.6467 342.716 90.8026C342.53 90.9585 342.314 91.076 342.082 91.1485C341.849 91.2209 341.605 91.2468 341.363 91.2248C341.121 91.2027 340.885 91.1331 340.67 91.0199L300.82 70.0199L275.82 109.29L232.73 112.29L217 154.6C216.928 154.844 216.806 155.071 216.643 155.267C216.479 155.462 216.277 155.622 216.049 155.736C215.821 155.851 215.572 155.917 215.318 155.931C215.063 155.945 214.808 155.906 214.569 155.818C214.33 155.729 214.112 155.592 213.928 155.416C213.744 155.239 213.599 155.027 213.5 154.792C213.402 154.556 213.353 154.304 213.356 154.049C213.36 153.794 213.415 153.542 213.52 153.31L230.04 108.73L273.65 105.67L299.48 65.09L342.4 87.7399C342.7 87.896 342.951 88.1317 343.125 88.4209C343.3 88.7102 343.391 89.042 343.39 89.38Z" fill="#EAFF62"/>
<path d="M343.39 89.38C343.397 89.7351 343.296 90.0838 343.1 90.38L321.72 124.38L310.29 156.72L263.5 146L263.75 175L215.84 191.85C215.376 192.013 214.866 191.985 214.422 191.772C213.979 191.559 213.638 191.179 213.475 190.715C213.312 190.251 213.34 189.741 213.553 189.297C213.766 188.854 214.146 188.513 214.61 188.35L260.01 172.35L259.75 141.35L307.89 152.35L318.46 122.56L340 88.39C340.216 88.0499 340.537 87.7892 340.914 87.647C341.291 87.5048 341.704 87.4889 342.091 87.6017C342.477 87.7145 342.817 87.9498 343.059 88.2723C343.3 88.5948 343.431 88.9871 343.43 89.39L343.39 89.38Z" fill="#EAFF62"/>
<path d="M265.45 230.4C265.451 230.659 265.396 230.914 265.29 231.15C265.091 231.6 264.721 231.954 264.261 232.132C263.802 232.31 263.291 232.298 262.84 232.1L230.29 217.75L213.65 191.09C213.385 190.672 213.296 190.166 213.404 189.683C213.512 189.2 213.807 188.78 214.225 188.515C214.643 188.25 215.149 188.161 215.632 188.269C216.115 188.377 216.535 188.672 216.8 189.09L232.8 214.78L264.34 228.7C264.669 228.846 264.949 229.085 265.146 229.386C265.343 229.688 265.448 230.04 265.45 230.4Z" fill="#EAFF62"/>
<path d="M745.61 -93.86L730.91 -43.0001L697.26 14.48L646.56 74.9999L582.27 134.14L509.06 187.42L432.41 230.8L358.1 261L291.79 275.9L239.89 274.69L235.15 325.48L191.26 305L170 269.23L180.43 224.79L180.86 181.73L217.17 149.85L217.08 190.85L184.6 225.26L202.33 254.47L237.46 270.47L262 229.47C262.125 229.261 262.291 229.079 262.486 228.934C262.682 228.789 262.905 228.684 263.141 228.625C263.377 228.566 263.623 228.555 263.864 228.591C264.105 228.627 264.336 228.71 264.545 228.835C264.754 228.96 264.936 229.126 265.081 229.321C265.226 229.517 265.331 229.74 265.39 229.976C265.449 230.212 265.46 230.458 265.424 230.699C265.388 230.94 265.305 231.171 265.18 231.38L241.44 271L291.44 272.17L357.16 257.41L430.92 227.41L507.16 184.26L580 131.21L644 72.3599L694.35 12.23L727.63 -44.6601L741.87 -94.15L737.08 -131.15L694.43 -116.25L698.37 -82.68L660.91 -50.1901L657.43 -82.31C657.404 -82.553 657.426 -82.7988 657.494 -83.0333C657.563 -83.2678 657.677 -83.4864 657.83 -83.6768C657.984 -83.8671 658.173 -84.0254 658.387 -84.1427C658.602 -84.2599 658.837 -84.3338 659.08 -84.36C659.323 -84.3863 659.569 -84.3645 659.803 -84.2958C660.038 -84.2271 660.256 -84.1128 660.447 -83.9596C660.637 -83.8064 660.795 -83.6172 660.913 -83.4028C661.03 -83.1884 661.104 -82.953 661.13 -82.71L663.8 -57.6001L694.41 -84.1601L690.35 -118.73L740.13 -136.12L745.61 -93.86ZM231.94 319.88L236.23 273.95L199.75 257.38L183.05 229.86L174 268.62L193.87 302.09L231.94 319.88ZM213.37 189.36L213.44 158.07L184.55 183.43L184.19 220.29L213.37 189.36Z" fill="#EAFF62"/>
<path d="M650.68 -12.93L649.18 -10.41L625.77 -18.56L595.53 -18L559.21 -9.11L519.32 7.49999L478.51 30.7L437.89 60.11L408 21.59L379.74 -10.26L336.39 28.74L305.06 15.74L288.28 21C288.048 21.0729 287.803 21.0993 287.56 21.0777C287.318 21.0561 287.082 20.9868 286.866 20.874C286.65 20.7612 286.459 20.607 286.302 20.4201C286.146 20.2332 286.028 20.0174 285.955 19.785C285.882 19.5526 285.856 19.308 285.877 19.0654C285.899 18.8228 285.968 18.5868 286.081 18.3709C286.309 17.9349 286.701 17.6072 287.17 17.46L305.23 11.82L335.65 24.42L380 -15.52L410.82 19.23L438.62 55L476.62 27.52L517.82 4.10998L558.22 -12.68L595.28 -21.68L626.4 -22.28L645.89 -15.49L632.45 -54.43C632.324 -54.8861 632.377 -55.373 632.597 -55.7917C632.818 -56.2103 633.19 -56.5292 633.637 -56.6834C634.084 -56.8376 634.573 -56.8156 635.005 -56.6217C635.437 -56.4279 635.778 -56.0768 635.96 -55.64L650.68 -12.93Z" fill="#EAFF62"/>
<path d="M264 62.72C263.996 63.0565 263.9 63.3856 263.724 63.6725C263.548 63.9594 263.298 64.1935 263 64.35L238.5 77.73C238.069 77.9661 237.562 78.0212 237.09 77.8834C236.619 77.7455 236.221 77.426 235.985 76.995C235.749 76.564 235.694 76.0569 235.832 75.5853C235.97 75.1136 236.289 74.7161 236.72 74.48L261.21 61.09C261.643 60.8547 262.151 60.8005 262.623 60.9392C263.095 61.0779 263.493 61.3983 263.73 61.83C263.893 62.0995 263.986 62.4055 264 62.72Z" fill="#EAFF62"/>
<path d="M264 62.72C264.002 63.0743 263.901 63.4215 263.71 63.72L232.77 111.8L202.77 133.29C202.368 133.573 201.872 133.686 201.387 133.606C200.902 133.526 200.469 133.258 200.18 132.86C200.037 132.662 199.935 132.438 199.88 132.2C199.824 131.963 199.816 131.716 199.856 131.476C199.896 131.235 199.983 131.004 200.113 130.797C200.242 130.591 200.411 130.411 200.61 130.27L230 109.2L260.5 61.72C260.718 61.3845 261.038 61.1281 261.413 60.989C261.788 60.8499 262.198 60.8353 262.582 60.9476C262.966 61.0599 263.304 61.2929 263.545 61.6122C263.786 61.9315 263.917 62.32 263.92 62.72L264 62.72Z" fill="#EAFF62"/>
</g>
</svg>
