<svg width="320" height="479" viewBox="0 0 320 479" fill="none" xmlns="http://www.w3.org/2000/svg">
<g clip-path="url(#clip0_567_2151)">
<path d="M377.2 478.6H377.07L289.42 472.41L208.29 454.41L139.66 426L113.51 409.14L56.75 368.8L56.58 368.56L22.92 322.38L9.09 282.77L0 232.5L11.41 191.28L27.47 143.82L66.91 100.31L95 78.9402L148.82 45.8002L216.88 20.8002L294.88 5.25023L377.88 -0.00976562H378L461.08 5.32023L539.08 20.9702L607 46.1002L660.19 79.0002L688.77 100.72L727.77 144.01L743.57 191.37L755 232.7L745.6 283.22L731.8 322.78L697.91 369L697.67 369.17L641.06 409.28L614.67 426.34L545.91 454.62L464.74 472.53L377.2 478.6ZM290.08 468.75L377.2 474.87L464.35 468.78L545 451L613.15 422.94L639 406.16L695.3 366.27L728.66 320.8L742.1 282.14L751.25 232.86L740 192.47L724.47 145.92L686.15 103.34L658.15 82.0702L605.24 49.3602L537.9 24.5202L460.47 9.00023L377.88 3.72023L295.26 9.00023L217.74 24.4202L150.27 49.2202L97.1 82.0002L69.29 103.16L30.74 145.74L15 192.37L3.8 232.67L12.72 282L26.24 320.68L59.4 366.13L115.59 406.13L141.53 422.85L209.53 450.94L290.08 468.75Z" fill="white"/>
<path d="M195.55 237.26C195.11 237.262 194.685 237.105 194.35 236.82C193.977 236.499 193.746 236.044 193.707 235.553C193.668 235.063 193.823 234.577 194.14 234.2L205.14 221.38C205.468 221.032 205.918 220.823 206.395 220.798C206.873 220.773 207.342 220.932 207.705 221.244C208.068 221.555 208.297 221.995 208.345 222.471C208.392 222.947 208.255 223.423 207.96 223.8L196.96 236.61C196.787 236.815 196.571 236.98 196.327 237.092C196.084 237.204 195.818 237.262 195.55 237.26Z" fill="white"/>
<path d="M202 229.71C201.599 229.711 201.209 229.582 200.888 229.342C200.567 229.103 200.332 228.765 200.219 228.38C200.107 227.996 200.122 227.585 200.262 227.21C200.403 226.835 200.662 226.515 201 226.3L214.87 217.4L263.16 198.94L318.72 187.43L377.88 183.53H378L437.27 187.53L492.81 199.12L541.05 217.69L554.12 226.14C554.489 226.424 554.737 226.836 554.817 227.294C554.897 227.753 554.801 228.225 554.55 228.617C554.299 229.008 553.91 229.292 553.46 229.411C553.01 229.53 552.532 229.476 552.12 229.26L539.22 220.92L491.63 202.64L436.63 191.19L377.86 187.28L319.07 191.16L264.07 202.58L216.39 220.8L203 229.42C202.701 229.609 202.354 229.71 202 229.71Z" fill="white"/>
<path d="M377.19 284.77H377.06L314.22 280.5L255.92 268L206.31 248.29L169.25 223.1C168.843 222.824 168.562 222.398 168.469 221.915C168.376 221.432 168.479 220.932 168.755 220.525C169.031 220.118 169.457 219.837 169.94 219.744C170.423 219.651 170.923 219.754 171.33 220.03L208.23 245.13L257.15 264.52L314.86 276.83L377.19 281.05L439.53 276.86L497.31 264.58L546.31 245.22L583.31 220.14C583.511 220.004 583.738 219.908 583.976 219.859C584.215 219.81 584.461 219.808 584.7 219.854C584.939 219.9 585.167 219.993 585.37 220.127C585.573 220.261 585.748 220.433 585.885 220.635C586.021 220.837 586.117 221.063 586.166 221.302C586.215 221.54 586.216 221.786 586.17 222.025C586.125 222.264 586.032 222.492 585.898 222.695C585.764 222.899 585.591 223.074 585.39 223.21L547.85 248.59L498.21 268.18L439.9 280.55L377.19 284.77Z" fill="white"/>
<path d="M201.06 244.35C200.776 244.352 200.495 244.288 200.24 244.163C199.985 244.038 199.762 243.856 199.59 243.63L180.7 219.3C180.434 218.909 180.326 218.431 180.399 217.964C180.473 217.497 180.721 217.075 181.095 216.785C181.468 216.494 181.938 216.357 182.409 216.401C182.88 216.444 183.316 216.666 183.63 217.02L202.52 241.36C202.669 241.552 202.779 241.772 202.844 242.007C202.908 242.242 202.925 242.487 202.895 242.728C202.864 242.97 202.786 243.203 202.665 243.414C202.544 243.626 202.383 243.811 202.19 243.96C201.868 244.213 201.47 244.351 201.06 244.35Z" fill="white"/>
<path d="M377.891 187.25C377.644 187.256 377.4 187.212 377.17 187.121C376.941 187.03 376.733 186.895 376.557 186.723C376.381 186.55 376.241 186.345 376.145 186.118C376.05 185.89 376.001 185.647 376.001 185.4V175.06L325.101 178.4L328.191 142.27L324.881 96.2702L316.571 52.5102L261.301 63.6302L238.301 32.6902L216.601 24.3602C216.176 24.1594 215.842 23.8049 215.668 23.3683C215.493 22.9316 215.491 22.4451 215.661 22.0066C215.831 21.5682 216.16 21.2103 216.583 21.005C217.006 20.7997 217.491 20.7623 217.941 20.9002L240.631 29.6102L262.901 59.5302L319.541 48.1102L328.611 95.8802L331.941 142.3L329.201 174.42L379.701 171.1L379.781 185.38C379.782 185.624 379.735 185.867 379.643 186.093C379.551 186.319 379.415 186.525 379.243 186.698C379.071 186.872 378.867 187.01 378.642 187.105C378.417 187.199 378.175 187.249 377.931 187.25H377.891Z" fill="white"/>
<path d="M263.54 202.62C263.165 202.618 262.799 202.504 262.49 202.29C262.182 202.077 261.945 201.775 261.81 201.425C261.676 201.074 261.651 200.691 261.739 200.326C261.826 199.961 262.022 199.632 262.3 199.38L278.45 184.85C278.628 184.666 278.841 184.521 279.077 184.423C279.313 184.325 279.567 184.277 279.822 184.282C280.077 184.286 280.329 184.343 280.562 184.449C280.794 184.555 281.002 184.708 281.173 184.898C281.343 185.088 281.473 185.311 281.554 185.554C281.635 185.796 281.664 186.052 281.642 186.307C281.619 186.561 281.544 186.808 281.422 187.032C281.299 187.257 281.132 187.453 280.93 187.61L264.79 202.14C264.447 202.449 264.002 202.62 263.54 202.62Z" fill="white"/>
<path d="M238.56 203.81C238.184 203.808 237.818 203.693 237.509 203.478C237.2 203.264 236.963 202.961 236.83 202.61C236.742 202.383 236.7 202.141 236.706 201.897C236.712 201.654 236.766 201.414 236.866 201.191C236.965 200.969 237.108 200.769 237.285 200.602C237.463 200.435 237.672 200.305 237.9 200.22L279 184.5C279.231 184.399 279.479 184.347 279.73 184.345C279.982 184.343 280.231 184.392 280.463 184.489C280.695 184.586 280.904 184.729 281.079 184.91C281.254 185.09 281.391 185.304 281.481 185.539C281.571 185.774 281.612 186.024 281.603 186.275C281.593 186.527 281.533 186.773 281.425 187.001C281.318 187.228 281.165 187.431 280.977 187.597C280.789 187.764 280.569 187.891 280.33 187.97L239.21 203.68C239.004 203.765 238.783 203.809 238.56 203.81Z" fill="white"/>
<path d="M238.571 203.81C238.429 203.808 238.289 203.791 238.151 203.76C237.671 203.65 237.255 203.355 236.992 202.939C236.73 202.523 236.643 202.02 236.751 201.54L244.801 166.13L235.801 121.96L211.901 80.5699C211.689 80.1454 211.647 79.656 211.784 79.2018C211.922 78.7476 212.227 78.363 212.638 78.1266C213.05 77.8903 213.536 77.8201 213.997 77.9304C214.459 78.0406 214.861 78.3231 215.121 78.7199L239.311 120.63L248.601 166.18L248.511 166.57L240.371 202.36C240.28 202.77 240.052 203.137 239.725 203.401C239.398 203.664 238.991 203.808 238.571 203.81Z" fill="white"/>
<path d="M190.87 231.23C190.694 231.231 190.519 231.207 190.35 231.16C189.879 231.021 189.482 230.701 189.246 230.27C189.01 229.839 188.954 229.332 189.09 228.86L195.16 208.1L182.73 166.74L148.33 131.43L174.57 101.83L212.57 78.0699C212.777 77.9386 213.008 77.8493 213.249 77.8071C213.49 77.765 213.738 77.7707 213.977 77.8241C214.216 77.8775 214.442 77.9775 214.643 78.1183C214.843 78.2592 215.014 78.4381 215.145 78.6449C215.276 78.8518 215.366 79.0824 215.408 79.3238C215.45 79.5651 215.444 79.8124 215.391 80.0515C215.337 80.2906 215.238 80.5169 215.097 80.7174C214.956 80.9178 214.777 81.0886 214.57 81.2199L176.83 104.83L153.46 131.31L186 164.8L199 208.08L192.63 229.9C192.517 230.28 192.285 230.615 191.969 230.854C191.652 231.093 191.267 231.225 190.87 231.23Z" fill="white"/>
<path d="M190.869 231.23C190.694 231.231 190.519 231.207 190.349 231.16C189.878 231.021 189.481 230.701 189.245 230.27C189.009 229.839 188.953 229.332 189.089 228.86L195.429 207.18L214.529 185L203.529 142.61L174.279 104.88L131.859 81.0001L181.349 50.3301L213.869 77.5101L263.159 59.2001L280.789 105.48L287.429 152.67L247.539 167.82L218.169 186.61L208.309 223.08C208.177 223.556 207.86 223.96 207.43 224.203C207 224.446 206.49 224.508 206.014 224.375C205.538 224.242 205.134 223.926 204.892 223.496C204.649 223.065 204.587 222.556 204.719 222.08L212.639 192.84L198.769 209L192.659 229.91C192.543 230.294 192.306 230.629 191.983 230.867C191.661 231.105 191.27 231.232 190.869 231.23ZM139.159 80.8601L176.789 102L206.999 140.9L217.759 182.49L245.999 164.42L283.299 150.26L277.099 106.2L260.999 64.0001L213.139 81.8001L180.999 54.9201L139.159 80.8601Z" fill="white"/>
<path d="M206.519 224.45C206.119 224.447 205.731 224.316 205.411 224.075C205.092 223.833 204.859 223.496 204.747 223.112C204.634 222.728 204.649 222.318 204.788 221.943C204.927 221.568 205.184 221.248 205.519 221.03L237.569 200.39C237.773 200.233 238.008 200.119 238.258 200.057C238.509 199.995 238.769 199.986 239.023 200.03C239.277 200.074 239.519 200.171 239.734 200.314C239.949 200.456 240.132 200.642 240.271 200.859C240.41 201.076 240.502 201.32 240.542 201.575C240.582 201.829 240.569 202.09 240.503 202.339C240.437 202.588 240.32 202.821 240.159 203.023C239.998 203.224 239.797 203.39 239.569 203.51L207.569 224.15C207.257 224.353 206.891 224.458 206.519 224.45Z" fill="white"/>
<path d="M215.54 221C215.253 221.002 214.969 220.935 214.712 220.807C214.455 220.678 214.232 220.491 214.06 220.26C213.913 220.065 213.806 219.844 213.745 219.607C213.683 219.371 213.67 219.125 213.704 218.883C213.738 218.641 213.82 218.409 213.945 218.199C214.07 217.989 214.235 217.806 214.43 217.66L237.43 200.47C237.828 200.174 238.327 200.049 238.818 200.121C239.308 200.193 239.75 200.457 240.045 200.855C240.341 201.253 240.467 201.752 240.394 202.242C240.322 202.733 240.058 203.174 239.66 203.47L216.66 220.66C216.332 220.889 215.94 221.008 215.54 221Z" fill="white"/>
<path d="M58.0802 369.32C57.6891 369.321 57.3075 369.199 56.9898 368.971C56.672 368.743 56.4342 368.421 56.3102 368.05L43.6602 329.9L54.0002 284.42L84.6902 244.42L127.45 220.68L166.54 219.77L146.33 193.64C146.061 193.248 145.951 192.768 146.025 192.298C146.099 191.828 146.35 191.405 146.726 191.114C147.102 190.823 147.576 190.688 148.049 190.735C148.522 190.783 148.959 191.01 149.27 191.37L174 223.34L128.48 224.41L87.2102 247.32L57.4702 286L47.4702 329.68L59.8002 366.84C59.9524 367.308 59.9139 367.818 59.693 368.258C59.4721 368.697 59.0866 369.033 58.6202 369.19C58.4471 369.258 58.2653 369.302 58.0802 369.32Z" fill="white"/>
<path d="M182.171 220C181.77 220.001 181.38 219.871 181.061 219.63L146.731 194C146.534 193.854 146.367 193.671 146.241 193.461C146.115 193.251 146.031 193.018 145.995 192.776C145.959 192.533 145.971 192.286 146.03 192.048C146.089 191.811 146.195 191.587 146.341 191.39C146.486 191.193 146.67 191.026 146.88 190.9C147.09 190.774 147.323 190.69 147.565 190.654C147.807 190.618 148.054 190.63 148.292 190.689C148.53 190.749 148.754 190.854 148.951 191L183.281 216.62C183.593 216.853 183.825 217.18 183.942 217.552C184.059 217.924 184.056 218.324 183.933 218.695C183.81 219.065 183.574 219.388 183.258 219.617C182.941 219.846 182.561 219.969 182.171 219.97V220Z" fill="white"/>
<path d="M182.17 220C181.746 220.001 181.334 219.857 181.003 219.591C180.672 219.325 180.442 218.955 180.35 218.54L174.61 192.2C174.544 191.957 174.528 191.702 174.563 191.452C174.598 191.202 174.684 190.962 174.814 190.746C174.945 190.53 175.119 190.343 175.324 190.197C175.53 190.05 175.763 189.947 176.009 189.893C176.256 189.839 176.511 189.837 176.759 189.885C177.007 189.933 177.242 190.031 177.451 190.172C177.659 190.314 177.837 190.497 177.973 190.71C178.109 190.923 178.2 191.161 178.24 191.41L184 217.77C184.053 218.008 184.059 218.255 184.016 218.495C183.973 218.736 183.883 218.965 183.751 219.171C183.619 219.376 183.447 219.554 183.247 219.692C183.046 219.831 182.819 219.929 182.58 219.98C182.445 220.003 182.307 220.01 182.17 220Z" fill="white"/>
<path d="M187.08 226.34C186.688 226.341 186.305 226.217 185.988 225.987C185.67 225.757 185.433 225.433 185.31 225.06L174.66 192.4C174.542 191.942 174.603 191.456 174.831 191.042C175.059 190.627 175.436 190.315 175.885 190.168C176.335 190.022 176.824 190.052 177.252 190.253C177.68 190.454 178.016 190.811 178.19 191.25L188.84 223.91C188.918 224.142 188.949 224.387 188.931 224.63C188.913 224.874 188.847 225.112 188.736 225.33C188.625 225.548 188.472 225.741 188.286 225.899C188.099 226.057 187.883 226.177 187.65 226.25C187.467 226.314 187.274 226.345 187.08 226.34Z" fill="white"/>
<path d="M176.431 193.68C176.245 193.677 176.06 193.65 175.881 193.6C175.41 193.455 175.017 193.129 174.786 192.694C174.556 192.259 174.507 191.751 174.651 191.28L182.721 164.85L204.281 140.17L236.891 119.56L278.581 103.92L326.581 94.1601L375.901 91.0001V48.4901L316.741 52.2701L305.191 19.8901L239.941 32.8901L181.371 54.5501L149.161 49.3801C148.912 49.3501 148.672 49.2702 148.455 49.1452C148.238 49.0202 148.049 48.8527 147.898 48.6527C147.747 48.4527 147.638 48.2243 147.578 47.9813C147.518 47.7382 147.507 47.4855 147.547 47.2383C147.587 46.991 147.676 46.7543 147.809 46.5424C147.943 46.3305 148.118 46.1477 148.324 46.005C148.529 45.8623 148.762 45.7627 149.007 45.712C149.252 45.6613 149.505 45.6607 149.751 45.7101L181.001 50.7101L239.071 29.3101L307.611 15.6001L319.321 48.3401L379.631 44.4801V94.4801L327.001 97.8501L279.501 107.53L238.381 123L206.501 143.16L186.001 166.68L178.161 192.36C178.047 192.734 177.819 193.063 177.509 193.299C177.198 193.536 176.821 193.67 176.431 193.68Z" fill="white"/>
<path d="M176.43 193.68C175.986 193.68 175.556 193.52 175.22 193.23L140.1 163.17C139.902 163.015 139.737 162.822 139.616 162.601C139.494 162.381 139.419 162.138 139.394 161.888C139.369 161.638 139.395 161.385 139.471 161.145C139.546 160.905 139.669 160.683 139.833 160.492C139.997 160.302 140.198 160.146 140.423 160.035C140.649 159.924 140.895 159.86 141.146 159.846C141.397 159.833 141.649 159.871 141.885 159.957C142.121 160.044 142.337 160.177 142.52 160.35L177.63 190.41C177.917 190.657 178.122 190.985 178.217 191.352C178.312 191.718 178.294 192.105 178.163 192.461C178.033 192.816 177.797 193.123 177.487 193.341C177.177 193.559 176.809 193.677 176.43 193.68Z" fill="white"/>
<path d="M150.18 194.65L101.09 189.48C100.627 189.398 100.212 189.143 99.9297 188.767C99.6471 188.391 99.5175 187.921 99.5669 187.454C99.6164 186.986 99.8412 186.554 100.196 186.246C100.551 185.937 101.01 185.774 101.48 185.79L145.48 190.42L139.48 162.14C139.409 161.895 139.39 161.638 139.424 161.384C139.457 161.131 139.542 160.888 139.673 160.669C139.805 160.45 139.98 160.261 140.188 160.113C140.396 159.964 140.632 159.861 140.882 159.808C141.132 159.755 141.389 159.754 141.64 159.805C141.89 159.856 142.127 159.958 142.336 160.104C142.545 160.251 142.721 160.439 142.855 160.657C142.988 160.874 143.075 161.117 143.11 161.37L150.18 194.65Z" fill="white"/>
<path d="M104.141 373.07H103.801C103.317 372.98 102.889 372.702 102.61 372.297C102.331 371.893 102.223 371.394 102.311 370.91L110.801 324.38L110.961 324.1L136.191 280.42L136.451 280.2L169.321 253.13L126.701 223.92L99.8106 188.76C99.5122 188.362 99.3841 187.862 99.4544 187.37C99.5247 186.877 99.7877 186.433 100.186 186.135C100.583 185.836 101.083 185.708 101.576 185.779C102.068 185.849 102.512 186.112 102.811 186.51L129.331 221.2L175.551 252.82L139.111 282.82L114.391 325.64L106.001 371.55C105.924 371.984 105.694 372.376 105.353 372.655C105.011 372.934 104.581 373.081 104.141 373.07Z" fill="white"/>
<path d="M377.05 384.24H376.92L278.84 377.45L188.15 357.69L111.68 326.69L54.4404 286.58L22.8604 243.93L12.9404 282.05L46.9404 328.47L105.24 369.7C105.591 370.001 105.816 370.422 105.872 370.88C105.927 371.339 105.809 371.802 105.541 372.178C105.273 372.554 104.874 372.816 104.422 372.913C103.97 373.009 103.499 372.933 103.1 372.7L44.3004 331.12L8.90039 282.82L20.1504 239.64L11.1504 191.09L46.0004 160L95.2904 148.43L103.47 188.79L56.2604 206.49L24.4704 239.86L57.0704 283.86L113.46 323.34L189.4 354.16L279.5 373.76L377.05 380.5L474.63 373.8L564.81 354.24L640.88 323.46L697.46 284L730.26 240L697.55 205.64L706.18 162L692.38 120C692.29 119.765 692.249 119.514 692.259 119.262C692.269 119.011 692.33 118.764 692.438 118.536C692.546 118.309 692.699 118.106 692.888 117.939C693.077 117.773 693.298 117.647 693.537 117.568C693.776 117.489 694.029 117.46 694.279 117.482C694.53 117.504 694.774 117.577 694.996 117.696C695.218 117.815 695.413 117.977 695.571 118.174C695.728 118.371 695.843 118.597 695.91 118.84L710 161.8L701.55 204.51L735.1 239.74L700.1 286.74L642.5 326.85L565.78 357.85L475 377.52L377.05 384.24ZM15.2104 192.47L23.2104 235.79L54.1004 203.34L54.5004 203.19L99.1504 186.45L92.3604 153L47.7104 163.43L15.2104 192.47Z" fill="white"/>
<path d="M540.07 221.08C539.669 221.081 539.279 220.951 538.96 220.71L515.28 203.1L506.82 166.25L515.68 122.56L475.98 107.56L428.53 97.86L379.61 94.67V140.89L330.28 144.11L287 153L282 183.87L326.8 174.59C327.043 174.529 327.297 174.517 327.545 174.556C327.793 174.596 328.03 174.685 328.243 174.818C328.456 174.952 328.639 175.127 328.782 175.333C328.925 175.539 329.025 175.772 329.076 176.018C329.127 176.264 329.127 176.518 329.077 176.764C329.027 177.01 328.928 177.243 328.785 177.45C328.643 177.657 328.46 177.832 328.247 177.966C328.035 178.1 327.798 178.19 327.55 178.23L277.42 188.6L283.76 149.91L329.93 140.43L375.93 137.43V90.73L429.17 94.22L477.17 104.06L520 120.2L510.67 166.2L518.67 200.94L541.24 217.73C541.552 217.963 541.783 218.288 541.9 218.66C542.018 219.031 542.015 219.43 541.894 219.8C541.772 220.17 541.538 220.493 541.223 220.723C540.908 220.952 540.529 221.077 540.14 221.08H540.07Z" fill="white"/>
<path d="M318.85 191.14C318.517 191.139 318.191 191.048 317.905 190.877C317.619 190.707 317.384 190.463 317.225 190.171C317.066 189.879 316.988 189.549 316.999 189.217C317.01 188.884 317.111 188.561 317.29 188.28L325.58 175.41C325.711 175.205 325.881 175.028 326.081 174.889C326.281 174.75 326.506 174.652 326.744 174.6C326.981 174.548 327.227 174.543 327.467 174.586C327.706 174.629 327.935 174.719 328.14 174.85C328.345 174.981 328.522 175.152 328.661 175.352C328.8 175.551 328.898 175.776 328.95 176.014C329.002 176.252 329.007 176.497 328.964 176.737C328.921 176.977 328.831 177.205 328.7 177.41L320.41 190.29C320.242 190.551 320.011 190.766 319.738 190.915C319.466 191.063 319.16 191.141 318.85 191.14Z" fill="white"/>
<path d="M548.89 224.54C548.535 224.537 548.188 224.433 547.89 224.24L516.1 203.69L474.24 187.64L468.24 151.54L474.77 105.13L490.86 62.9999L435 51.7299L446.62 19.4899L377.81 15.0799L305.71 19.6599L293.71 8.46994C293.532 8.30382 293.388 8.10428 293.288 7.88271C293.187 7.66113 293.131 7.42187 293.122 7.17858C293.105 6.68724 293.284 6.20931 293.62 5.84994C293.955 5.49058 294.42 5.2792 294.911 5.26232C295.403 5.24545 295.88 5.42445 296.24 5.75994L307.04 15.8499L377.78 11.3599H377.9L451.75 16.0999L440 48.9999L495.9 60.2599L478.3 106.26L472 151.49L477.58 184.93L518 200.46L549.95 221.12C550.285 221.338 550.542 221.658 550.681 222.033C550.82 222.408 550.835 222.818 550.722 223.202C550.61 223.586 550.377 223.923 550.058 224.165C549.738 224.406 549.35 224.537 548.95 224.54H548.89Z" fill="white"/>
<path d="M377.07 334.91H376.94L288.21 328.82L206.09 311.1L136.74 283.25L136.57 283.13L84.6705 247.24L53.4105 205.7L44.9205 161.61L57.2405 124.67L30.2405 146.23C30.0521 146.399 29.8312 146.529 29.5912 146.609C29.3512 146.69 29.0972 146.722 28.8447 146.701C28.5923 146.68 28.3467 146.608 28.1231 146.489C27.8995 146.37 27.7025 146.207 27.5443 146.009C27.3861 145.811 27.2699 145.583 27.2029 145.339C27.1359 145.095 27.1196 144.839 27.1548 144.588C27.19 144.338 27.2761 144.097 27.4077 143.88C27.5394 143.664 27.7139 143.477 27.9205 143.33L59.6805 117.94L95.2805 78.5601L139.59 79.1401L106.49 116.14L62.3705 121L48.7405 161.86L56.9005 204.16L87.2705 244.53L138.51 280L207.33 307.63L288.86 325.19L377.07 331.19L465.3 325.19L546.91 307.67L615.85 280.08L667.25 244.67L696.57 206L654.081 190L627.48 224.57L580.641 223.44L605.49 191.51C605.804 191.156 606.241 190.934 606.711 190.891C607.182 190.847 607.652 190.984 608.026 191.275C608.399 191.565 608.648 191.987 608.721 192.454C608.794 192.922 608.687 193.399 608.42 193.79L588.1 219.91L625.68 220.81L652.81 185.56L702.54 204.23L669.85 247.39L669.6 247.56L617.42 283.45L547.841 311.27L465.68 328.89L377.07 334.91ZM96.9405 82.2901L65.6505 116.91L104.7 112.57L131.41 82.7401L96.9405 82.2901Z" fill="white"/>
<path d="M172.41 254.81C171.938 254.824 171.478 254.657 171.126 254.343C170.773 254.029 170.554 253.592 170.513 253.121C170.472 252.651 170.612 252.182 170.906 251.812C171.199 251.442 171.623 251.198 172.09 251.13L207 245C207.24 244.958 207.485 244.964 207.723 245.016C207.96 245.069 208.185 245.169 208.384 245.308C208.583 245.448 208.753 245.626 208.884 245.831C209.014 246.036 209.103 246.265 209.145 246.505C209.187 246.745 209.181 246.99 209.128 247.228C209.076 247.465 208.976 247.69 208.837 247.889C208.697 248.088 208.519 248.258 208.314 248.389C208.109 248.519 207.88 248.608 207.64 248.65L172.64 254.83C172.563 254.829 172.486 254.822 172.41 254.81Z" fill="white"/>
<path d="M208.999 454.54C208.603 454.544 208.217 454.417 207.899 454.18L188.599 439.92L180.949 403.54L187.129 355.29L205.129 308.46L228.679 277.37L171.679 254.68C171.245 254.481 170.903 254.123 170.725 253.68C170.547 253.236 170.547 252.741 170.725 252.297C170.902 251.853 171.244 251.495 171.679 251.296C172.113 251.098 172.608 251.074 173.059 251.23L234.569 275.72L208.379 310.29L190.629 356.42L184.629 403.42L191.869 437.8L210.029 451.22C210.342 451.454 210.573 451.78 210.69 452.152C210.808 452.525 210.804 452.924 210.682 453.295C210.559 453.666 210.323 453.988 210.006 454.217C209.69 454.446 209.31 454.569 208.919 454.57L208.999 454.54Z" fill="white"/>
<path d="M377.2 478.59C376.957 478.591 376.717 478.545 376.493 478.453C376.268 478.361 376.064 478.226 375.892 478.055C375.72 477.884 375.584 477.68 375.491 477.457C375.398 477.233 375.35 476.993 375.35 476.75L375.27 465.52L375.19 382.38L375.26 298.38L297.34 293.09L313.34 277.37C313.69 277.025 314.163 276.834 314.654 276.837C315.145 276.841 315.615 277.04 315.96 277.39C316.305 277.74 316.496 278.213 316.492 278.704C316.489 279.196 316.29 279.665 315.94 280.01L305.86 289.94L379.01 294.94L378.94 382.43L379.09 476.77C379.091 477.014 379.044 477.256 378.952 477.483C378.86 477.709 378.724 477.915 378.552 478.088C378.38 478.262 378.176 478.4 377.951 478.495C377.726 478.589 377.484 478.639 377.24 478.64L377.2 478.59Z" fill="white"/>
<path d="M377.13 467.37H377L278.34 460.45L274 422L377.06 429.18L476.06 422.32L473 375.91L463.73 327.53L451.37 293.53L375.21 298.66L375.29 282.95C375.295 282.459 375.493 281.99 375.841 281.644C376.189 281.298 376.659 281.103 377.15 281.1C377.642 281.105 378.111 281.305 378.456 281.655C378.801 282.006 378.993 282.479 378.99 282.97L379 294.64L453.95 289.58L467.39 326.69L476.75 375.55L480.06 425.72L377.06 432.85H376.93L278.2 426L281.68 457L377.13 463.7L474.13 456.93C474.621 456.902 475.104 457.066 475.477 457.386C475.85 457.707 476.084 458.16 476.13 458.65C476.149 458.895 476.119 459.142 476.042 459.375C475.966 459.609 475.843 459.825 475.682 460.011C475.521 460.197 475.325 460.349 475.105 460.459C474.885 460.569 474.645 460.634 474.4 460.65L377.13 467.37Z" fill="white"/>
<path d="M289.82 472.45C289.544 472.451 289.272 472.39 289.023 472.273C288.774 472.155 288.554 471.983 288.38 471.77L279 460.37L189.57 440.56L113 409L102.38 371.75C102.29 371.509 102.252 371.252 102.267 370.995C102.282 370.738 102.35 370.488 102.466 370.258C102.583 370.029 102.746 369.827 102.945 369.664C103.144 369.501 103.374 369.381 103.622 369.312C103.87 369.242 104.129 369.225 104.384 369.261C104.638 369.297 104.883 369.385 105.101 369.52C105.32 369.655 105.508 369.835 105.654 370.046C105.801 370.258 105.901 370.497 105.95 370.75L116.08 406.27L190.85 437.11L281 457L291.21 469.39C291.421 469.662 291.553 469.988 291.59 470.331C291.627 470.673 291.568 471.02 291.42 471.331C291.271 471.642 291.039 471.906 290.75 472.093C290.46 472.28 290.125 472.383 289.78 472.39L289.82 472.45Z" fill="white"/>
<path d="M277.819 426.23L182.119 405.18L103.429 372.94C102.99 372.742 102.644 372.381 102.466 371.933C102.288 371.485 102.29 370.985 102.473 370.539C102.656 370.093 103.005 369.735 103.446 369.541C103.888 369.348 104.387 369.333 104.839 369.5L183.369 401.69L274.369 421.69L277.369 375.29L286.819 326.38L299.069 292.88L231.229 278.38C230.976 278.345 230.733 278.258 230.516 278.125C230.298 277.991 230.11 277.815 229.963 277.606C229.817 277.397 229.715 277.16 229.664 276.91C229.613 276.659 229.614 276.401 229.667 276.152C229.72 275.902 229.823 275.666 229.972 275.458C230.12 275.25 230.309 275.075 230.528 274.943C230.747 274.812 230.99 274.727 231.243 274.694C231.497 274.66 231.754 274.679 231.999 274.75L303.999 290.14L290.329 327.51L281.019 375.88L277.819 426.23Z" fill="white"/>
<path d="M231.65 278.4C231.218 278.405 230.798 278.258 230.463 277.985C230.128 277.712 229.899 277.33 229.816 276.906C229.733 276.482 229.801 276.042 230.008 275.663C230.215 275.284 230.548 274.989 230.95 274.83L255.95 264.59C256.402 264.423 256.902 264.438 257.343 264.632C257.785 264.825 258.134 265.183 258.317 265.629C258.499 266.075 258.502 266.575 258.323 267.023C258.145 267.471 257.8 267.832 257.36 268.03L232.41 278.26C232.17 278.363 231.911 278.41 231.65 278.4Z" fill="white"/>
<path d="M142.56 164L91.4102 152.06L104.41 111.92L153.13 130.25L142.56 164ZM96.1902 149.36L140.05 159.56L148.56 132.49L106.77 116.76L96.1902 149.36Z" fill="white"/>
</g>
<defs>
<clipPath id="clip0_567_2151">
<rect width="755.03" height="478.6" fill="white"/>
</clipPath>
</defs>
</svg>
