<svg width="320" height="490" viewBox="0 0 320 490" fill="none" xmlns="http://www.w3.org/2000/svg">
<mask id="mask0_529_3765" style="mask-type:alpha" maskUnits="userSpaceOnUse" x="0" y="0" width="320" height="490">
<rect width="320" height="490" transform="matrix(-1 0 0 1 320 0)" fill="#C4C4C4"/>
</mask>
<g mask="url(#mask0_529_3765)">
<path d="M381.218 776.001L380.877 775.806L330.722 747.004L299.277 727.314L251.709 680.746L205.839 616.981L165.111 540.442L132.617 456.781L110.904 372.179L101.562 293.065L105.163 225.381L115.367 189.81L133.147 132.882L163.407 97.5703L198.221 69.5666L239.438 58.083L283.302 54.1829L329.503 67.2148L364.821 87.2897L409.268 119.077L453.923 168.364L496.045 231.704L533.096 304.928L562.896 383.498L583.67 462.642L594.113 537.568L593.442 603.708L581.599 656.367L568.38 694.112L543.263 734.104L507.987 759.851L470.654 779.021L426.168 781.109L381.218 776.001ZM301.735 724.515L332.632 743.819L382.402 772.394L426.437 777.361L469.653 775.223L506.147 756.48L540.468 731.439L565.096 692.227L578.029 655.317L589.777 603.088L590.398 537.68L580.004 463.264L559.322 384.549L529.684 306.302L492.785 233.439L450.929 170.46L406.676 121.643L362.751 90.3379L327.824 70.5437L282.909 57.9289L239.941 61.7688L199.957 72.9409L165.868 100.362L136.463 134.723L118.914 190.905L108.849 225.996L105.29 293.06L114.579 371.6L136.191 455.73L168.512 539.034L209.051 615.119L254.615 678.439L301.735 724.515Z" fill="#EAFF62"/>
<path d="M467.537 615.047C467.361 614.998 467.192 614.925 467.036 614.83L434.859 594.82L401.561 560.679L369.497 514.59L340.934 459.686L317.983 399.909L302.357 339.61L295.18 283.17L296.918 234.801L307.367 197.815C307.509 197.347 307.826 196.952 308.253 196.713C308.68 196.474 309.183 196.41 309.657 196.534C310.129 196.669 310.53 196.986 310.77 197.415C311.01 197.844 311.07 198.35 310.938 198.824L300.61 235.397L298.897 283.171L306.02 339.039L321.621 398.927L344.43 458.304L372.74 512.839L404.532 558.514L437.334 592.15L468.976 611.726C469.354 611.961 469.635 612.324 469.768 612.749C469.902 613.174 469.878 613.632 469.702 614.041C469.526 614.45 469.209 614.783 468.809 614.978C468.409 615.173 467.952 615.218 467.522 615.105L467.537 615.047Z" fill="#EAFF62"/>
<path d="M298.271 237.866C298.032 237.802 297.808 237.689 297.614 237.535C297.419 237.386 297.255 237.2 297.132 236.988C297.01 236.775 296.93 236.541 296.899 236.297C296.868 236.054 296.886 235.806 296.951 235.57C297.017 235.333 297.128 235.112 297.28 234.919L310.784 217.749C311.088 217.363 311.533 217.113 312.022 217.054C312.51 216.996 313.002 217.134 313.388 217.438C313.775 217.742 314.025 218.187 314.084 218.675C314.142 219.164 314.004 219.655 313.7 220.042L300.215 237.217C299.99 237.504 299.686 237.718 299.341 237.834C298.995 237.949 298.623 237.96 298.271 237.866Z" fill="#EAFF62"/>
<path d="M408.808 567.787C408.406 567.679 408.052 567.44 407.803 567.106C407.555 566.773 407.425 566.365 407.437 565.949L407.909 547.224L400.933 494.015L386.271 437.691L364.88 381.831L338.079 330.009L307.535 285.59L296.076 273.492C295.761 273.13 295.598 272.661 295.62 272.182C295.643 271.704 295.85 271.252 296.197 270.922C296.545 270.592 297.006 270.408 297.486 270.41C297.965 270.412 298.425 270.599 298.77 270.932L310.514 283.396L341.287 328.239L368.263 380.45L389.837 436.669L404.601 493.424L411.629 547.175L411.149 566.043C411.144 566.287 411.09 566.528 410.991 566.751C410.893 566.974 410.751 567.176 410.574 567.344C410.397 567.512 410.189 567.644 409.961 567.731C409.733 567.818 409.49 567.86 409.246 567.853C409.097 567.85 408.95 567.828 408.808 567.787Z" fill="#EAFF62"/>
<path d="M415.444 574.586L415.357 574.562C415.126 574.482 414.912 574.357 414.729 574.193C414.546 574.03 414.397 573.833 414.291 573.612C414.185 573.391 414.123 573.151 414.11 572.906C414.097 572.662 414.132 572.417 414.213 572.185L417.804 561.76L418.779 521.997L412.771 476.419L400.196 428.108L381.853 380.188L357.775 333.547L396.136 324.217L436.018 304.156L412.142 268.771L371.928 292.315L345.648 264.36L306.169 269.166L296.89 263.885C296.678 263.765 296.491 263.605 296.341 263.413C296.191 263.221 296.08 263.001 296.015 262.766C295.95 262.532 295.932 262.286 295.962 262.045C295.992 261.803 296.07 261.569 296.19 261.357C296.436 260.931 296.84 260.618 297.315 260.487C297.79 260.357 298.298 260.419 298.727 260.66L306.937 265.335L347.06 260.442L372.567 287.651L413.237 263.836L441.401 305.547L397.149 327.74L363.159 336.014L385.194 378.733L403.673 427.031L416.357 475.785L422.402 521.922L421.42 562.407L417.625 573.4C417.472 573.831 417.164 574.191 416.762 574.41C416.359 574.629 415.89 574.691 415.444 574.586Z" fill="#EAFF62"/>
<path d="M366.092 382.87C365.673 382.756 365.306 382.499 365.057 382.143C364.808 381.787 364.691 381.354 364.727 380.921C364.763 380.488 364.95 380.081 365.255 379.771C365.56 379.461 365.963 379.268 366.396 379.225L383.129 377.59L415.702 366.875L395.155 326.916L371.383 291.993L333.604 298.528L305.369 268.673L296.874 263.829C296.661 263.709 296.475 263.549 296.325 263.357C296.174 263.165 296.064 262.946 295.999 262.711C295.934 262.476 295.916 262.231 295.946 261.989C295.976 261.747 296.053 261.514 296.174 261.302C296.42 260.875 296.824 260.562 297.299 260.432C297.774 260.301 298.281 260.363 298.711 260.605L307.888 265.921L334.904 294.528L373.106 287.92L398.419 325.088L420.998 369.019L383.694 381.24L366.754 382.913C366.532 382.939 366.308 382.925 366.092 382.87Z" fill="#EAFF62"/>
<path d="M166.344 541.6C165.916 541.485 165.543 541.221 165.293 540.856C165.042 540.491 164.93 540.048 164.977 539.607C165.024 539.167 165.227 538.757 165.549 538.453C165.87 538.148 166.29 537.969 166.733 537.946L183.375 537.115L217.581 526.217L180.992 431.645C180.904 431.417 180.861 431.175 180.867 430.931C180.873 430.687 180.927 430.447 181.026 430.224C181.124 430.001 181.266 429.799 181.442 429.631C181.619 429.463 181.827 429.331 182.054 429.243C182.282 429.155 182.524 429.113 182.768 429.119C183.012 429.124 183.252 429.178 183.475 429.277C183.698 429.376 183.9 429.517 184.068 429.694C184.236 429.87 184.368 430.078 184.456 430.306L222.473 528.553L183.803 540.812L166.918 541.661C166.724 541.67 166.531 541.65 166.344 541.6Z" fill="#EAFF62"/>
<path d="M228.272 625.528C228.026 625.461 227.796 625.345 227.596 625.187C227.396 625.028 227.231 624.831 227.111 624.606L181.977 539.629L145.353 445.182L182.009 429.277C182.456 429.109 182.95 429.119 183.389 429.306C183.829 429.492 184.18 429.84 184.37 430.278C184.559 430.716 184.574 431.21 184.409 431.658C184.245 432.106 183.915 432.474 183.487 432.686L150.133 447.166L185.389 538.214L230.385 622.895C230.553 623.215 230.623 623.576 230.589 623.935C230.555 624.294 230.417 624.635 230.192 624.917C229.967 625.199 229.665 625.41 229.323 625.523C228.981 625.637 228.613 625.649 228.264 625.557L228.272 625.528Z" fill="#EAFF62"/>
<path d="M412.426 718.105C412.114 718.021 411.829 717.856 411.602 717.625L359.594 665.643L310.262 595.868L265.842 617.954L217.434 526.457L265.241 506.449L307.885 484.964L335.496 467.267L341.062 458.085C341.182 457.867 341.344 457.675 341.539 457.521C341.733 457.367 341.957 457.254 342.197 457.189C342.436 457.123 342.687 457.107 342.933 457.14C343.179 457.173 343.416 457.256 343.629 457.382C343.843 457.509 344.029 457.678 344.176 457.878C344.323 458.078 344.428 458.305 344.485 458.547C344.543 458.789 344.55 459.039 344.509 459.284C344.467 459.529 344.376 459.763 344.242 459.972L338.232 469.884L309.66 488.193L266.803 509.818L222.611 528.31L267.43 612.996L311.456 591.104L362.582 663.338L414.269 714.975C414.561 715.263 414.75 715.639 414.805 716.046C414.86 716.452 414.779 716.866 414.573 717.221C414.368 717.576 414.05 717.853 413.671 718.008C413.291 718.163 412.87 718.187 412.475 718.077L412.426 718.105Z" fill="#EAFF62"/>
<path d="M112.268 373.734C112.121 373.694 111.98 373.636 111.849 373.56C111.635 373.442 111.447 373.283 111.295 373.092C111.143 372.902 111.03 372.683 110.963 372.448C110.896 372.214 110.876 371.969 110.904 371.726C110.932 371.484 111.008 371.25 111.127 371.037L122.279 351.094L155.654 332.633L144.864 243.12C144.805 242.632 144.943 242.141 145.246 241.754C145.55 241.368 145.995 241.117 146.483 241.059C146.971 241 147.462 241.138 147.849 241.441C148.235 241.745 148.485 242.189 148.544 242.677L159.639 334.684L125 353.842L114.366 372.857C114.163 373.215 113.846 373.495 113.467 373.654C113.087 373.812 112.665 373.841 112.268 373.734Z" fill="#EAFF62"/>
<path d="M133.913 458.09C133.577 458 133.272 457.818 133.035 457.564C132.797 457.309 132.636 456.993 132.569 456.652C132.502 456.31 132.532 455.957 132.656 455.632C132.779 455.306 132.992 455.023 133.269 454.812L145.587 445.431L121.784 352.669L111.263 264.088L145.68 241.351C146.092 241.094 146.587 241.009 147.061 241.113C147.535 241.217 147.949 241.501 148.216 241.906C148.483 242.311 148.581 242.805 148.49 243.281C148.398 243.757 148.124 244.179 147.726 244.456L115.212 265.922L125.464 352.113L149.832 446.899L135.529 457.778C135.302 457.952 135.038 458.071 134.758 458.125C134.477 458.179 134.188 458.167 133.913 458.09Z" fill="#EAFF62"/>
<path d="M310.415 595.298C310.023 595.195 309.676 594.964 309.431 594.641C309.281 594.449 309.17 594.229 309.105 593.994C309.04 593.759 309.022 593.513 309.052 593.271C309.082 593.029 309.16 592.795 309.281 592.583C309.402 592.372 309.563 592.186 309.756 592.036L347.944 562.494L369.125 534.408L335.205 469.28L306.253 393.96L320.307 397.726C320.751 397.881 321.119 398.197 321.339 398.612C321.559 399.028 321.614 399.51 321.492 399.964C321.37 400.418 321.082 400.809 320.684 401.058C320.286 401.308 319.808 401.398 319.347 401.31L312.315 399.426L338.62 467.856L373.487 534.78L350.405 565.286L312.021 594.983C311.795 595.155 311.533 595.272 311.254 595.327C310.976 595.381 310.689 595.372 310.415 595.298Z" fill="#EAFF62"/>
<path d="M310.415 595.298C310.168 595.233 309.938 595.117 309.738 594.959C309.538 594.8 309.374 594.602 309.254 594.376L264.275 508.82L228.907 417.183L183.334 432.717C183.101 432.802 182.854 432.839 182.607 432.827C182.36 432.814 182.118 432.753 181.895 432.646C181.672 432.539 181.473 432.389 181.308 432.204C181.144 432.019 181.018 431.803 180.939 431.569C180.859 431.335 180.827 431.087 180.844 430.84C180.861 430.593 180.927 430.353 181.038 430.132C181.15 429.911 181.304 429.714 181.492 429.554C181.68 429.393 181.899 429.272 182.134 429.197L231.016 412.52L267.707 507.41L312.543 592.649C312.712 592.967 312.784 593.328 312.751 593.687C312.717 594.047 312.579 594.388 312.354 594.67C312.129 594.952 311.827 595.161 311.484 595.273C311.141 595.386 310.773 595.395 310.425 595.301L310.415 595.298Z" fill="#EAFF62"/>
<path d="M182.233 432.805C181.915 432.721 181.626 432.553 181.393 432.32C181.161 432.087 180.995 431.797 180.912 431.478L155.392 332.335L205.521 318.85L254.738 315.411L291.386 322.446L305.571 338.163C305.745 338.341 305.881 338.552 305.971 338.783C306.062 339.015 306.105 339.262 306.097 339.511C306.09 339.759 306.032 340.004 305.928 340.229C305.824 340.455 305.676 340.658 305.492 340.825C305.308 340.992 305.092 341.12 304.857 341.202C304.623 341.284 304.374 341.318 304.126 341.301C303.878 341.285 303.636 341.219 303.414 341.107C303.192 340.995 302.995 340.839 302.835 340.649L289.478 325.858L254.261 319.124L205.946 322.556L159.896 334.96L184.506 430.505C184.629 430.982 184.557 431.487 184.308 431.911C184.058 432.336 183.651 432.643 183.175 432.768C182.87 432.864 182.545 432.877 182.233 432.805Z" fill="#EAFF62"/>
<path d="M134.323 135.598C133.939 135.508 133.594 135.299 133.334 135.002C133.029 134.615 132.89 134.123 132.947 133.634C133.005 133.145 133.254 132.698 133.64 132.392L167.4 105.618C167.592 105.465 167.812 105.352 168.047 105.284C168.283 105.217 168.529 105.196 168.773 105.224C169.016 105.252 169.252 105.327 169.466 105.446C169.681 105.565 169.87 105.725 170.022 105.917C170.175 106.108 170.288 106.328 170.355 106.564C170.423 106.799 170.443 107.046 170.416 107.289C170.388 107.533 170.313 107.769 170.194 107.983C170.075 108.197 169.915 108.386 169.723 108.539L135.954 135.269C135.727 135.447 135.461 135.569 135.178 135.626C134.895 135.684 134.602 135.674 134.323 135.598Z" fill="#EAFF62"/>
<path d="M102.95 294.917L102.815 294.881C102.582 294.802 102.368 294.677 102.184 294.514C102.001 294.351 101.851 294.153 101.745 293.932C101.638 293.711 101.577 293.471 101.564 293.226C101.552 292.98 101.588 292.735 101.671 292.504L111.394 264.641L115.335 189.387L148.944 164.415L166.793 106.532C166.856 106.294 166.967 106.072 167.121 105.879C167.274 105.687 167.465 105.528 167.683 105.413C167.9 105.298 168.139 105.23 168.385 105.212C168.63 105.194 168.876 105.227 169.108 105.31C169.342 105.382 169.56 105.499 169.748 105.656C169.936 105.813 170.091 106.005 170.205 106.223C170.318 106.44 170.387 106.677 170.408 106.921C170.428 107.165 170.4 107.411 170.325 107.644L152.122 166.695L118.958 191.321L115.071 265.368L105.162 293.771C105.002 294.203 104.687 294.56 104.278 294.772C103.869 294.984 103.395 295.036 102.95 294.917Z" fill="#EAFF62"/>
<path d="M296.577 285.066C296.34 285.002 296.117 284.891 295.923 284.739C295.729 284.588 295.567 284.399 295.447 284.183L280.248 257.335C280.123 257.122 280.041 256.887 280.008 256.642C279.975 256.397 279.99 256.149 280.054 255.91C280.118 255.672 280.228 255.448 280.379 255.253C280.53 255.058 280.718 254.894 280.933 254.772C281.148 254.651 281.385 254.573 281.63 254.544C281.875 254.514 282.123 254.534 282.361 254.602C282.598 254.669 282.82 254.783 283.012 254.938C283.205 255.092 283.365 255.283 283.484 255.5L298.673 282.346C298.857 282.663 298.942 283.029 298.918 283.395C298.894 283.762 298.761 284.113 298.537 284.404C298.312 284.694 298.006 284.912 297.658 285.028C297.309 285.144 296.934 285.154 296.58 285.056L296.577 285.066Z" fill="#EAFF62"/>
<path d="M228.629 417.14L203.79 320.943L193.257 235.185L147.076 244.717C146.603 244.794 146.119 244.685 145.724 244.413C145.33 244.141 145.056 243.728 144.958 243.258C144.861 242.789 144.949 242.301 145.203 241.895C145.457 241.489 145.858 241.196 146.322 241.078L196.456 230.7L207.482 320.338L231.289 412.542L275.936 400.466L306.977 395.159L288.675 324.37L280.016 256.693C279.953 256.205 280.087 255.712 280.387 255.323C280.688 254.934 281.131 254.68 281.618 254.617C282.106 254.554 282.599 254.687 282.988 254.988C283.377 255.288 283.631 255.731 283.694 256.219L292.275 323.802L311.555 398.166L276.748 404.12L228.629 417.14Z" fill="#EAFF62"/>
<path d="M146.223 244.695C145.812 244.584 145.452 244.335 145.202 243.992C144.951 243.648 144.825 243.229 144.845 242.804L148.74 163.976L198.314 156.306L248.029 168.591L285.555 197.385L300.476 234.429C300.566 234.657 300.611 234.901 300.607 235.146C300.603 235.392 300.551 235.634 300.454 235.859C300.357 236.085 300.216 236.288 300.04 236.459C299.863 236.63 299.655 236.765 299.427 236.855C299.199 236.946 298.955 236.99 298.71 236.987C298.464 236.983 298.222 236.931 297.997 236.833C297.771 236.736 297.568 236.595 297.397 236.419C297.226 236.243 297.091 236.035 297.001 235.807L282.418 199.702L246.363 171.986L198.117 160.094L152.311 167.148L148.553 242.99C148.529 243.482 148.311 243.944 147.947 244.276C147.582 244.607 147.102 244.78 146.61 244.757C146.479 244.751 146.349 244.731 146.223 244.695Z" fill="#EAFF62"/>
<path d="M359.994 336.585C359.565 336.47 359.191 336.204 358.942 335.837L333.024 297.989L308.259 286.094C307.846 285.864 307.536 285.485 307.392 285.034C307.248 284.583 307.282 284.094 307.486 283.667C307.69 283.24 308.05 282.907 308.491 282.736C308.932 282.564 309.422 282.568 309.861 282.745L335.543 295.082L362.029 333.745C362.242 334.058 362.355 334.429 362.352 334.809C362.349 335.188 362.229 335.558 362.01 335.868C361.791 336.177 361.482 336.412 361.125 336.542C360.768 336.671 360.38 336.688 360.014 336.59L359.994 336.585Z" fill="#EAFF62"/>
<path d="M297.877 248.92C297.455 248.81 297.085 248.554 296.833 248.198C296.581 247.841 296.464 247.407 296.501 246.972C296.538 246.538 296.728 246.13 297.037 245.822C297.345 245.513 297.753 245.324 298.188 245.287L320.65 243.251C321.14 243.207 321.627 243.359 322.005 243.673C322.382 243.988 322.62 244.44 322.664 244.93C322.709 245.419 322.557 245.907 322.242 246.284C321.927 246.662 321.475 246.899 320.986 246.944L298.523 248.98C298.306 249 298.087 248.98 297.877 248.92Z" fill="#EAFF62"/>
<path d="M298.138 241.609C297.661 241.481 297.255 241.17 297.008 240.742C296.762 240.315 296.695 239.808 296.823 239.331C296.95 238.855 297.262 238.448 297.689 238.202C298.116 237.955 298.624 237.888 299.101 238.016L321.296 243.311C321.548 243.353 321.788 243.446 322.002 243.584C322.215 243.723 322.399 243.904 322.54 244.116C322.681 244.328 322.777 244.567 322.822 244.818C322.867 245.068 322.859 245.326 322.801 245.574C322.742 245.822 322.633 246.055 322.481 246.259C322.328 246.463 322.136 246.634 321.914 246.76C321.693 246.887 321.449 246.966 321.195 246.994C320.942 247.022 320.686 246.998 320.442 246.923L298.244 241.638L298.138 241.609Z" fill="#EAFF62"/>
<path d="M298.19 240.256C297.797 240.147 297.449 239.916 297.197 239.596C296.899 239.204 296.768 238.709 296.833 238.22C296.898 237.732 297.154 237.289 297.544 236.987L331.661 210.774L350.105 166.82C350.295 166.367 350.657 166.009 351.112 165.823C351.567 165.637 352.076 165.639 352.529 165.829C352.982 166.019 353.341 166.381 353.527 166.836C353.713 167.29 353.711 167.8 353.521 168.253L334.709 213.113L299.777 239.936C299.553 240.105 299.295 240.222 299.02 240.278C298.745 240.333 298.461 240.326 298.19 240.256Z" fill="#EAFF62"/>
<path d="M326.853 177.175C326.512 177.087 326.204 176.902 325.965 176.644C325.726 176.385 325.566 176.063 325.505 175.717L316.806 128.01L286.967 88.9559L244.045 68.8623L200.014 73.0384L169.968 108.283C169.645 108.654 169.189 108.884 168.699 108.923C168.208 108.961 167.722 108.807 167.345 108.491C166.971 108.17 166.74 107.713 166.703 107.222C166.666 106.73 166.825 106.244 167.146 105.87L198.162 69.4779L244.693 65.0915L289.362 86.0054L320.305 126.463L329.152 175.048C329.212 175.356 329.193 175.674 329.096 175.973C328.999 176.271 328.827 176.54 328.596 176.753C328.366 176.966 328.085 177.117 327.78 177.191C327.474 177.265 327.155 177.259 326.853 177.175Z" fill="#EAFF62"/>
<path d="M168.071 108.872C167.653 108.76 167.288 108.505 167.038 108.152C166.788 107.799 166.668 107.369 166.701 106.938C166.733 106.506 166.915 106.1 167.214 105.788C167.514 105.476 167.913 105.278 168.343 105.229L215.057 99.7732C215.309 99.724 215.568 99.7275 215.819 99.7834C216.069 99.8394 216.305 99.9465 216.512 100.098C216.719 100.25 216.893 100.443 217.022 100.665C217.151 100.887 217.232 101.133 217.261 101.388C217.29 101.643 217.266 101.901 217.191 102.146C217.115 102.391 216.99 102.618 216.822 102.813C216.655 103.007 216.449 103.165 216.218 103.276C215.986 103.387 215.734 103.449 215.478 103.458L168.771 108.925C168.536 108.947 168.3 108.929 168.071 108.872Z" fill="#EAFF62"/>
<path d="M283.6 259.393L243.925 239.776L192.919 234.629L196.392 157.841L213.494 101.084C213.551 100.835 213.658 100.601 213.809 100.396C213.96 100.191 214.151 100.018 214.371 99.8903C214.592 99.762 214.836 99.6804 215.089 99.6504C215.342 99.6204 215.598 99.6427 215.842 99.7159C216.086 99.7891 216.313 99.9116 216.507 100.076C216.702 100.24 216.861 100.443 216.974 100.671C217.087 100.899 217.152 101.148 217.165 101.403C217.178 101.657 217.139 101.912 217.049 102.15L200.085 158.468L196.757 231.278L244.942 236.135L245.243 236.288L280.082 253.512L282.212 198.271L294.871 154.04C295.007 153.573 295.321 153.178 295.744 152.939C296.168 152.7 296.669 152.637 297.139 152.763C297.372 152.83 297.591 152.942 297.781 153.093C297.971 153.244 298.13 153.431 298.248 153.643C298.366 153.856 298.441 154.089 298.469 154.331C298.497 154.572 298.477 154.817 298.41 155.05L285.872 198.868L283.6 259.393Z" fill="#EAFF62"/>
<path d="M308.698 200.149C308.388 200.066 308.104 199.905 307.874 199.68C307.644 199.455 307.476 199.175 307.386 198.866L294.833 155.034C294.766 154.799 294.745 154.554 294.773 154.312C294.801 154.07 294.876 153.836 294.994 153.623C295.112 153.41 295.271 153.222 295.461 153.071C295.652 152.919 295.871 152.807 296.105 152.74C296.339 152.672 296.584 152.652 296.826 152.68C297.068 152.707 297.302 152.782 297.515 152.901C297.728 153.019 297.916 153.178 298.067 153.368C298.219 153.559 298.332 153.777 298.399 154.012L310.952 197.844C311.084 198.318 311.024 198.825 310.785 199.255C310.545 199.686 310.146 200.004 309.674 200.142C309.355 200.232 309.018 200.235 308.698 200.149Z" fill="#EAFF62"/>
<path d="M308.688 200.147C308.447 200.081 308.22 199.967 308.022 199.813C307.827 199.665 307.663 199.479 307.54 199.266C307.417 199.054 307.338 198.819 307.307 198.575C307.276 198.332 307.294 198.085 307.359 197.848C307.424 197.612 307.536 197.391 307.688 197.198L325.92 174.244C326.065 174.036 326.251 173.86 326.467 173.727C326.682 173.593 326.923 173.505 327.174 173.468C327.425 173.431 327.681 173.446 327.926 173.511C328.171 173.577 328.4 173.692 328.599 173.849C328.798 174.006 328.962 174.203 329.083 174.426C329.203 174.649 329.276 174.895 329.298 175.147C329.32 175.4 329.29 175.654 329.21 175.895C329.13 176.136 329.002 176.358 328.833 176.547L310.678 199.521C310.447 199.812 310.134 200.028 309.779 200.139C309.425 200.251 309.045 200.254 308.688 200.147Z" fill="#EAFF62"/>
<path d="M311.759 220.681L311.633 220.648C311.167 220.483 310.785 220.141 310.571 219.695C310.356 219.25 310.327 218.737 310.489 218.271L325.574 174.762C325.65 174.528 325.772 174.311 325.934 174.126C326.096 173.94 326.295 173.79 326.517 173.684C326.739 173.577 326.981 173.518 327.227 173.508C327.473 173.499 327.719 173.539 327.949 173.628C328.18 173.709 328.394 173.834 328.577 173.997C328.76 174.16 328.908 174.358 329.015 174.579C329.121 174.8 329.183 175.039 329.196 175.284C329.209 175.529 329.174 175.774 329.092 176.005L313.998 219.511C313.843 219.953 313.525 220.321 313.109 220.538C312.693 220.755 312.211 220.806 311.759 220.681Z" fill="#EAFF62"/>
<path d="M346.363 264.552L317.583 245.152L353.796 218.921L333.297 213.863L312.846 220.641C312.402 220.723 311.943 220.64 311.555 220.409C311.167 220.177 310.876 219.812 310.738 219.381C310.6 218.951 310.623 218.485 310.803 218.071C310.983 217.656 311.308 217.322 311.716 217.129L333.199 210.017L362.516 217.251L324.125 245.042L346.389 260.128L383.902 235.343L409.929 197.593L379.018 175.986L381.106 127.587C381.116 127.344 381.174 127.105 381.277 126.884C381.379 126.663 381.524 126.465 381.703 126.3C381.883 126.135 382.093 126.007 382.321 125.923C382.55 125.839 382.793 125.801 383.036 125.811C383.28 125.822 383.519 125.88 383.74 125.982C383.961 126.085 384.159 126.23 384.324 126.409C384.489 126.588 384.617 126.798 384.701 127.027C384.785 127.256 384.822 127.499 384.812 127.742L382.807 174.134L415.075 196.663L386.532 238.046L386.24 238.247L346.363 264.552Z" fill="#EAFF62"/>
<path d="M412.188 268.1C411.843 268.015 411.532 267.827 411.297 267.561L383.989 238.11L355.709 218.699L378.174 176.278L350.098 169.013L346.222 118.375C346.184 117.884 346.343 117.399 346.664 117.026C346.984 116.652 347.44 116.422 347.93 116.384C348.421 116.347 348.906 116.506 349.279 116.826C349.653 117.147 349.884 117.602 349.921 118.093L353.625 166.087L383.636 173.859L360.552 217.512L386.591 235.432L414.022 265.082C414.294 265.378 414.463 265.756 414.503 266.157C414.543 266.557 414.451 266.961 414.242 267.305C414.033 267.649 413.718 267.917 413.344 268.067C412.97 268.216 412.557 268.241 412.168 268.136L412.188 268.1Z" fill="#EAFF62"/>
<path d="M296.145 156.317C295.895 156.251 295.662 156.132 295.462 155.968C295.079 155.659 294.833 155.211 294.78 154.721C294.727 154.231 294.87 153.74 295.179 153.356L317.464 125.629L347.523 116.456C347.995 116.308 348.506 116.354 348.945 116.583C349.383 116.812 349.713 117.206 349.861 117.678C350.009 118.15 349.963 118.662 349.734 119.1C349.505 119.539 349.111 119.868 348.639 120.016L319.683 128.822L298.075 155.685C297.848 155.965 297.545 156.173 297.203 156.286C296.861 156.398 296.493 156.409 296.145 156.317Z" fill="#EAFF62"/>
<path d="M485.082 704.04L439.759 676.678L392.947 629.298L347.612 564.661L307.126 487.255L274.61 402.75L252.546 317.484L242.608 237.89L245.378 169.983L259.98 120.165L212.147 102.441L243.289 65.3469L283.343 54.0693L323.569 75.6458L365.05 87.2059L386.446 130.53L346.867 119.831L322.036 79.5521L289.232 89.1179L264.685 118.91L297.936 153.225C298.106 153.4 298.239 153.607 298.328 153.834C298.417 154.06 298.461 154.302 298.457 154.546C298.453 154.789 298.401 155.03 298.304 155.253C298.206 155.476 298.066 155.679 297.891 155.848C297.716 156.017 297.509 156.15 297.283 156.239C297.056 156.329 296.814 156.372 296.57 156.368C296.327 156.364 296.087 156.312 295.863 156.215C295.64 156.118 295.438 155.978 295.269 155.802L263.143 122.617L249.072 170.61L246.319 237.911L256.207 316.923L278.154 401.733L310.544 485.821L350.824 562.872L395.874 627.069L442.212 673.939L486.33 700.503L523.309 705.453L519.955 660.399L486.509 655.517L464.822 610.924L496.748 615.876C496.989 615.913 497.221 615.998 497.43 616.125C497.639 616.252 497.82 616.419 497.965 616.616C498.109 616.814 498.213 617.037 498.27 617.275C498.328 617.512 498.339 617.759 498.301 618C498.264 618.242 498.179 618.473 498.052 618.682C497.925 618.891 497.758 619.072 497.561 619.217C497.363 619.361 497.14 619.465 496.902 619.523C496.665 619.58 496.418 619.591 496.177 619.553L471.231 615.633L488.964 652.075L523.407 657.1L527.32 709.685L485.082 704.04ZM218.387 100.79L261.642 116.821L287.089 85.8726L317.994 76.8644L282.897 58.0909L245.424 68.6212L218.387 100.79ZM349.266 116.633L379.472 124.799L362.453 90.3302L326.942 80.4424L349.266 116.633Z" fill="#EAFF62"/>
</g>
</svg>
