<svg width="43" height="43" viewBox="0 0 43 43" fill="none" xmlns="http://www.w3.org/2000/svg">
<path d="M8.00004 6.66675C6.52608 6.66675 5.33337 7.85946 5.33337 9.33341C5.33337 10.8074 6.52608 12.0001 8.00004 12.0001C8.95317 12.0001 9.82817 11.4897 10.3021 10.6667H34.6667V20.0001H20.5521L22.2761 18.2761L20.3907 16.3907L15.448 21.3334L20.3907 26.2761L22.2761 24.3907L20.5521 22.6667H37.3334V8.00008H10.3125C9.83337 7.17716 8.95317 6.66675 8.00004 6.66675ZM6.66671 20.0001C5.93233 20.0001 5.33337 20.599 5.33337 21.3334C5.33337 22.0678 5.93233 22.6667 6.66671 22.6667C7.40108 22.6667 8.00004 22.0678 8.00004 21.3334C8.00004 20.599 7.40108 20.0001 6.66671 20.0001ZM12 20.0001C11.2657 20.0001 10.6667 20.599 10.6667 21.3334C10.6667 22.0678 11.2657 22.6667 12 22.6667C12.7344 22.6667 13.3334 22.0678 13.3334 21.3334C13.3334 20.599 12.7344 20.0001 12 20.0001ZM6.66671 25.3334C5.93233 25.3334 5.33337 25.9324 5.33337 26.6667C5.33337 27.4011 5.93233 28.0001 6.66671 28.0001C7.40108 28.0001 8.00004 27.4011 8.00004 26.6667C8.00004 25.9324 7.40108 25.3334 6.66671 25.3334ZM34.6667 29.3334C33.1927 29.3334 32 30.5261 32 32.0001C32 33.474 33.1927 34.6667 34.6667 34.6667C36.1407 34.6667 37.3334 33.474 37.3334 32.0001C37.3334 30.5261 36.1407 29.3334 34.6667 29.3334ZM6.66671 30.6667C5.93233 30.6667 5.33337 31.2657 5.33337 32.0001C5.33337 32.7345 5.93233 33.3334 6.66671 33.3334C7.40108 33.3334 8.00004 32.7345 8.00004 32.0001C8.00004 31.2657 7.40108 30.6667 6.66671 30.6667ZM12 30.6667C11.2657 30.6667 10.6667 31.2657 10.6667 32.0001C10.6667 32.7345 11.2657 33.3334 12 33.3334C12.7344 33.3334 13.3334 32.7345 13.3334 32.0001C13.3334 31.2657 12.7344 30.6667 12 30.6667ZM17.3334 30.6667C16.599 30.6667 16 31.2657 16 32.0001C16 32.7345 16.599 33.3334 17.3334 33.3334C18.0677 33.3334 18.6667 32.7345 18.6667 32.0001C18.6667 31.2657 18.0677 30.6667 17.3334 30.6667ZM22.6667 30.6667C21.9323 30.6667 21.3334 31.2657 21.3334 32.0001C21.3334 32.7345 21.9323 33.3334 22.6667 33.3334C23.4011 33.3334 24 32.7345 24 32.0001C24 31.2657 23.4011 30.6667 22.6667 30.6667ZM28 30.6667C27.2657 30.6667 26.6667 31.2657 26.6667 32.0001C26.6667 32.7345 27.2657 33.3334 28 33.3334C28.7344 33.3334 29.3334 32.7345 29.3334 32.0001C29.3334 31.2657 28.7344 30.6667 28 30.6667Z" fill="#171718"/>
</svg>
