<svg width="43" height="43" viewBox="0 0 43 43" fill="none" xmlns="http://www.w3.org/2000/svg">
<path d="M3.02083 5.38013L2.3125 7.95304C5.07813 8.70825 6.76042 10.1874 7.83333 11.9166C8.91146 13.6458 9.33333 15.6666 9.33333 17.3333V17.7343L13.2708 23.6405C13.4219 23.8593 13.3437 24.0833 13.0885 24.1666L9.33333 25.3593V27.9999C9.33333 28.8749 8.84896 29.9218 8.05729 30.7135C7.26563 31.5103 6.21875 31.9999 5.33333 31.9999H2.66667V37.3333H5.33333V34.6666C7.11979 34.6666 8.73958 33.8124 9.94792 32.5989C11.151 31.3853 12 29.7708 12 27.9999V27.3072L13.8958 26.7083C15.776 26.1093 16.5885 23.7968 15.4948 22.1562L11.9375 16.8385C11.8698 14.8385 11.3906 12.5885 10.1042 10.5103C8.70833 8.27075 6.39583 6.302 3.02083 5.38013ZM39.5469 5.41138C33.9271 7.43742 30.9896 12.6405 30.7552 16.7968L27.1719 22.1562C26.0781 23.7968 26.8906 26.1093 28.7708 26.7083L30.6667 27.3072V27.9999C30.6667 29.7708 31.5156 31.3853 32.724 32.5989C33.9271 33.8124 35.5469 34.6666 37.3333 34.6666V37.3333H40V31.9999H37.3333C36.4479 31.9999 35.401 31.5103 34.6094 30.7135C33.8177 29.9218 33.3333 28.8749 33.3333 27.9999V25.3593L29.5781 24.1666C29.3229 24.0833 29.2448 23.8593 29.3958 23.6405L33.3333 17.7343V17.3333C33.3333 14.4791 35.7917 9.59888 40.4531 7.92179L39.5469 5.41138ZM5.33333 18.6666C4.59896 18.6666 4 19.2655 4 19.9999C4 20.7343 4.59896 21.3333 5.33333 21.3333C6.07292 21.3333 6.66667 20.7343 6.66667 19.9999C6.66667 19.2655 6.07292 18.6666 5.33333 18.6666ZM18.6667 18.6666C17.9323 18.6666 17.3333 19.2655 17.3333 19.9999C17.3333 20.7343 17.9323 21.3333 18.6667 21.3333C19.401 21.3333 20 20.7343 20 19.9999C20 19.2655 19.401 18.6666 18.6667 18.6666ZM23.9844 18.6666C23.25 18.6666 22.651 19.2655 22.651 19.9999C22.651 20.7343 23.25 21.3333 23.9844 21.3333C24.724 21.3333 25.3177 20.7343 25.3177 19.9999C25.3177 19.2655 24.724 18.6666 23.9844 18.6666ZM37.3333 18.6666C36.599 18.6666 36 19.2655 36 19.9999C36 20.7343 36.599 21.3333 37.3333 21.3333C38.0677 21.3333 38.6667 20.7343 38.6667 19.9999C38.6667 19.2655 38.0677 18.6666 37.3333 18.6666Z" fill="#EAFF62"/>
</svg>
