<svg width="43" height="43" viewBox="0 0 43 43" fill="none" xmlns="http://www.w3.org/2000/svg">
<path d="M4 8V33.3333H17.3333C18.8021 33.3333 20 34.5313 20 36H22.6667C22.6667 34.5313 23.8646 33.3333 25.3333 33.3333H38.6667V8H25.3333C23.7448 8 22.3125 8.70313 21.3333 9.8125C20.3542 8.70313 18.9219 8 17.3333 8H4ZM6.66667 10.6667H17.3333C18.8021 10.6667 20 11.8646 20 13.3333H22.6667C22.6667 11.8646 23.8646 10.6667 25.3333 10.6667H36V30.6667H25.3333C23.7448 30.6667 22.3125 31.3698 21.3333 32.4792C20.3542 31.3698 18.9219 30.6667 17.3333 30.6667H6.66667V10.6667ZM20 16V18.6667H22.6667V16H20ZM20 21.3333V24H22.6667V21.3333H20ZM20 26.6667V29.3333H22.6667V26.6667H20Z" fill="#171718"/>
</svg>
