<svg width="43" height="43" viewBox="0 0 43 43" fill="none" xmlns="http://www.w3.org/2000/svg">
<path d="M17.3333 5.33325V7.99992H11.9999C9.80721 7.99992 7.99992 9.80721 7.99992 11.9999V17.3333H5.33325V25.3333H13.3333V17.3333H10.6666V11.9999C10.6666 11.2447 11.2447 10.6666 11.9999 10.6666H17.3333V13.3333H25.3333V5.33325H17.3333ZM19.9999 7.99992H22.6666V10.6666H19.9999V7.99992ZM26.6666 7.99992V10.6666H30.6666C31.4218 10.6666 31.9999 11.2447 31.9999 11.9999V17.3333H29.3333V25.3333H37.3333V17.3333H34.6666V11.9999C34.6666 9.80721 32.8593 7.99992 30.6666 7.99992H26.6666ZM7.99992 19.9999H10.6666V22.6666H7.99992V19.9999ZM31.9999 19.9999H34.6666V22.6666H31.9999V19.9999ZM7.99992 26.6666V30.6666C7.99992 32.8593 9.80721 34.6666 11.9999 34.6666H17.3333V37.3333H25.3333V29.3333H17.3333V31.9999H11.9999C11.2447 31.9999 10.6666 31.4218 10.6666 30.6666V26.6666H7.99992ZM31.9999 26.6666V30.6666C31.9999 31.4218 31.4218 31.9999 30.6666 31.9999H26.6666V34.6666H30.6666C32.8593 34.6666 34.6666 32.8593 34.6666 30.6666V26.6666H31.9999ZM19.9999 31.9999H22.6666V34.6666H19.9999V31.9999Z" fill="#171718"/>
</svg>
