<svg width="43" height="43" viewBox="0 0 43 43" fill="none" xmlns="http://www.w3.org/2000/svg">
<path d="M21.3334 5.33325C20.1095 5.33325 19.0261 5.83846 18.3334 6.6145C17.6459 7.39054 17.3334 8.36971 17.3334 9.33325C17.3334 10.2968 17.6459 11.276 18.3334 12.052C18.7553 12.5208 19.349 12.8385 20.0001 13.0624V17.6041C19.573 17.7499 19.2136 17.9635 18.8751 18.2291L14.3907 15.4166C14.4376 15.1562 14.6667 14.9322 14.6667 14.6666C14.6667 13.703 14.3542 12.7239 13.6667 11.9478C12.974 11.1718 11.8907 10.6666 10.6667 10.6666C9.44279 10.6666 8.35946 11.1718 7.66675 11.9478C6.97925 12.7239 6.66675 13.703 6.66675 14.6666C6.66675 15.6301 6.97925 16.6093 7.66675 17.3853C8.35946 18.1614 9.44279 18.6666 10.6667 18.6666C11.6355 18.6666 12.4532 18.2916 13.1251 17.7708L17.6095 20.5833C17.5626 20.8437 17.3334 21.0676 17.3334 21.3333C17.3334 21.5989 17.5626 21.8228 17.6095 22.0833L13.1251 24.8958C12.4532 24.3749 11.6355 23.9999 10.6667 23.9999C9.44279 23.9999 8.35946 24.5051 7.66675 25.2812C6.97925 26.0572 6.66675 27.0364 6.66675 27.9999C6.66675 28.9635 6.97925 29.9426 7.66675 30.7187C8.35946 31.4947 9.44279 31.9999 10.6667 31.9999C11.8907 31.9999 12.974 31.4947 13.6667 30.7187C14.3542 29.9426 14.6667 28.9635 14.6667 27.9999C14.6667 27.7343 14.4376 27.5103 14.3907 27.2499L18.8751 24.4374C19.2136 24.703 19.573 24.9166 20.0001 25.0624V29.6041C19.349 29.828 18.7553 30.1458 18.3334 30.6145C17.6459 31.3905 17.3334 32.3697 17.3334 33.3333C17.3334 34.2968 17.6459 35.276 18.3334 36.052C19.0261 36.828 20.1095 37.3333 21.3334 37.3333C22.5574 37.3333 23.6407 36.828 24.3334 36.052C25.0209 35.276 25.3334 34.2968 25.3334 33.3333C25.3334 32.3697 25.0209 31.3905 24.3334 30.6145C23.9115 30.1458 23.3178 29.828 22.6667 29.6041V25.0624C23.0938 24.9166 23.4532 24.703 23.7917 24.4374L28.2761 27.2499C28.2292 27.5103 28.0001 27.7343 28.0001 27.9999C28.0001 28.9635 28.3126 29.9426 29.0001 30.7187C29.6928 31.4947 30.7761 31.9999 32.0001 31.9999C33.224 31.9999 34.3074 31.4947 35.0001 30.7187C35.6876 29.9426 36.0001 28.9635 36.0001 27.9999C36.0001 27.0364 35.6876 26.0572 35.0001 25.2812C34.3074 24.5051 33.224 23.9999 32.0001 23.9999C31.0313 23.9999 30.2136 24.3749 29.5417 24.8958L25.0574 22.0833C25.1042 21.8228 25.3334 21.5989 25.3334 21.3333C25.3334 21.0676 25.1042 20.8437 25.0574 20.5833L29.5417 17.7708C30.2136 18.2916 31.0313 18.6666 32.0001 18.6666C33.224 18.6666 34.3074 18.1614 35.0001 17.3853C35.6876 16.6093 36.0001 15.6301 36.0001 14.6666C36.0001 13.703 35.6876 12.7239 35.0001 11.9478C34.3074 11.1718 33.224 10.6666 32.0001 10.6666C30.7761 10.6666 29.6928 11.1718 29.0001 11.9478C28.3126 12.7239 28.0001 13.703 28.0001 14.6666C28.0001 14.9322 28.2292 15.1562 28.2761 15.4166L23.7917 18.2291C23.4532 17.9635 23.0938 17.7499 22.6667 17.6041V13.0624C23.3178 12.8385 23.9115 12.5208 24.3334 12.052C25.0209 11.276 25.3334 10.2968 25.3334 9.33325C25.3334 8.36971 25.0209 7.39054 24.3334 6.6145C23.6407 5.83846 22.5574 5.33325 21.3334 5.33325ZM21.3334 7.99992C21.8907 7.99992 22.1355 8.16138 22.3334 8.38533C22.5365 8.60929 22.6667 8.96346 22.6667 9.33325C22.6667 9.70304 22.5365 10.0572 22.3334 10.2812C22.1355 10.5051 21.8907 10.6666 21.3334 10.6666C20.7761 10.6666 20.5313 10.5051 20.3334 10.2812C20.1303 10.0572 20.0001 9.70304 20.0001 9.33325C20.0001 8.96346 20.1303 8.60929 20.3334 8.38533C20.5313 8.16138 20.7761 7.99992 21.3334 7.99992ZM10.6667 13.3333C11.224 13.3333 11.4688 13.4947 11.6667 13.7187C11.8699 13.9426 12.0001 14.2968 12.0001 14.6666C12.0001 15.0364 11.8699 15.3905 11.6667 15.6145C11.4688 15.8385 11.224 15.9999 10.6667 15.9999C10.1095 15.9999 9.86467 15.8385 9.66675 15.6145C9.46362 15.3905 9.33341 15.0364 9.33341 14.6666C9.33341 14.2968 9.46362 13.9426 9.66675 13.7187C9.86467 13.4947 10.1095 13.3333 10.6667 13.3333ZM32.0001 13.3333C32.5574 13.3333 32.8022 13.4947 33.0001 13.7187C33.2032 13.9426 33.3334 14.2968 33.3334 14.6666C33.3334 15.0364 33.2032 15.3905 33.0001 15.6145C32.8022 15.8385 32.5574 15.9999 32.0001 15.9999C31.4428 15.9999 31.198 15.8385 31.0001 15.6145C30.797 15.3905 30.6667 15.0364 30.6667 14.6666C30.6667 14.2968 30.797 13.9426 31.0001 13.7187C31.198 13.4947 31.4428 13.3333 32.0001 13.3333ZM21.3334 19.9999C21.8907 19.9999 22.1355 20.1614 22.3334 20.3853C22.5365 20.6093 22.6667 20.9635 22.6667 21.3333C22.6667 21.703 22.5365 22.0572 22.3334 22.2812C22.1355 22.5051 21.8907 22.6666 21.3334 22.6666C20.7761 22.6666 20.5313 22.5051 20.3334 22.2812C20.1303 22.0572 20.0001 21.703 20.0001 21.3333C20.0001 20.9635 20.1303 20.6093 20.3334 20.3853C20.5313 20.1614 20.7761 19.9999 21.3334 19.9999ZM10.6667 26.6666C11.224 26.6666 11.4688 26.828 11.6667 27.052C11.8699 27.276 12.0001 27.6301 12.0001 27.9999C12.0001 28.3697 11.8699 28.7239 11.6667 28.9478C11.4688 29.1718 11.224 29.3333 10.6667 29.3333C10.1095 29.3333 9.86467 29.1718 9.66675 28.9478C9.46362 28.7239 9.33341 28.3697 9.33341 27.9999C9.33341 27.6301 9.46362 27.276 9.66675 27.052C9.86467 26.828 10.1095 26.6666 10.6667 26.6666ZM32.0001 26.6666C32.5574 26.6666 32.8022 26.828 33.0001 27.052C33.2032 27.276 33.3334 27.6301 33.3334 27.9999C33.3334 28.3697 33.2032 28.7239 33.0001 28.9478C32.8022 29.1718 32.5574 29.3333 32.0001 29.3333C31.4428 29.3333 31.198 29.1718 31.0001 28.9478C30.797 28.7239 30.6667 28.3697 30.6667 27.9999C30.6667 27.6301 30.797 27.276 31.0001 27.052C31.198 26.828 31.4428 26.6666 32.0001 26.6666ZM21.3334 31.9999C21.8907 31.9999 22.1355 32.1614 22.3334 32.3853C22.5365 32.6093 22.6667 32.9635 22.6667 33.3333C22.6667 33.703 22.5365 34.0572 22.3334 34.2812C22.1355 34.5051 21.8907 34.6666 21.3334 34.6666C20.7761 34.6666 20.5313 34.5051 20.3334 34.2812C20.1303 34.0572 20.0001 33.703 20.0001 33.3333C20.0001 32.9635 20.1303 32.6093 20.3334 32.3853C20.5313 32.1614 20.7761 31.9999 21.3334 31.9999Z" fill="#171718"/>
</svg>
