<svg width="43" height="43" viewBox="0 0 43 43" fill="none" xmlns="http://www.w3.org/2000/svg">
<path d="M21.3333 5.33325C19.8593 5.33325 18.6666 6.52596 18.6666 7.99992C18.6666 9.47388 19.8593 10.6666 21.3333 10.6666C22.8073 10.6666 24 9.47388 24 7.99992C24 6.52596 22.8073 5.33325 21.3333 5.33325ZM9.33329 11.9999C7.85933 11.9999 6.66663 13.1926 6.66663 14.6666C6.66663 16.1405 7.85933 17.3333 9.33329 17.3333C10.8073 17.3333 12 16.1405 12 14.6666C12 13.1926 10.8073 11.9999 9.33329 11.9999ZM33.3333 11.9999C31.8593 11.9999 30.6666 13.1926 30.6666 14.6666C30.6666 16.1405 31.8593 17.3333 33.3333 17.3333C34.8073 17.3333 36 16.1405 36 14.6666C36 13.1926 34.8073 11.9999 33.3333 11.9999ZM21.3333 15.9999C19.1406 15.9999 17.3333 17.8072 17.3333 19.9999C17.3333 20.927 17.7916 21.7083 18.3281 22.3905C16.9583 23.3541 16 24.8749 16 26.6666H18.6666C18.6666 25.177 19.8437 23.9999 21.3333 23.9999C22.8229 23.9999 24 25.177 24 26.6666H26.6666C26.6666 24.8749 25.7083 23.3541 24.3385 22.3905C24.875 21.7083 25.3333 20.927 25.3333 19.9999C25.3333 17.8072 23.526 15.9999 21.3333 15.9999ZM21.3333 18.6666C22.0885 18.6666 22.6666 19.2447 22.6666 19.9999C22.6666 20.7551 22.0885 21.3333 21.3333 21.3333C20.5781 21.3333 20 20.7551 20 19.9999C20 19.2447 20.5781 18.6666 21.3333 18.6666ZM9.33329 23.9999C7.85933 23.9999 6.66663 25.1926 6.66663 26.6666C6.66663 28.1405 7.85933 29.3333 9.33329 29.3333C10.8073 29.3333 12 28.1405 12 26.6666C12 25.1926 10.8073 23.9999 9.33329 23.9999ZM33.3333 23.9999C31.8593 23.9999 30.6666 25.1926 30.6666 26.6666C30.6666 28.1405 31.8593 29.3333 33.3333 29.3333C34.8073 29.3333 36 28.1405 36 26.6666C36 25.1926 34.8073 23.9999 33.3333 23.9999ZM21.3333 31.9999C19.8593 31.9999 18.6666 33.1926 18.6666 34.6666C18.6666 36.1405 19.8593 37.3333 21.3333 37.3333C22.8073 37.3333 24 36.1405 24 34.6666C24 33.1926 22.8073 31.9999 21.3333 31.9999Z" fill="#171718"/>
</svg>
