<svg width="43" height="43" viewBox="0 0 43 43" fill="none" xmlns="http://www.w3.org/2000/svg">
<path d="M5.33337 5.33325V29.3333H13.3334V37.3333H37.3334V13.3333H29.3334V5.33325H5.33337ZM8.00004 7.99992H26.6667V14.0833L14.0834 26.6666H8.00004V7.99992ZM14.6667 10.6666V11.9999H10.6667V14.6666H17.25C17.0782 16.1978 16.6094 17.4062 15.8334 18.2499C15.375 18.0989 14.9636 17.9114 14.625 17.7083C13.6875 17.151 13.3334 16.5572 13.3334 15.9999H10.6667C10.6667 17.5885 11.6459 18.9114 12.9584 19.7916C12.3021 19.9322 11.5417 19.9999 10.6667 19.9999V22.6666C13.0313 22.6666 15 22.1249 16.5 21.1249C17.198 21.2447 17.9063 21.3333 18.6667 21.3333V18.8333C19.3907 17.6197 19.7761 16.203 19.9167 14.6666H21.3334V11.9999H17.3334V10.6666H14.6667ZM28.5834 15.9999H34.6667V34.6666H16V28.5833L28.5834 15.9999ZM26.6667 18.4583L25.4167 22.2499L22.75 30.2499L22.6667 30.4583V31.9999H25.3334V30.8333L25.375 30.6666H27.9584L28 30.8333V31.9999H30.6667V30.4583L30.5834 30.2499L27.9167 22.2499L26.6667 18.4583ZM26.6667 26.8333L27.0417 27.9999H26.2917L26.6667 26.8333Z" fill="#171718"/>
</svg>
